G75*
%MOIN*%
%OFA0B0*%
%FSLAX24Y24*%
%IPPOS*%
%LPD*%
%AMOC8*
5,1,8,0,0,1.08239X$1,22.5*
%
%ADD10C,0.0000*%
%ADD11R,0.0157X0.1102*%
%ADD12R,0.0100X0.0280*%
%ADD13R,0.0960X0.0960*%
%ADD14R,0.0354X0.0276*%
%ADD15R,0.0276X0.0354*%
%ADD16R,0.0299X0.0945*%
%ADD17R,0.0200X0.0400*%
%ADD18C,0.0160*%
%ADD19C,0.0080*%
%ADD20C,0.0240*%
%ADD21C,0.0280*%
D10*
X000680Y000380D02*
X000680Y008254D01*
X012491Y008254D01*
X012491Y000380D01*
X000680Y000380D01*
D11*
X003436Y006049D03*
X003751Y006049D03*
X004066Y006049D03*
X004381Y006049D03*
X004696Y006049D03*
X005011Y006049D03*
X005326Y006049D03*
X005641Y006049D03*
X005956Y006049D03*
X006271Y006049D03*
X006586Y006049D03*
X006900Y006049D03*
X007215Y006049D03*
X007530Y006049D03*
X007845Y006049D03*
X008160Y006049D03*
X008475Y006049D03*
X008790Y006049D03*
X009105Y006049D03*
X009420Y006049D03*
X009735Y006049D03*
D12*
G36*
X007137Y003706D02*
X007066Y003777D01*
X007263Y003974D01*
X007334Y003903D01*
X007137Y003706D01*
G37*
G36*
X007264Y003578D02*
X007193Y003649D01*
X007390Y003846D01*
X007461Y003775D01*
X007264Y003578D01*
G37*
G36*
X007391Y003451D02*
X007320Y003522D01*
X007517Y003719D01*
X007588Y003648D01*
X007391Y003451D01*
G37*
G36*
X007511Y003331D02*
X007440Y003402D01*
X007637Y003599D01*
X007708Y003528D01*
X007511Y003331D01*
G37*
G36*
X007639Y003204D02*
X007568Y003275D01*
X007765Y003472D01*
X007836Y003401D01*
X007639Y003204D01*
G37*
G36*
X007836Y002935D02*
X007765Y002864D01*
X007568Y003061D01*
X007639Y003132D01*
X007836Y002935D01*
G37*
G36*
X007708Y002808D02*
X007637Y002737D01*
X007440Y002934D01*
X007511Y003005D01*
X007708Y002808D01*
G37*
G36*
X007588Y002688D02*
X007517Y002617D01*
X007320Y002814D01*
X007391Y002885D01*
X007588Y002688D01*
G37*
G36*
X007461Y002560D02*
X007390Y002489D01*
X007193Y002686D01*
X007264Y002757D01*
X007461Y002560D01*
G37*
G36*
X007334Y002433D02*
X007263Y002362D01*
X007066Y002559D01*
X007137Y002630D01*
X007334Y002433D01*
G37*
G36*
X007213Y002313D02*
X007142Y002242D01*
X006945Y002439D01*
X007016Y002510D01*
X007213Y002313D01*
G37*
G36*
X007086Y002186D02*
X007015Y002115D01*
X006818Y002312D01*
X006889Y002383D01*
X007086Y002186D01*
G37*
G36*
X006550Y002115D02*
X006479Y002186D01*
X006676Y002383D01*
X006747Y002312D01*
X006550Y002115D01*
G37*
G36*
X006422Y002242D02*
X006351Y002313D01*
X006548Y002510D01*
X006619Y002439D01*
X006422Y002242D01*
G37*
G36*
X006302Y002362D02*
X006231Y002433D01*
X006428Y002630D01*
X006499Y002559D01*
X006302Y002362D01*
G37*
G36*
X006175Y002489D02*
X006104Y002560D01*
X006301Y002757D01*
X006372Y002686D01*
X006175Y002489D01*
G37*
G36*
X006048Y002617D02*
X005977Y002688D01*
X006174Y002885D01*
X006245Y002814D01*
X006048Y002617D01*
G37*
G36*
X005927Y002737D02*
X005856Y002808D01*
X006053Y003005D01*
X006124Y002934D01*
X005927Y002737D01*
G37*
G36*
X005800Y002864D02*
X005729Y002935D01*
X005926Y003132D01*
X005997Y003061D01*
X005800Y002864D01*
G37*
G36*
X005997Y003275D02*
X005926Y003204D01*
X005729Y003401D01*
X005800Y003472D01*
X005997Y003275D01*
G37*
G36*
X006124Y003402D02*
X006053Y003331D01*
X005856Y003528D01*
X005927Y003599D01*
X006124Y003402D01*
G37*
G36*
X006245Y003522D02*
X006174Y003451D01*
X005977Y003648D01*
X006048Y003719D01*
X006245Y003522D01*
G37*
G36*
X006372Y003649D02*
X006301Y003578D01*
X006104Y003775D01*
X006175Y003846D01*
X006372Y003649D01*
G37*
G36*
X006499Y003777D02*
X006428Y003706D01*
X006231Y003903D01*
X006302Y003974D01*
X006499Y003777D01*
G37*
G36*
X006619Y003897D02*
X006548Y003826D01*
X006351Y004023D01*
X006422Y004094D01*
X006619Y003897D01*
G37*
G36*
X006747Y004024D02*
X006676Y003953D01*
X006479Y004150D01*
X006550Y004221D01*
X006747Y004024D01*
G37*
G36*
X006889Y003953D02*
X006818Y004024D01*
X007015Y004221D01*
X007086Y004150D01*
X006889Y003953D01*
G37*
G36*
X007016Y003826D02*
X006945Y003897D01*
X007142Y004094D01*
X007213Y004023D01*
X007016Y003826D01*
G37*
D13*
G36*
X006782Y003846D02*
X007460Y003168D01*
X006782Y002490D01*
X006104Y003168D01*
X006782Y003846D01*
G37*
D14*
X010760Y004056D03*
X011300Y004094D03*
X011300Y003583D03*
X010760Y003544D03*
X010400Y007286D03*
X010400Y007797D03*
X009500Y007814D03*
X009500Y007303D03*
X008600Y007286D03*
X008600Y007797D03*
X007700Y007797D03*
X007700Y007286D03*
X005480Y007286D03*
X005480Y007797D03*
X004580Y007797D03*
X004580Y007286D03*
X003680Y007286D03*
X003680Y007797D03*
X003020Y007797D03*
X003020Y007286D03*
X002180Y007286D03*
X001561Y007226D03*
X001561Y007737D03*
X002180Y007797D03*
X011306Y007797D03*
X011306Y007286D03*
D15*
X006974Y007541D03*
X006463Y007541D03*
G36*
X005901Y004692D02*
X005706Y004497D01*
X005457Y004746D01*
X005652Y004941D01*
X005901Y004692D01*
G37*
G36*
X005539Y004330D02*
X005344Y004135D01*
X005095Y004384D01*
X005290Y004579D01*
X005539Y004330D01*
G37*
G36*
X004747Y001730D02*
X004942Y001925D01*
X005191Y001676D01*
X004996Y001481D01*
X004747Y001730D01*
G37*
G36*
X004386Y001368D02*
X004581Y001563D01*
X004830Y001314D01*
X004635Y001119D01*
X004386Y001368D01*
G37*
G36*
X006828Y001260D02*
X007023Y001455D01*
X007272Y001206D01*
X007077Y001011D01*
X006828Y001260D01*
G37*
G36*
X007190Y001622D02*
X007385Y001817D01*
X007634Y001568D01*
X007439Y001373D01*
X007190Y001622D01*
G37*
G36*
X008006Y001012D02*
X007811Y000817D01*
X007562Y001066D01*
X007757Y001261D01*
X008006Y001012D01*
G37*
G36*
X008368Y001374D02*
X008173Y001179D01*
X007924Y001428D01*
X008119Y001623D01*
X008368Y001374D01*
G37*
G36*
X008995Y002488D02*
X009190Y002683D01*
X009439Y002434D01*
X009244Y002239D01*
X008995Y002488D01*
G37*
G36*
X009357Y002850D02*
X009552Y003045D01*
X009801Y002796D01*
X009606Y002601D01*
X009357Y002850D01*
G37*
D16*
X003899Y003904D03*
X003399Y003904D03*
X002899Y003904D03*
X002399Y003904D03*
X001899Y003904D03*
X001399Y003904D03*
X001399Y001581D03*
X001899Y001581D03*
X002399Y001581D03*
X002899Y001581D03*
X003399Y001581D03*
X003899Y001581D03*
D17*
G36*
X008320Y001882D02*
X008462Y002024D01*
X008744Y001742D01*
X008602Y001600D01*
X008320Y001882D01*
G37*
G36*
X008626Y002188D02*
X008768Y002330D01*
X009050Y002048D01*
X008908Y001906D01*
X008626Y002188D01*
G37*
D18*
X009860Y001460D02*
X011120Y001460D01*
X011300Y001640D01*
X009860Y001460D02*
X009260Y000860D01*
X009020Y000860D01*
X008840Y001040D01*
X008780Y001040D01*
X007784Y001039D02*
X007759Y001039D01*
X007640Y000920D01*
X007363Y000920D01*
X007050Y001233D01*
X005000Y002660D02*
X004880Y002540D01*
X004220Y002540D01*
X003920Y002840D01*
X003920Y002960D01*
X003740Y002780D01*
X003620Y002780D01*
X003920Y002960D02*
X003920Y003882D01*
X003899Y003904D01*
X004760Y003680D02*
X005000Y003440D01*
X005000Y002660D01*
X004760Y003680D02*
X004760Y004700D01*
X004940Y004880D01*
X005480Y004880D01*
X005641Y004719D01*
X005679Y004719D01*
X005360Y004357D02*
X005360Y003980D01*
X005360Y004357D02*
X005317Y004357D01*
X003380Y002420D02*
X003200Y002600D01*
X003140Y002600D01*
X003380Y002420D02*
X003380Y001599D01*
X003399Y001581D01*
X003399Y001081D01*
X003500Y000980D01*
X003800Y000980D01*
X003920Y001100D01*
X003920Y001559D01*
X003899Y001581D01*
X001899Y001581D02*
X001899Y003020D01*
X001899Y003904D01*
X001399Y003904D02*
X001204Y003904D01*
X001040Y003740D01*
X001040Y003140D01*
X001561Y007737D02*
X002120Y007737D01*
X002180Y007797D01*
X003020Y007797D01*
X003320Y007797D01*
X003680Y007797D01*
X004580Y007797D01*
X005480Y007797D01*
X007700Y007797D02*
X008600Y007797D01*
X009500Y007303D02*
X009703Y007303D01*
X010160Y007760D01*
X010363Y007760D01*
X010400Y007797D01*
X011306Y007797D01*
D19*
X011335Y007768D02*
X011335Y007826D01*
X011623Y007826D01*
X011623Y007954D01*
X011613Y007989D01*
X011595Y008021D01*
X011569Y008047D01*
X011537Y008066D01*
X011501Y008075D01*
X011335Y008075D01*
X011335Y007826D01*
X011277Y007826D01*
X011277Y007768D01*
X010989Y007768D01*
X010989Y007641D01*
X010998Y007605D01*
X011017Y007574D01*
X011035Y007556D01*
X010969Y007490D01*
X010969Y007081D01*
X011062Y006988D01*
X011106Y006988D01*
X011106Y006891D01*
X011380Y006617D01*
X011380Y006564D01*
X011423Y006461D01*
X011424Y006460D01*
X010783Y006460D01*
X010600Y006643D01*
X010600Y006988D01*
X010643Y006988D01*
X010737Y007081D01*
X010737Y007490D01*
X010671Y007556D01*
X010689Y007574D01*
X010708Y007605D01*
X010717Y007641D01*
X010717Y007768D01*
X010429Y007768D01*
X010429Y007826D01*
X010717Y007826D01*
X010717Y007954D01*
X010708Y007989D01*
X010689Y008021D01*
X010663Y008047D01*
X010631Y008066D01*
X010596Y008075D01*
X010429Y008075D01*
X010429Y007826D01*
X010371Y007826D01*
X010371Y008075D01*
X010204Y008075D01*
X010169Y008066D01*
X010137Y008047D01*
X010124Y008034D01*
X010099Y008094D01*
X012331Y008094D01*
X012331Y000540D01*
X008983Y000540D01*
X009063Y000620D01*
X009308Y000620D01*
X009396Y000657D01*
X009959Y001220D01*
X011168Y001220D01*
X011256Y001257D01*
X011362Y001363D01*
X011459Y001403D01*
X011537Y001481D01*
X011580Y001584D01*
X011580Y001696D01*
X011537Y001799D01*
X011459Y001877D01*
X011356Y001920D01*
X011244Y001920D01*
X011141Y001877D01*
X011063Y001799D01*
X011023Y001702D01*
X011021Y001700D01*
X010503Y001700D01*
X010543Y001740D01*
X010660Y001857D01*
X010660Y003246D01*
X011003Y003246D01*
X011071Y003314D01*
X011104Y003305D01*
X011271Y003305D01*
X011271Y003554D01*
X011329Y003554D01*
X011329Y003612D01*
X011617Y003612D01*
X011617Y003739D01*
X011608Y003775D01*
X011589Y003806D01*
X011571Y003824D01*
X011637Y003890D01*
X011637Y004299D01*
X011543Y004392D01*
X011057Y004392D01*
X011011Y004346D01*
X011003Y004354D01*
X010517Y004354D01*
X010423Y004260D01*
X010423Y004256D01*
X009120Y004256D01*
X009120Y004276D01*
X009084Y004362D01*
X009935Y005212D01*
X009935Y005393D01*
X009974Y005432D01*
X009974Y006667D01*
X009880Y006760D01*
X009590Y006760D01*
X009578Y006748D01*
X009565Y006760D01*
X009275Y006760D01*
X009263Y006748D01*
X009250Y006760D01*
X008960Y006760D01*
X008948Y006748D01*
X008935Y006760D01*
X008645Y006760D01*
X008633Y006748D01*
X008620Y006760D01*
X008330Y006760D01*
X008318Y006748D01*
X008305Y006760D01*
X008015Y006760D01*
X007983Y006728D01*
X007978Y006731D01*
X007943Y006740D01*
X007845Y006740D01*
X007748Y006740D01*
X007713Y006731D01*
X007708Y006728D01*
X007675Y006760D01*
X007583Y006760D01*
X007603Y006780D01*
X008023Y006780D01*
X008294Y007051D01*
X008357Y006988D01*
X008843Y006988D01*
X008937Y007081D01*
X008937Y007490D01*
X008885Y007541D01*
X008937Y007593D01*
X008937Y008001D01*
X008845Y008094D01*
X009238Y008094D01*
X009163Y008019D01*
X009163Y007610D01*
X009229Y007544D01*
X009211Y007526D01*
X009192Y007495D01*
X009183Y007459D01*
X009183Y007332D01*
X009471Y007332D01*
X009471Y007274D01*
X009183Y007274D01*
X009183Y007146D01*
X009192Y007111D01*
X009211Y007079D01*
X009237Y007053D01*
X009269Y007034D01*
X009304Y007025D01*
X009471Y007025D01*
X009471Y007274D01*
X009529Y007274D01*
X009529Y007332D01*
X009817Y007332D01*
X009817Y007459D01*
X009808Y007495D01*
X009789Y007526D01*
X009771Y007544D01*
X009837Y007610D01*
X009837Y007660D01*
X009916Y007660D01*
X010019Y007703D01*
X010083Y007767D01*
X010083Y007641D01*
X010092Y007605D01*
X010111Y007574D01*
X010129Y007556D01*
X010063Y007490D01*
X010063Y007081D01*
X010157Y006988D01*
X010200Y006988D01*
X010200Y006477D01*
X010317Y006360D01*
X010541Y006137D01*
X010523Y006119D01*
X010480Y006016D01*
X010480Y005904D01*
X010523Y005801D01*
X010601Y005723D01*
X010704Y005680D01*
X010816Y005680D01*
X010919Y005723D01*
X010997Y005801D01*
X011040Y005904D01*
X011040Y006016D01*
X011040Y006017D01*
X011083Y006060D01*
X011704Y006060D01*
X011741Y006023D01*
X011844Y005980D01*
X011956Y005980D01*
X012059Y006023D01*
X012137Y006101D01*
X012180Y006204D01*
X012180Y006316D01*
X012137Y006419D01*
X012059Y006497D01*
X011956Y006540D01*
X011930Y006540D01*
X011940Y006564D01*
X011940Y006676D01*
X011897Y006779D01*
X011819Y006857D01*
X011716Y006900D01*
X011663Y006900D01*
X011562Y007001D01*
X011643Y007081D01*
X011643Y007490D01*
X011577Y007556D01*
X011595Y007574D01*
X011613Y007605D01*
X011623Y007641D01*
X011623Y007768D01*
X011335Y007768D01*
X011335Y007838D02*
X011277Y007838D01*
X011277Y007826D02*
X011277Y008075D01*
X011110Y008075D01*
X011075Y008066D01*
X011043Y008047D01*
X011017Y008021D01*
X010998Y007989D01*
X010989Y007954D01*
X010989Y007826D01*
X011277Y007826D01*
X011277Y007916D02*
X011335Y007916D01*
X011335Y007995D02*
X011277Y007995D01*
X011277Y008073D02*
X011335Y008073D01*
X011509Y008073D02*
X012331Y008073D01*
X012331Y007995D02*
X011610Y007995D01*
X011623Y007916D02*
X012331Y007916D01*
X012331Y007838D02*
X011623Y007838D01*
X011623Y007759D02*
X012331Y007759D01*
X012331Y007681D02*
X011623Y007681D01*
X011611Y007602D02*
X012331Y007602D01*
X012331Y007524D02*
X011609Y007524D01*
X011643Y007445D02*
X012331Y007445D01*
X012331Y007367D02*
X011643Y007367D01*
X011643Y007288D02*
X012331Y007288D01*
X012331Y007210D02*
X011643Y007210D01*
X011643Y007131D02*
X012331Y007131D01*
X012331Y007053D02*
X011614Y007053D01*
X011589Y006974D02*
X012331Y006974D01*
X012331Y006896D02*
X011727Y006896D01*
X011859Y006817D02*
X012331Y006817D01*
X012331Y006739D02*
X011914Y006739D01*
X011940Y006660D02*
X012331Y006660D01*
X012331Y006582D02*
X011940Y006582D01*
X012045Y006503D02*
X012331Y006503D01*
X012331Y006425D02*
X012131Y006425D01*
X012167Y006346D02*
X012331Y006346D01*
X012331Y006268D02*
X012180Y006268D01*
X012174Y006189D02*
X012331Y006189D01*
X012331Y006111D02*
X012141Y006111D01*
X012068Y006032D02*
X012331Y006032D01*
X012331Y005954D02*
X011040Y005954D01*
X011055Y006032D02*
X011732Y006032D01*
X011900Y006260D02*
X011000Y006260D01*
X010760Y006020D01*
X010760Y005960D01*
X010992Y005797D02*
X012331Y005797D01*
X012331Y005875D02*
X011028Y005875D01*
X010907Y005718D02*
X012331Y005718D01*
X012331Y005640D02*
X009974Y005640D01*
X009974Y005718D02*
X010613Y005718D01*
X010528Y005797D02*
X009974Y005797D01*
X009974Y005875D02*
X010492Y005875D01*
X010480Y005954D02*
X009974Y005954D01*
X009974Y006032D02*
X010487Y006032D01*
X010519Y006111D02*
X009974Y006111D01*
X009974Y006189D02*
X010488Y006189D01*
X010410Y006268D02*
X009974Y006268D01*
X009974Y006346D02*
X010331Y006346D01*
X010253Y006425D02*
X009974Y006425D01*
X009974Y006503D02*
X010200Y006503D01*
X010200Y006582D02*
X009974Y006582D01*
X009974Y006660D02*
X010200Y006660D01*
X010200Y006739D02*
X009902Y006739D01*
X010200Y006817D02*
X008060Y006817D01*
X007993Y006739D02*
X007950Y006739D01*
X007940Y006800D02*
X009320Y006800D01*
X009500Y006980D01*
X009500Y007303D01*
X009529Y007288D02*
X010063Y007288D01*
X010063Y007210D02*
X009817Y007210D01*
X009817Y007146D02*
X009817Y007274D01*
X009529Y007274D01*
X009529Y007025D01*
X009696Y007025D01*
X009731Y007034D01*
X009763Y007053D01*
X009789Y007079D01*
X009808Y007111D01*
X009817Y007146D01*
X009813Y007131D02*
X010063Y007131D01*
X010092Y007053D02*
X009763Y007053D01*
X009529Y007053D02*
X009471Y007053D01*
X009471Y007131D02*
X009529Y007131D01*
X009529Y007210D02*
X009471Y007210D01*
X009471Y007288D02*
X008937Y007288D01*
X008937Y007210D02*
X009183Y007210D01*
X009187Y007131D02*
X008937Y007131D01*
X008908Y007053D02*
X009237Y007053D01*
X009183Y007367D02*
X008937Y007367D01*
X008937Y007445D02*
X009183Y007445D01*
X009209Y007524D02*
X008903Y007524D01*
X008937Y007602D02*
X009171Y007602D01*
X009163Y007681D02*
X008937Y007681D01*
X008937Y007759D02*
X009163Y007759D01*
X009163Y007838D02*
X008937Y007838D01*
X008937Y007916D02*
X009163Y007916D01*
X009163Y007995D02*
X008937Y007995D01*
X008866Y008073D02*
X009217Y008073D01*
X009500Y007814D02*
X009626Y007940D01*
X009860Y007940D01*
X010075Y007759D02*
X010083Y007759D01*
X010083Y007681D02*
X009965Y007681D01*
X010094Y007602D02*
X009829Y007602D01*
X009791Y007524D02*
X010097Y007524D01*
X010063Y007445D02*
X009817Y007445D01*
X009817Y007367D02*
X010063Y007367D01*
X010400Y007286D02*
X010400Y006560D01*
X010700Y006260D01*
X011000Y006260D01*
X010740Y006503D02*
X011405Y006503D01*
X011380Y006582D02*
X010661Y006582D01*
X010600Y006660D02*
X011337Y006660D01*
X011259Y006739D02*
X010600Y006739D01*
X010600Y006817D02*
X011180Y006817D01*
X011106Y006896D02*
X010600Y006896D01*
X010600Y006974D02*
X011106Y006974D01*
X010998Y007053D02*
X010708Y007053D01*
X010737Y007131D02*
X010969Y007131D01*
X010969Y007210D02*
X010737Y007210D01*
X010737Y007288D02*
X010969Y007288D01*
X010969Y007367D02*
X010737Y007367D01*
X010737Y007445D02*
X010969Y007445D01*
X011003Y007524D02*
X010703Y007524D01*
X010706Y007602D02*
X011000Y007602D01*
X010989Y007681D02*
X010717Y007681D01*
X010717Y007759D02*
X010989Y007759D01*
X010989Y007838D02*
X010717Y007838D01*
X010717Y007916D02*
X010989Y007916D01*
X011001Y007995D02*
X010705Y007995D01*
X010603Y008073D02*
X011102Y008073D01*
X010429Y008073D02*
X010371Y008073D01*
X010371Y007995D02*
X010429Y007995D01*
X010429Y007916D02*
X010371Y007916D01*
X010371Y007838D02*
X010429Y007838D01*
X010197Y008073D02*
X010108Y008073D01*
X011306Y007286D02*
X011306Y006974D01*
X011660Y006620D01*
X012331Y005561D02*
X009974Y005561D01*
X009974Y005483D02*
X012331Y005483D01*
X012331Y005404D02*
X009946Y005404D01*
X009935Y005326D02*
X012331Y005326D01*
X012331Y005247D02*
X009935Y005247D01*
X009891Y005169D02*
X012331Y005169D01*
X012331Y005090D02*
X009813Y005090D01*
X009734Y005012D02*
X012331Y005012D01*
X012331Y004933D02*
X009656Y004933D01*
X009577Y004855D02*
X012331Y004855D01*
X012331Y004776D02*
X009499Y004776D01*
X009420Y004698D02*
X012331Y004698D01*
X012331Y004619D02*
X009342Y004619D01*
X009263Y004541D02*
X012331Y004541D01*
X012331Y004462D02*
X009185Y004462D01*
X009106Y004384D02*
X011048Y004384D01*
X011300Y004094D02*
X011261Y004056D01*
X010760Y004056D01*
X009096Y004056D01*
X008960Y003920D01*
X008780Y003920D01*
X008480Y004220D01*
X008480Y004280D01*
X008149Y004280D01*
X007454Y003585D01*
X007574Y003465D02*
X008090Y003980D01*
X008240Y003980D01*
X008104Y003740D02*
X007702Y003338D01*
X007867Y003206D02*
X007980Y003206D01*
X007980Y003223D02*
X007980Y003043D01*
X007977Y003040D01*
X007957Y003040D01*
X007829Y003168D01*
X007996Y003335D01*
X007996Y003349D01*
X008187Y003540D01*
X008344Y003540D01*
X008381Y003503D01*
X008484Y003460D01*
X008596Y003460D01*
X008699Y003503D01*
X008777Y003581D01*
X008820Y003684D01*
X008820Y003720D01*
X009043Y003720D01*
X009160Y003837D01*
X009179Y003856D01*
X010423Y003856D01*
X010423Y003852D01*
X010475Y003800D01*
X010423Y003748D01*
X010423Y003686D01*
X010380Y003643D01*
X010260Y003523D01*
X010260Y002023D01*
X010137Y001900D01*
X009717Y001900D01*
X009600Y001783D01*
X009357Y001540D01*
X009336Y001540D01*
X009299Y001577D01*
X009196Y001620D01*
X009084Y001620D01*
X008981Y001577D01*
X008903Y001499D01*
X008860Y001396D01*
X008860Y001310D01*
X008836Y001320D01*
X008724Y001320D01*
X008621Y001277D01*
X008543Y001199D01*
X008500Y001096D01*
X008500Y000984D01*
X008543Y000881D01*
X008544Y000880D01*
X008073Y000880D01*
X008119Y000925D01*
X008137Y000957D01*
X008147Y000993D01*
X008147Y001018D01*
X008240Y001018D01*
X008529Y001307D01*
X008529Y001439D01*
X008498Y001470D01*
X008502Y001474D01*
X008536Y001440D01*
X008669Y001440D01*
X008904Y001675D01*
X008904Y001746D01*
X008975Y001746D01*
X009210Y001981D01*
X009210Y002079D01*
X009311Y002079D01*
X009599Y002367D01*
X009599Y002461D01*
X009625Y002461D01*
X009660Y002470D01*
X009692Y002489D01*
X009782Y002579D01*
X009579Y002783D01*
X009619Y002823D01*
X009823Y002620D01*
X009913Y002710D01*
X009932Y002742D01*
X009941Y002777D01*
X009941Y002814D01*
X009932Y002850D01*
X009913Y002882D01*
X009795Y002999D01*
X009619Y002823D01*
X009579Y002864D01*
X009755Y003040D01*
X009637Y003158D01*
X009605Y003177D01*
X009569Y003186D01*
X009532Y003186D01*
X009497Y003177D01*
X009465Y003158D01*
X009375Y003068D01*
X009579Y002864D01*
X009538Y002823D01*
X009334Y003027D01*
X009244Y002937D01*
X009225Y002905D01*
X009216Y002870D01*
X009216Y002844D01*
X009123Y002844D01*
X008834Y002556D01*
X008834Y002490D01*
X008834Y002490D01*
X008701Y002490D01*
X008697Y002486D01*
X008623Y002560D01*
X008168Y002560D01*
X008088Y002640D01*
X008143Y002640D01*
X008260Y002757D01*
X008380Y002877D01*
X008380Y003057D01*
X008383Y003060D01*
X008824Y003060D01*
X008861Y003023D01*
X008964Y002980D01*
X009076Y002980D01*
X009179Y003023D01*
X009257Y003101D01*
X009300Y003204D01*
X009300Y003316D01*
X009257Y003419D01*
X009179Y003497D01*
X009076Y003540D01*
X008964Y003540D01*
X008861Y003497D01*
X008824Y003460D01*
X008217Y003460D01*
X008097Y003340D01*
X007980Y003223D01*
X007946Y003285D02*
X008042Y003285D01*
X008010Y003363D02*
X008120Y003363D01*
X008088Y003442D02*
X008199Y003442D01*
X008167Y003520D02*
X008364Y003520D01*
X008540Y003740D02*
X008104Y003740D01*
X008300Y003260D02*
X008180Y003140D01*
X008180Y002960D01*
X008060Y002840D01*
X007860Y002840D01*
X007702Y002998D01*
X007869Y003128D02*
X007980Y003128D01*
X007980Y003049D02*
X007948Y003049D01*
X008300Y003260D02*
X009020Y003260D01*
X009280Y003363D02*
X010260Y003363D01*
X010260Y003285D02*
X009300Y003285D01*
X009300Y003206D02*
X010260Y003206D01*
X010260Y003128D02*
X009667Y003128D01*
X009746Y003049D02*
X010260Y003049D01*
X010220Y003080D02*
X009835Y003080D01*
X009579Y002823D01*
X009800Y002602D01*
X009800Y002480D01*
X008240Y000920D01*
X008000Y000920D01*
X007881Y001039D01*
X007784Y001039D01*
X007700Y001123D01*
X007700Y001400D01*
X007880Y001580D01*
X007880Y001700D01*
X007700Y001880D01*
X007700Y002180D01*
X007580Y002300D01*
X007580Y002360D01*
X007327Y002613D01*
X007327Y002623D01*
X006782Y003168D01*
X006782Y003168D01*
X006238Y003712D01*
X006238Y003712D01*
X006228Y003712D01*
X005900Y004040D01*
X005633Y004040D01*
X005317Y004357D01*
X005303Y004384D02*
X005249Y004384D01*
X005276Y004357D02*
X005072Y004560D01*
X005000Y004489D01*
X005000Y004601D01*
X005039Y004640D01*
X005151Y004640D01*
X005113Y004601D01*
X005317Y004397D01*
X005276Y004357D01*
X005317Y004316D01*
X005357Y004357D01*
X005561Y004153D01*
X005651Y004243D01*
X005670Y004275D01*
X005679Y004310D01*
X005679Y004336D01*
X005773Y004336D01*
X005800Y004363D01*
X006132Y004031D01*
X006071Y003970D01*
X006071Y003941D01*
X006040Y003910D01*
X006009Y003879D01*
X005981Y003879D01*
X005922Y003821D01*
X005863Y003880D01*
X005277Y003880D01*
X005157Y003760D01*
X005088Y003691D01*
X005000Y003779D01*
X005000Y004280D01*
X005100Y004181D01*
X005276Y004357D01*
X005317Y004316D02*
X005141Y004140D01*
X005258Y004022D01*
X005290Y004003D01*
X005326Y003994D01*
X005363Y003994D01*
X005398Y004003D01*
X005430Y004022D01*
X005520Y004112D01*
X005317Y004316D01*
X005327Y004305D02*
X005409Y004305D01*
X005406Y004227D02*
X005488Y004227D01*
X005484Y004148D02*
X006014Y004148D01*
X005936Y004227D02*
X005635Y004227D01*
X005678Y004305D02*
X005857Y004305D01*
X006093Y004070D02*
X005478Y004070D01*
X005211Y004070D02*
X005000Y004070D01*
X005000Y004148D02*
X005149Y004148D01*
X005146Y004227D02*
X005227Y004227D01*
X005224Y004305D02*
X005306Y004305D01*
X005252Y004462D02*
X005170Y004462D01*
X005174Y004541D02*
X005092Y004541D01*
X005052Y004541D02*
X005000Y004541D01*
X005018Y004619D02*
X005130Y004619D01*
X005054Y004227D02*
X005000Y004227D01*
X005000Y003991D02*
X006092Y003991D01*
X006042Y003913D02*
X005000Y003913D01*
X005000Y003834D02*
X005231Y003834D01*
X005153Y003756D02*
X005024Y003756D01*
X005240Y003560D02*
X005240Y002240D01*
X005440Y002436D02*
X005440Y002860D01*
X005536Y002860D01*
X005569Y002874D01*
X005569Y002868D01*
X005696Y002741D01*
X005816Y002621D01*
X005877Y002560D01*
X005520Y002203D01*
X005520Y002296D01*
X005477Y002399D01*
X005440Y002436D01*
X005455Y002421D02*
X005738Y002421D01*
X005660Y002343D02*
X005501Y002343D01*
X005520Y002264D02*
X005581Y002264D01*
X005440Y002500D02*
X005817Y002500D01*
X005859Y002578D02*
X005440Y002578D01*
X005440Y002657D02*
X005781Y002657D01*
X005702Y002735D02*
X005440Y002735D01*
X005440Y002814D02*
X005624Y002814D01*
X005480Y003140D02*
X005480Y003440D01*
X005540Y003500D01*
X005720Y003500D01*
X005863Y003357D01*
X005863Y003338D01*
X005990Y003465D02*
X005990Y003470D01*
X005780Y003680D01*
X005360Y003680D01*
X005240Y003560D01*
X004640Y003200D02*
X004520Y003320D01*
X004520Y004820D01*
X004880Y005180D01*
X006200Y005180D01*
X006440Y004940D01*
X006440Y004580D01*
X006440Y004260D01*
X006613Y004087D01*
X006485Y003960D02*
X006365Y003840D01*
X006485Y003960D02*
X005727Y004719D01*
X005679Y004719D01*
X006440Y004580D02*
X006620Y004760D01*
X007640Y004760D01*
X007820Y004940D01*
X008120Y004940D01*
X008240Y004820D01*
X008540Y004820D01*
X008790Y005070D01*
X008790Y006049D01*
X008475Y006049D02*
X008475Y005305D01*
X008480Y005300D01*
X008160Y005460D02*
X008000Y005300D01*
X008160Y005460D02*
X008160Y006049D01*
X007845Y006049D02*
X007845Y006049D01*
X007845Y006705D01*
X007940Y006800D01*
X007845Y006740D02*
X007845Y006049D01*
X007845Y006740D01*
X007845Y006739D02*
X007845Y006739D01*
X007845Y006660D02*
X007845Y006660D01*
X007845Y006582D02*
X007845Y006582D01*
X007845Y006503D02*
X007845Y006503D01*
X007845Y006425D02*
X007845Y006425D01*
X007845Y006346D02*
X007845Y006346D01*
X007845Y006268D02*
X007845Y006268D01*
X007845Y006189D02*
X007845Y006189D01*
X007845Y006111D02*
X007845Y006111D01*
X007530Y006049D02*
X007530Y005430D01*
X007400Y005300D01*
X007940Y004700D02*
X007940Y004580D01*
X007200Y003840D01*
X007079Y003960D02*
X007520Y004400D01*
X007520Y004520D01*
X007160Y004400D02*
X007160Y004280D01*
X006967Y004087D01*
X006952Y004087D01*
X007160Y004400D02*
X007100Y004460D01*
X007327Y003712D02*
X008075Y004460D01*
X008420Y004460D01*
X009105Y005145D01*
X009105Y006049D01*
X009420Y006049D02*
X009420Y005220D01*
X008480Y004280D01*
X008840Y004220D02*
X008840Y004400D01*
X009735Y005295D01*
X009735Y006049D01*
X010200Y006896D02*
X008138Y006896D01*
X008217Y006974D02*
X010200Y006974D01*
X008600Y007286D02*
X008594Y007280D01*
X008240Y007280D01*
X007940Y006980D01*
X007520Y006980D01*
X007215Y006675D01*
X007215Y006049D01*
X006900Y006049D02*
X006900Y006780D01*
X006980Y006860D01*
X007160Y006860D01*
X007520Y007220D01*
X007634Y007220D01*
X007700Y007286D01*
X007280Y007220D02*
X007280Y007640D01*
X007460Y007820D01*
X007677Y007820D01*
X007700Y007797D01*
X007455Y008094D02*
X007381Y008020D01*
X007377Y008020D01*
X007260Y007903D01*
X007207Y007850D01*
X007179Y007879D01*
X006770Y007879D01*
X006719Y007827D01*
X006667Y007879D01*
X006259Y007879D01*
X006165Y007785D01*
X006165Y007348D01*
X005756Y006938D01*
X005756Y006760D01*
X005526Y006760D01*
X005526Y006988D01*
X005723Y006988D01*
X005817Y007081D01*
X005817Y007490D01*
X005751Y007556D01*
X005769Y007574D01*
X005788Y007605D01*
X005797Y007641D01*
X005797Y007768D01*
X005509Y007768D01*
X005509Y007826D01*
X005797Y007826D01*
X005797Y007954D01*
X005788Y007989D01*
X005769Y008021D01*
X005743Y008047D01*
X005711Y008066D01*
X005676Y008075D01*
X005509Y008075D01*
X005509Y007826D01*
X005451Y007826D01*
X005451Y007768D01*
X005163Y007768D01*
X005163Y007641D01*
X005172Y007605D01*
X005191Y007574D01*
X005209Y007556D01*
X005143Y007490D01*
X005143Y007231D01*
X005126Y007214D01*
X005126Y006777D01*
X004869Y007034D01*
X004917Y007081D01*
X004917Y007490D01*
X004851Y007556D01*
X004869Y007574D01*
X004888Y007605D01*
X004897Y007641D01*
X004897Y007768D01*
X004609Y007768D01*
X004609Y007826D01*
X004897Y007826D01*
X004897Y007954D01*
X004888Y007989D01*
X004869Y008021D01*
X004843Y008047D01*
X004811Y008066D01*
X004776Y008075D01*
X004609Y008075D01*
X004609Y007826D01*
X004551Y007826D01*
X004551Y007768D01*
X004263Y007768D01*
X004263Y007641D01*
X004272Y007605D01*
X004291Y007574D01*
X004309Y007556D01*
X004243Y007490D01*
X004243Y007081D01*
X004324Y007000D01*
X003943Y007000D01*
X003939Y007004D01*
X004017Y007081D01*
X004017Y007490D01*
X003951Y007556D01*
X003969Y007574D01*
X003988Y007605D01*
X003997Y007641D01*
X003997Y007768D01*
X003709Y007768D01*
X003709Y007826D01*
X003997Y007826D01*
X003997Y007954D01*
X003988Y007989D01*
X003969Y008021D01*
X003943Y008047D01*
X003911Y008066D01*
X003876Y008075D01*
X003709Y008075D01*
X003709Y007826D01*
X003651Y007826D01*
X003651Y007768D01*
X003363Y007768D01*
X003363Y007641D01*
X003372Y007605D01*
X003391Y007574D01*
X003409Y007556D01*
X003350Y007497D01*
X003291Y007556D01*
X003309Y007574D01*
X003328Y007605D01*
X003337Y007641D01*
X003337Y007768D01*
X003049Y007768D01*
X003049Y007826D01*
X003337Y007826D01*
X003337Y007954D01*
X003328Y007989D01*
X003309Y008021D01*
X003283Y008047D01*
X003251Y008066D01*
X003216Y008075D01*
X003049Y008075D01*
X003049Y007826D01*
X002991Y007826D01*
X002991Y007768D01*
X002703Y007768D01*
X002703Y007641D01*
X002712Y007605D01*
X002731Y007574D01*
X002749Y007556D01*
X002683Y007490D01*
X002683Y007081D01*
X002777Y006988D01*
X002805Y006988D01*
X002752Y006935D01*
X002717Y007019D01*
X002639Y007097D01*
X002536Y007140D01*
X002517Y007140D01*
X002517Y007490D01*
X002451Y007556D01*
X002469Y007574D01*
X002488Y007605D01*
X002497Y007641D01*
X002497Y007768D01*
X002209Y007768D01*
X002209Y007826D01*
X002497Y007826D01*
X002497Y007954D01*
X002488Y007989D01*
X002469Y008021D01*
X002443Y008047D01*
X002411Y008066D01*
X002376Y008075D01*
X002209Y008075D01*
X002209Y007826D01*
X002151Y007826D01*
X002151Y008075D01*
X001984Y008075D01*
X001949Y008066D01*
X001917Y008047D01*
X001891Y008021D01*
X001872Y007989D01*
X001863Y007954D01*
X001863Y007939D01*
X001850Y007961D01*
X001824Y007987D01*
X001792Y008006D01*
X001757Y008015D01*
X001590Y008015D01*
X001590Y007766D01*
X001532Y007766D01*
X001532Y007708D01*
X001244Y007708D01*
X001244Y007581D01*
X001253Y007545D01*
X001272Y007514D01*
X001290Y007496D01*
X001224Y007430D01*
X001224Y007021D01*
X001318Y006928D01*
X001361Y006928D01*
X001361Y006317D01*
X001283Y006239D01*
X001240Y006136D01*
X001240Y006024D01*
X001283Y005921D01*
X001361Y005843D01*
X001464Y005800D01*
X001497Y005800D01*
X001080Y005383D01*
X001080Y005316D01*
X001043Y005279D01*
X001000Y005176D01*
X001000Y005064D01*
X001043Y004961D01*
X001121Y004883D01*
X001224Y004840D01*
X001336Y004840D01*
X001439Y004883D01*
X001517Y004961D01*
X001560Y005064D01*
X001560Y005176D01*
X001524Y005262D01*
X001788Y005525D01*
X001823Y005441D01*
X001878Y005386D01*
X001840Y005296D01*
X001840Y005184D01*
X001883Y005081D01*
X001961Y005003D01*
X002064Y004960D01*
X002176Y004960D01*
X002279Y005003D01*
X002357Y005081D01*
X002405Y005032D01*
X002321Y004997D01*
X002243Y004919D01*
X002200Y004816D01*
X002200Y004763D01*
X002199Y004761D01*
X002199Y004536D01*
X002183Y004536D01*
X002149Y004502D01*
X002114Y004536D01*
X001683Y004536D01*
X001634Y004488D01*
X001602Y004507D01*
X001567Y004516D01*
X001433Y004516D01*
X001433Y003938D01*
X001364Y003938D01*
X001364Y003869D01*
X001433Y003869D01*
X001433Y003291D01*
X001567Y003291D01*
X001602Y003301D01*
X001634Y003319D01*
X001634Y003319D01*
X001659Y003295D01*
X001659Y002189D01*
X001649Y002179D01*
X001614Y002213D01*
X001183Y002213D01*
X001089Y002120D01*
X001089Y001042D01*
X001183Y000948D01*
X001614Y000948D01*
X001649Y000982D01*
X001683Y000948D01*
X002114Y000948D01*
X002149Y000982D01*
X002183Y000948D01*
X002349Y000948D01*
X002757Y000540D01*
X000840Y000540D01*
X000840Y008094D01*
X007455Y008094D01*
X007434Y008073D02*
X005683Y008073D01*
X005785Y007995D02*
X007352Y007995D01*
X007273Y007916D02*
X005797Y007916D01*
X005797Y007838D02*
X006218Y007838D01*
X006165Y007759D02*
X005797Y007759D01*
X005797Y007681D02*
X006165Y007681D01*
X006165Y007602D02*
X005786Y007602D01*
X005783Y007524D02*
X006165Y007524D01*
X006165Y007445D02*
X005817Y007445D01*
X005817Y007367D02*
X006165Y007367D01*
X006105Y007288D02*
X005817Y007288D01*
X005817Y007210D02*
X006027Y007210D01*
X005948Y007131D02*
X005817Y007131D01*
X005788Y007053D02*
X005870Y007053D01*
X005791Y006974D02*
X005526Y006974D01*
X005526Y006896D02*
X005756Y006896D01*
X005756Y006817D02*
X005526Y006817D01*
X005326Y007131D02*
X005480Y007286D01*
X005326Y007131D02*
X005326Y006049D01*
X005011Y006049D02*
X005011Y006609D01*
X004640Y006980D01*
X004640Y007226D01*
X004580Y007286D01*
X004917Y007288D02*
X005143Y007288D01*
X005143Y007367D02*
X004917Y007367D01*
X004917Y007445D02*
X005143Y007445D01*
X005177Y007524D02*
X004883Y007524D01*
X004886Y007602D02*
X005174Y007602D01*
X005163Y007681D02*
X004897Y007681D01*
X004897Y007759D02*
X005163Y007759D01*
X005163Y007826D02*
X005451Y007826D01*
X005451Y008075D01*
X005284Y008075D01*
X005249Y008066D01*
X005217Y008047D01*
X005191Y008021D01*
X005172Y007989D01*
X005163Y007954D01*
X005163Y007826D01*
X005163Y007838D02*
X004897Y007838D01*
X004897Y007916D02*
X005163Y007916D01*
X005175Y007995D02*
X004885Y007995D01*
X004783Y008073D02*
X005277Y008073D01*
X005451Y008073D02*
X005509Y008073D01*
X005509Y007995D02*
X005451Y007995D01*
X005451Y007916D02*
X005509Y007916D01*
X005509Y007838D02*
X005451Y007838D01*
X005126Y007210D02*
X004917Y007210D01*
X004917Y007131D02*
X005126Y007131D01*
X005126Y007053D02*
X004888Y007053D01*
X004929Y006974D02*
X005126Y006974D01*
X005126Y006896D02*
X005007Y006896D01*
X005086Y006817D02*
X005126Y006817D01*
X004696Y006564D02*
X004460Y006800D01*
X003860Y006800D01*
X003680Y006980D01*
X003680Y007286D01*
X003988Y007053D02*
X004272Y007053D01*
X004243Y007131D02*
X004017Y007131D01*
X004017Y007210D02*
X004243Y007210D01*
X004243Y007288D02*
X004017Y007288D01*
X004017Y007367D02*
X004243Y007367D01*
X004243Y007445D02*
X004017Y007445D01*
X003983Y007524D02*
X004277Y007524D01*
X004274Y007602D02*
X003986Y007602D01*
X003997Y007681D02*
X004263Y007681D01*
X004263Y007759D02*
X003997Y007759D01*
X003997Y007838D02*
X004263Y007838D01*
X004263Y007826D02*
X004551Y007826D01*
X004551Y008075D01*
X004384Y008075D01*
X004349Y008066D01*
X004317Y008047D01*
X004291Y008021D01*
X004272Y007989D01*
X004263Y007954D01*
X004263Y007826D01*
X004263Y007916D02*
X003997Y007916D01*
X003985Y007995D02*
X004275Y007995D01*
X004377Y008073D02*
X003883Y008073D01*
X003709Y008073D02*
X003651Y008073D01*
X003651Y008075D02*
X003484Y008075D01*
X003449Y008066D01*
X003417Y008047D01*
X003391Y008021D01*
X003372Y007989D01*
X003363Y007954D01*
X003363Y007826D01*
X003651Y007826D01*
X003651Y008075D01*
X003651Y007995D02*
X003709Y007995D01*
X003709Y007916D02*
X003651Y007916D01*
X003651Y007838D02*
X003709Y007838D01*
X003477Y008073D02*
X003223Y008073D01*
X003325Y007995D02*
X003375Y007995D01*
X003363Y007916D02*
X003337Y007916D01*
X003337Y007838D02*
X003363Y007838D01*
X003363Y007759D02*
X003337Y007759D01*
X003337Y007681D02*
X003363Y007681D01*
X003374Y007602D02*
X003326Y007602D01*
X003323Y007524D02*
X003377Y007524D01*
X003020Y007286D02*
X003020Y006920D01*
X002720Y006620D01*
X002975Y006503D02*
X003197Y006503D01*
X003197Y006425D02*
X002920Y006425D01*
X002957Y006461D02*
X003000Y006564D01*
X003000Y006617D01*
X003103Y006720D01*
X003220Y006837D01*
X003220Y006988D01*
X003263Y006988D01*
X003350Y007074D01*
X003437Y006988D01*
X003480Y006988D01*
X003480Y006897D01*
X003617Y006760D01*
X003606Y006760D01*
X003593Y006748D01*
X003581Y006760D01*
X003291Y006760D01*
X003197Y006667D01*
X003197Y005560D01*
X002923Y005560D01*
X002443Y006040D01*
X001800Y006040D01*
X001800Y006136D01*
X001761Y006230D01*
X001761Y006928D01*
X001805Y006928D01*
X001898Y007021D01*
X001898Y007026D01*
X001937Y006988D01*
X001980Y006988D01*
X001980Y006897D01*
X002097Y006780D01*
X002217Y006660D01*
X001761Y006660D01*
X001761Y006582D02*
X002421Y006582D01*
X002424Y006580D02*
X002440Y006580D01*
X002440Y006564D01*
X002483Y006461D01*
X002561Y006383D01*
X002664Y006340D01*
X002776Y006340D01*
X002879Y006383D01*
X002957Y006461D01*
X003000Y006582D02*
X003197Y006582D01*
X003197Y006660D02*
X003043Y006660D01*
X003121Y006739D02*
X003269Y006739D01*
X003200Y006817D02*
X003560Y006817D01*
X003482Y006896D02*
X003220Y006896D01*
X003220Y006974D02*
X003480Y006974D01*
X003372Y007053D02*
X003328Y007053D01*
X002791Y006974D02*
X002736Y006974D01*
X002712Y007053D02*
X002683Y007053D01*
X002683Y007131D02*
X002557Y007131D01*
X002517Y007210D02*
X002683Y007210D01*
X002683Y007288D02*
X002517Y007288D01*
X002517Y007367D02*
X002683Y007367D01*
X002683Y007445D02*
X002517Y007445D01*
X002483Y007524D02*
X002717Y007524D01*
X002714Y007602D02*
X002486Y007602D01*
X002497Y007681D02*
X002703Y007681D01*
X002703Y007759D02*
X002497Y007759D01*
X002497Y007838D02*
X002703Y007838D01*
X002703Y007826D02*
X002991Y007826D01*
X002991Y008075D01*
X002824Y008075D01*
X002789Y008066D01*
X002757Y008047D01*
X002731Y008021D01*
X002712Y007989D01*
X002703Y007954D01*
X002703Y007826D01*
X002703Y007916D02*
X002497Y007916D01*
X002485Y007995D02*
X002715Y007995D01*
X002817Y008073D02*
X002383Y008073D01*
X002209Y008073D02*
X002151Y008073D01*
X002151Y007995D02*
X002209Y007995D01*
X002209Y007916D02*
X002151Y007916D01*
X002151Y007838D02*
X002209Y007838D01*
X001977Y008073D02*
X000840Y008073D01*
X000840Y007995D02*
X001311Y007995D01*
X001298Y007987D02*
X001272Y007961D01*
X001253Y007929D01*
X001244Y007894D01*
X001244Y007766D01*
X001532Y007766D01*
X001532Y008015D01*
X001366Y008015D01*
X001330Y008006D01*
X001298Y007987D01*
X001250Y007916D02*
X000840Y007916D01*
X000840Y007838D02*
X001244Y007838D01*
X001244Y007681D02*
X000840Y007681D01*
X000840Y007759D02*
X001532Y007759D01*
X001532Y007838D02*
X001590Y007838D01*
X001590Y007916D02*
X001532Y007916D01*
X001532Y007995D02*
X001590Y007995D01*
X001811Y007995D02*
X001875Y007995D01*
X001244Y007602D02*
X000840Y007602D01*
X000840Y007524D02*
X001266Y007524D01*
X001239Y007445D02*
X000840Y007445D01*
X000840Y007367D02*
X001224Y007367D01*
X001224Y007288D02*
X000840Y007288D01*
X000840Y007210D02*
X001224Y007210D01*
X001224Y007131D02*
X000840Y007131D01*
X000840Y007053D02*
X001224Y007053D01*
X001271Y006974D02*
X000840Y006974D01*
X000840Y006896D02*
X001361Y006896D01*
X001361Y006817D02*
X000840Y006817D01*
X000840Y006739D02*
X001361Y006739D01*
X001361Y006660D02*
X000840Y006660D01*
X000840Y006582D02*
X001361Y006582D01*
X001361Y006503D02*
X000840Y006503D01*
X000840Y006425D02*
X001361Y006425D01*
X001361Y006346D02*
X000840Y006346D01*
X000840Y006268D02*
X001312Y006268D01*
X001262Y006189D02*
X000840Y006189D01*
X000840Y006111D02*
X001240Y006111D01*
X001240Y006032D02*
X000840Y006032D01*
X000840Y005954D02*
X001269Y005954D01*
X001329Y005875D02*
X000840Y005875D01*
X000840Y005797D02*
X001494Y005797D01*
X001415Y005718D02*
X000840Y005718D01*
X000840Y005640D02*
X001337Y005640D01*
X001258Y005561D02*
X000840Y005561D01*
X000840Y005483D02*
X001180Y005483D01*
X001101Y005404D02*
X000840Y005404D01*
X000840Y005326D02*
X001080Y005326D01*
X001030Y005247D02*
X000840Y005247D01*
X000840Y005169D02*
X001000Y005169D01*
X001000Y005090D02*
X000840Y005090D01*
X000840Y005012D02*
X001022Y005012D01*
X001071Y004933D02*
X000840Y004933D01*
X000840Y004855D02*
X001189Y004855D01*
X001371Y004855D02*
X002216Y004855D01*
X002200Y004776D02*
X000840Y004776D01*
X000840Y004698D02*
X002199Y004698D01*
X002199Y004619D02*
X000840Y004619D01*
X000840Y004541D02*
X002199Y004541D01*
X002399Y004679D02*
X002480Y004760D01*
X002399Y004679D02*
X002399Y003904D01*
X002899Y003904D02*
X002899Y004639D01*
X002960Y004700D01*
X002720Y005000D02*
X002420Y005300D01*
X002180Y005300D01*
X002120Y005240D01*
X001840Y005247D02*
X001530Y005247D01*
X001560Y005169D02*
X001847Y005169D01*
X001879Y005090D02*
X001560Y005090D01*
X001538Y005012D02*
X001953Y005012D01*
X002257Y004933D02*
X001489Y004933D01*
X001280Y005120D02*
X001280Y005300D01*
X001820Y005840D01*
X002360Y005840D01*
X002840Y005360D01*
X003320Y005360D01*
X003440Y005480D01*
X003440Y006045D01*
X003436Y006049D01*
X003197Y006032D02*
X002451Y006032D01*
X002529Y005954D02*
X003197Y005954D01*
X003197Y005875D02*
X002608Y005875D01*
X002686Y005797D02*
X003197Y005797D01*
X003197Y005718D02*
X002765Y005718D01*
X002843Y005640D02*
X003197Y005640D01*
X003197Y005561D02*
X002922Y005561D01*
X002780Y005180D02*
X002360Y005600D01*
X002060Y005600D01*
X001860Y005404D02*
X001667Y005404D01*
X001745Y005483D02*
X001806Y005483D01*
X001852Y005326D02*
X001588Y005326D01*
X002287Y005012D02*
X002356Y005012D01*
X002720Y005000D02*
X004040Y005000D01*
X004381Y005341D01*
X004381Y006049D01*
X004066Y006049D02*
X004066Y005266D01*
X003980Y005180D01*
X002780Y005180D01*
X003800Y004760D02*
X003440Y003945D01*
X003399Y003904D01*
X003649Y003305D02*
X003680Y003274D01*
X003680Y003059D01*
X003679Y003059D01*
X003676Y003060D01*
X003564Y003060D01*
X003461Y003017D01*
X003383Y002939D01*
X003340Y002836D01*
X003340Y002724D01*
X003383Y002621D01*
X003461Y002543D01*
X003564Y002500D01*
X003676Y002500D01*
X003772Y002540D01*
X003788Y002540D01*
X003853Y002567D01*
X004084Y002337D01*
X004172Y002300D01*
X004928Y002300D01*
X004969Y002317D01*
X004960Y002296D01*
X004960Y002184D01*
X005001Y002085D01*
X004875Y002085D01*
X004693Y001903D01*
X004524Y001903D01*
X004517Y001919D01*
X004439Y001997D01*
X004336Y002040D01*
X004224Y002040D01*
X004188Y002025D01*
X004188Y002072D01*
X004179Y002107D01*
X004992Y002107D01*
X004960Y002186D02*
X004095Y002186D01*
X004102Y002184D02*
X004067Y002193D01*
X003933Y002193D01*
X003933Y001616D01*
X003864Y001616D01*
X003864Y002193D01*
X003730Y002193D01*
X003695Y002184D01*
X003663Y002165D01*
X003649Y002151D01*
X003634Y002165D01*
X003602Y002184D01*
X003567Y002193D01*
X003433Y002193D01*
X003433Y001616D01*
X003364Y001616D01*
X003364Y002193D01*
X003230Y002193D01*
X003195Y002184D01*
X003163Y002165D01*
X003163Y002165D01*
X003114Y002213D01*
X002683Y002213D01*
X002649Y002179D01*
X002614Y002213D01*
X002183Y002213D01*
X002149Y002179D01*
X002139Y002189D01*
X002139Y002320D01*
X002236Y002320D01*
X002339Y002363D01*
X002417Y002441D01*
X002460Y002544D01*
X002460Y002656D01*
X002417Y002759D01*
X002380Y002796D01*
X002380Y002821D01*
X002139Y003063D01*
X002139Y003295D01*
X002149Y003305D01*
X002183Y003271D01*
X002614Y003271D01*
X002649Y003305D01*
X002683Y003271D01*
X003114Y003271D01*
X003149Y003305D01*
X003183Y003271D01*
X003614Y003271D01*
X003649Y003305D01*
X003669Y003285D02*
X003628Y003285D01*
X003680Y003206D02*
X002139Y003206D01*
X002139Y003128D02*
X003680Y003128D01*
X003538Y003049D02*
X002152Y003049D01*
X002231Y002971D02*
X003415Y002971D01*
X003363Y002892D02*
X002309Y002892D01*
X002380Y002814D02*
X003340Y002814D01*
X003340Y002735D02*
X002427Y002735D01*
X002460Y002657D02*
X003368Y002657D01*
X003426Y002578D02*
X002460Y002578D01*
X002441Y002500D02*
X003921Y002500D01*
X004000Y002421D02*
X002397Y002421D01*
X002290Y002343D02*
X004078Y002343D01*
X004102Y002184D02*
X004134Y002165D01*
X004160Y002139D01*
X004179Y002107D01*
X004188Y002029D02*
X004197Y002029D01*
X004363Y002029D02*
X004818Y002029D01*
X004740Y001950D02*
X004486Y001950D01*
X004280Y001760D02*
X004337Y001703D01*
X004969Y001703D01*
X005087Y001820D01*
X005420Y001820D01*
X006223Y002623D01*
X006238Y002623D01*
X006365Y002496D02*
X004609Y000740D01*
X003080Y000740D01*
X002899Y000921D01*
X002899Y001581D01*
X003364Y001546D02*
X003433Y001546D01*
X003433Y000968D01*
X003567Y000968D01*
X003602Y000978D01*
X003634Y000996D01*
X003649Y001011D01*
X003663Y000996D01*
X003695Y000978D01*
X003730Y000968D01*
X003864Y000968D01*
X003864Y001546D01*
X003933Y001546D01*
X003933Y000968D01*
X004067Y000968D01*
X004078Y000940D01*
X003163Y000940D01*
X003134Y000968D01*
X003163Y000997D01*
X003163Y000996D01*
X003195Y000978D01*
X003230Y000968D01*
X003364Y000968D01*
X003364Y001546D01*
X003364Y001479D02*
X003433Y001479D01*
X003433Y001546D02*
X003433Y001616D01*
X003688Y001616D01*
X003864Y001616D01*
X003864Y001546D01*
X003433Y001546D01*
X003433Y001558D02*
X003864Y001558D01*
X003864Y001636D02*
X003933Y001636D01*
X003933Y001715D02*
X003864Y001715D01*
X003864Y001793D02*
X003933Y001793D01*
X003933Y001872D02*
X003864Y001872D01*
X003864Y001950D02*
X003933Y001950D01*
X003933Y002029D02*
X003864Y002029D01*
X003864Y002107D02*
X003933Y002107D01*
X003933Y002186D02*
X003864Y002186D01*
X003702Y002186D02*
X003595Y002186D01*
X003433Y002186D02*
X003364Y002186D01*
X003364Y002107D02*
X003433Y002107D01*
X003433Y002029D02*
X003364Y002029D01*
X003364Y001950D02*
X003433Y001950D01*
X003433Y001872D02*
X003364Y001872D01*
X003364Y001793D02*
X003433Y001793D01*
X003433Y001715D02*
X003364Y001715D01*
X003364Y001636D02*
X003433Y001636D01*
X003433Y001401D02*
X003364Y001401D01*
X003364Y001322D02*
X003433Y001322D01*
X003433Y001244D02*
X003364Y001244D01*
X003364Y001165D02*
X003433Y001165D01*
X003433Y001087D02*
X003364Y001087D01*
X003364Y001008D02*
X003433Y001008D01*
X003646Y001008D02*
X003651Y001008D01*
X003864Y001008D02*
X003933Y001008D01*
X003933Y001087D02*
X003864Y001087D01*
X003864Y001165D02*
X003933Y001165D01*
X003933Y001244D02*
X003864Y001244D01*
X003864Y001322D02*
X003933Y001322D01*
X003933Y001401D02*
X003864Y001401D01*
X003864Y001479D02*
X003933Y001479D01*
X004340Y001040D02*
X004608Y001308D01*
X004608Y001341D01*
X004067Y000968D02*
X004067Y000968D01*
X004670Y000560D02*
X006485Y002376D01*
X006613Y002249D02*
X006613Y002233D01*
X006020Y001640D01*
X006020Y001400D01*
X006300Y001395D02*
X006384Y001360D01*
X006480Y001360D01*
X006480Y000943D01*
X006480Y000777D01*
X006660Y000597D01*
X006717Y000540D01*
X004932Y000540D01*
X005740Y001348D01*
X005740Y001344D01*
X005783Y001241D01*
X005861Y001163D01*
X005964Y001120D01*
X006076Y001120D01*
X006179Y001163D01*
X006257Y001241D01*
X006300Y001344D01*
X006300Y001395D01*
X006291Y001322D02*
X006480Y001322D01*
X006480Y001244D02*
X006258Y001244D01*
X006181Y001165D02*
X006480Y001165D01*
X006480Y001087D02*
X005479Y001087D01*
X005557Y001165D02*
X005859Y001165D01*
X005782Y001244D02*
X005636Y001244D01*
X005714Y001322D02*
X005749Y001322D01*
X005400Y001008D02*
X006480Y001008D01*
X006480Y000930D02*
X005322Y000930D01*
X005243Y000851D02*
X006480Y000851D01*
X006485Y000773D02*
X005165Y000773D01*
X005086Y000694D02*
X006563Y000694D01*
X006642Y000616D02*
X005008Y000616D01*
X004670Y000560D02*
X003020Y000560D01*
X002399Y001181D01*
X002399Y001581D01*
X002642Y002186D02*
X002655Y002186D01*
X003142Y002186D02*
X003202Y002186D01*
X002155Y002186D02*
X002142Y002186D01*
X002139Y002264D02*
X004960Y002264D01*
X006440Y001640D02*
X006500Y001796D01*
X006952Y002249D01*
X006929Y002249D01*
X006952Y002249D02*
X006971Y002249D01*
X007079Y002376D02*
X007084Y002376D01*
X007220Y002240D01*
X007220Y002060D01*
X006800Y001760D01*
X007160Y001760D02*
X007247Y001760D01*
X007412Y001595D01*
X007400Y001607D01*
X007400Y002300D01*
X007204Y002496D01*
X007200Y002496D01*
X007454Y002751D02*
X008393Y001812D01*
X008532Y001812D01*
X008532Y001787D01*
X008146Y001401D01*
X008387Y001165D02*
X008529Y001165D01*
X008500Y001087D02*
X008308Y001087D01*
X008147Y001008D02*
X008500Y001008D01*
X008523Y000930D02*
X008121Y000930D01*
X007784Y000998D02*
X007666Y000880D01*
X007584Y000880D01*
X007743Y001039D01*
X007784Y000998D01*
X007774Y001008D02*
X007712Y001008D01*
X007743Y001039D02*
X007539Y001243D01*
X007449Y001153D01*
X007431Y001121D01*
X007421Y001085D01*
X007421Y001048D01*
X007431Y001013D01*
X007449Y000981D01*
X007550Y000880D01*
X007132Y000880D01*
X007132Y000880D01*
X007164Y000898D01*
X007254Y000988D01*
X007050Y001192D01*
X007091Y001233D01*
X007294Y001029D01*
X007384Y001119D01*
X007403Y001151D01*
X007412Y001187D01*
X007412Y001212D01*
X007506Y001212D01*
X007763Y001470D01*
X007763Y001402D01*
X007738Y001402D01*
X007702Y001392D01*
X007670Y001374D01*
X007580Y001284D01*
X007784Y001080D01*
X007743Y001039D01*
X007777Y001087D02*
X007696Y001087D01*
X007699Y001165D02*
X007617Y001165D01*
X007620Y001244D02*
X007537Y001244D01*
X007461Y001165D02*
X007407Y001165D01*
X007422Y001087D02*
X007352Y001087D01*
X007434Y001008D02*
X007234Y001008D01*
X007237Y001087D02*
X007156Y001087D01*
X007159Y001165D02*
X007077Y001165D01*
X007195Y000930D02*
X007501Y000930D01*
X007633Y000930D02*
X007715Y000930D01*
X007618Y001322D02*
X007615Y001322D01*
X007694Y001401D02*
X007733Y001401D01*
X007794Y001526D02*
X007794Y001634D01*
X007600Y001828D01*
X007600Y002322D01*
X008138Y001784D01*
X008052Y001784D01*
X007794Y001526D01*
X007794Y001558D02*
X007826Y001558D01*
X007792Y001636D02*
X007904Y001636D01*
X007983Y001715D02*
X007713Y001715D01*
X007635Y001793D02*
X008129Y001793D01*
X008051Y001872D02*
X007600Y001872D01*
X007600Y001950D02*
X007972Y001950D01*
X007894Y002029D02*
X007600Y002029D01*
X007600Y002107D02*
X007815Y002107D01*
X007737Y002186D02*
X007600Y002186D01*
X007600Y002264D02*
X007658Y002264D01*
X008085Y002360D02*
X007574Y002871D01*
X008150Y002578D02*
X008856Y002578D01*
X008834Y002500D02*
X008683Y002500D01*
X008540Y002360D02*
X008085Y002360D01*
X008159Y002657D02*
X008935Y002657D01*
X009013Y002735D02*
X008238Y002735D01*
X008316Y002814D02*
X009092Y002814D01*
X009222Y002892D02*
X008380Y002892D01*
X008380Y002971D02*
X009277Y002971D01*
X009205Y003049D02*
X009394Y003049D01*
X009391Y002971D02*
X009472Y002971D01*
X009469Y002892D02*
X009551Y002892D01*
X009606Y002892D02*
X009688Y002892D01*
X009685Y002971D02*
X009767Y002971D01*
X009824Y002971D02*
X010260Y002971D01*
X010260Y002892D02*
X009903Y002892D01*
X009941Y002814D02*
X010260Y002814D01*
X010260Y002735D02*
X009928Y002735D01*
X009860Y002657D02*
X010260Y002657D01*
X010260Y002578D02*
X009782Y002578D01*
X009786Y002657D02*
X009705Y002657D01*
X009708Y002735D02*
X009626Y002735D01*
X009629Y002814D02*
X009610Y002814D01*
X009703Y002500D02*
X010260Y002500D01*
X010260Y002421D02*
X009599Y002421D01*
X009574Y002343D02*
X010260Y002343D01*
X010260Y002264D02*
X009496Y002264D01*
X009417Y002186D02*
X010260Y002186D01*
X010260Y002107D02*
X009339Y002107D01*
X009210Y002029D02*
X010260Y002029D01*
X010187Y001950D02*
X009179Y001950D01*
X009101Y001872D02*
X009689Y001872D01*
X009610Y001793D02*
X009022Y001793D01*
X008904Y001715D02*
X009532Y001715D01*
X009453Y001636D02*
X008865Y001636D01*
X008787Y001558D02*
X008962Y001558D01*
X008895Y001479D02*
X008708Y001479D01*
X008862Y001401D02*
X008529Y001401D01*
X008529Y001322D02*
X008860Y001322D01*
X009140Y001340D02*
X009440Y001340D01*
X009800Y001700D01*
X010220Y001700D01*
X010460Y001940D01*
X010460Y003440D01*
X010580Y003560D01*
X010744Y003560D01*
X010760Y003544D01*
X010660Y003206D02*
X012331Y003206D01*
X012331Y003128D02*
X010660Y003128D01*
X010660Y003049D02*
X012331Y003049D01*
X012331Y002971D02*
X010660Y002971D01*
X010660Y002892D02*
X012331Y002892D01*
X012331Y002814D02*
X010660Y002814D01*
X010660Y002735D02*
X012331Y002735D01*
X012331Y002657D02*
X010660Y002657D01*
X010660Y002578D02*
X012331Y002578D01*
X012331Y002500D02*
X010660Y002500D01*
X010660Y002421D02*
X012331Y002421D01*
X012331Y002343D02*
X010660Y002343D01*
X010660Y002264D02*
X012331Y002264D01*
X012331Y002186D02*
X010660Y002186D01*
X010660Y002107D02*
X012331Y002107D01*
X012331Y002029D02*
X010660Y002029D01*
X010660Y001950D02*
X012331Y001950D01*
X012331Y001872D02*
X011464Y001872D01*
X011540Y001793D02*
X012331Y001793D01*
X012331Y001715D02*
X011572Y001715D01*
X011580Y001636D02*
X012331Y001636D01*
X012331Y001558D02*
X011569Y001558D01*
X011535Y001479D02*
X012331Y001479D01*
X012331Y001401D02*
X011453Y001401D01*
X011321Y001322D02*
X012331Y001322D01*
X012331Y001244D02*
X011224Y001244D01*
X011028Y001715D02*
X010517Y001715D01*
X010596Y001793D02*
X011060Y001793D01*
X011136Y001872D02*
X010660Y001872D01*
X009904Y001165D02*
X012331Y001165D01*
X012331Y001087D02*
X009826Y001087D01*
X009747Y001008D02*
X012331Y001008D01*
X012331Y000930D02*
X009669Y000930D01*
X009590Y000851D02*
X012331Y000851D01*
X012331Y000773D02*
X009512Y000773D01*
X009433Y000694D02*
X012331Y000694D01*
X012331Y000616D02*
X009058Y000616D01*
X008840Y000680D02*
X009020Y000860D01*
X008840Y000680D02*
X006860Y000680D01*
X006680Y000860D01*
X006680Y001280D01*
X007160Y001760D01*
X008465Y001244D02*
X008588Y001244D01*
X009318Y001558D02*
X009375Y001558D01*
X008838Y002118D02*
X008782Y002118D01*
X008540Y002360D01*
X008838Y002118D02*
X009181Y002461D01*
X009217Y002461D01*
X008835Y003049D02*
X008380Y003049D01*
X008716Y003520D02*
X008916Y003520D01*
X008784Y003599D02*
X010336Y003599D01*
X010260Y003520D02*
X009124Y003520D01*
X009234Y003442D02*
X010260Y003442D01*
X010414Y003677D02*
X008817Y003677D01*
X009078Y003756D02*
X010430Y003756D01*
X010441Y003834D02*
X009157Y003834D01*
X009108Y004305D02*
X010468Y004305D01*
X011300Y003583D02*
X011300Y003320D01*
X011060Y003080D01*
X011042Y003285D02*
X012331Y003285D01*
X012331Y003363D02*
X011592Y003363D01*
X011589Y003359D02*
X011608Y003391D01*
X011617Y003426D01*
X011617Y003554D01*
X011329Y003554D01*
X011329Y003305D01*
X011496Y003305D01*
X011531Y003314D01*
X011563Y003333D01*
X011589Y003359D01*
X011617Y003442D02*
X012331Y003442D01*
X012331Y003520D02*
X011617Y003520D01*
X011617Y003677D02*
X012331Y003677D01*
X012331Y003599D02*
X011329Y003599D01*
X011329Y003520D02*
X011271Y003520D01*
X011271Y003442D02*
X011329Y003442D01*
X011329Y003363D02*
X011271Y003363D01*
X011613Y003756D02*
X012331Y003756D01*
X012331Y003834D02*
X011581Y003834D01*
X011637Y003913D02*
X012331Y003913D01*
X012331Y003991D02*
X011637Y003991D01*
X011637Y004070D02*
X012331Y004070D01*
X012331Y004148D02*
X011637Y004148D01*
X011637Y004227D02*
X012331Y004227D01*
X012331Y004305D02*
X011631Y004305D01*
X011552Y004384D02*
X012331Y004384D01*
X009434Y003128D02*
X009268Y003128D01*
X006071Y003879D02*
X006071Y003879D01*
X006071Y003879D01*
X006040Y003910D01*
X006071Y003879D01*
X005935Y003834D02*
X005909Y003834D01*
X005956Y006049D02*
X005956Y006856D01*
X006440Y007340D01*
X006440Y007519D01*
X006463Y007541D01*
X006620Y007220D02*
X006860Y007220D01*
X006980Y007340D01*
X006980Y007536D01*
X006974Y007541D01*
X006729Y007838D02*
X006708Y007838D01*
X006620Y007220D02*
X006271Y006871D01*
X006271Y006049D01*
X006586Y006049D02*
X006586Y006826D01*
X006800Y007040D01*
X007100Y007040D01*
X007280Y007220D01*
X007697Y006739D02*
X007741Y006739D01*
X004696Y006564D02*
X004696Y006049D01*
X003197Y006111D02*
X001800Y006111D01*
X001778Y006189D02*
X003197Y006189D01*
X003197Y006268D02*
X001761Y006268D01*
X001761Y006346D02*
X002650Y006346D01*
X002790Y006346D02*
X003197Y006346D01*
X002520Y006425D02*
X001761Y006425D01*
X001761Y006503D02*
X002465Y006503D01*
X002424Y006580D02*
X002321Y006623D01*
X002284Y006660D01*
X002217Y006660D01*
X002139Y006739D02*
X001761Y006739D01*
X001761Y006817D02*
X002060Y006817D01*
X001982Y006896D02*
X001761Y006896D01*
X001851Y006974D02*
X001980Y006974D01*
X002180Y006980D02*
X002180Y007286D01*
X002180Y006980D02*
X002300Y006860D01*
X002480Y006860D01*
X001561Y007226D02*
X001561Y006121D01*
X001520Y006080D01*
X001364Y004516D02*
X001230Y004516D01*
X001195Y004507D01*
X001163Y004488D01*
X001137Y004462D01*
X001118Y004430D01*
X001109Y004394D01*
X001109Y003938D01*
X001364Y003938D01*
X001364Y004516D01*
X001364Y004462D02*
X001433Y004462D01*
X001433Y004384D02*
X001364Y004384D01*
X001364Y004305D02*
X001433Y004305D01*
X001433Y004227D02*
X001364Y004227D01*
X001364Y004148D02*
X001433Y004148D01*
X001433Y004070D02*
X001364Y004070D01*
X001364Y003991D02*
X001433Y003991D01*
X001364Y003913D02*
X000840Y003913D01*
X000840Y003991D02*
X001109Y003991D01*
X001109Y004070D02*
X000840Y004070D01*
X000840Y004148D02*
X001109Y004148D01*
X001109Y004227D02*
X000840Y004227D01*
X000840Y004305D02*
X001109Y004305D01*
X001109Y004384D02*
X000840Y004384D01*
X000840Y004462D02*
X001137Y004462D01*
X001634Y004488D02*
X001634Y004488D01*
X001364Y003869D02*
X001109Y003869D01*
X001109Y003413D01*
X001118Y003377D01*
X001137Y003345D01*
X001163Y003319D01*
X001195Y003301D01*
X001230Y003291D01*
X001364Y003291D01*
X001364Y003869D01*
X001364Y003834D02*
X001433Y003834D01*
X001433Y003756D02*
X001364Y003756D01*
X001364Y003677D02*
X001433Y003677D01*
X001433Y003599D02*
X001364Y003599D01*
X001364Y003520D02*
X001433Y003520D01*
X001433Y003442D02*
X001364Y003442D01*
X001364Y003363D02*
X001433Y003363D01*
X001659Y003285D02*
X000840Y003285D01*
X000840Y003363D02*
X001127Y003363D01*
X001109Y003442D02*
X000840Y003442D01*
X000840Y003520D02*
X001109Y003520D01*
X001109Y003599D02*
X000840Y003599D01*
X000840Y003677D02*
X001109Y003677D01*
X001109Y003756D02*
X000840Y003756D01*
X000840Y003834D02*
X001109Y003834D01*
X000840Y003206D02*
X001659Y003206D01*
X001659Y003128D02*
X000840Y003128D01*
X000840Y003049D02*
X001659Y003049D01*
X001659Y002971D02*
X000840Y002971D01*
X000840Y002892D02*
X001659Y002892D01*
X001659Y002814D02*
X000840Y002814D01*
X000840Y002735D02*
X001659Y002735D01*
X001659Y002657D02*
X000840Y002657D01*
X000840Y002578D02*
X001659Y002578D01*
X001659Y002500D02*
X000840Y002500D01*
X000840Y002421D02*
X001659Y002421D01*
X001659Y002343D02*
X000840Y002343D01*
X000840Y002264D02*
X001659Y002264D01*
X001655Y002186D02*
X001642Y002186D01*
X001155Y002186D02*
X000840Y002186D01*
X000840Y002107D02*
X001089Y002107D01*
X001089Y002029D02*
X000840Y002029D01*
X000840Y001950D02*
X001089Y001950D01*
X001089Y001872D02*
X000840Y001872D01*
X000840Y001793D02*
X001089Y001793D01*
X001089Y001715D02*
X000840Y001715D01*
X000840Y001636D02*
X001089Y001636D01*
X001089Y001558D02*
X000840Y001558D01*
X000840Y001479D02*
X001089Y001479D01*
X001089Y001401D02*
X000840Y001401D01*
X000840Y001322D02*
X001089Y001322D01*
X001089Y001244D02*
X000840Y001244D01*
X000840Y001165D02*
X001089Y001165D01*
X001089Y001087D02*
X000840Y001087D01*
X000840Y001008D02*
X001123Y001008D01*
X000840Y000930D02*
X002368Y000930D01*
X002446Y000851D02*
X000840Y000851D01*
X000840Y000773D02*
X002525Y000773D01*
X002603Y000694D02*
X000840Y000694D01*
X000840Y000616D02*
X002682Y000616D01*
X002180Y002600D02*
X002180Y002739D01*
X001899Y003020D01*
X002139Y003285D02*
X002169Y003285D01*
X002628Y003285D02*
X002669Y003285D01*
X003128Y003285D02*
X003169Y003285D01*
X003049Y007838D02*
X002991Y007838D01*
X002991Y007916D02*
X003049Y007916D01*
X003049Y007995D02*
X002991Y007995D01*
X002991Y008073D02*
X003049Y008073D01*
X004551Y008073D02*
X004609Y008073D01*
X004609Y007995D02*
X004551Y007995D01*
X004551Y007916D02*
X004609Y007916D01*
X004609Y007838D02*
X004551Y007838D01*
D20*
X006020Y008000D03*
X002720Y006620D03*
X002480Y006860D03*
X002840Y006080D03*
X002060Y005600D03*
X002120Y005240D03*
X002480Y004760D03*
X002960Y004700D03*
X003800Y004760D03*
X004640Y003200D03*
X005480Y003140D03*
X005600Y002660D03*
X005240Y002240D03*
X004280Y001760D03*
X004340Y001040D03*
X005300Y000680D03*
X006020Y001400D03*
X006440Y001640D03*
X006800Y001760D03*
X007700Y002180D03*
X007880Y001700D03*
X008780Y001040D03*
X009140Y001340D03*
X008360Y002660D03*
X009020Y003260D03*
X008540Y003740D03*
X008240Y003980D03*
X008840Y004220D03*
X007940Y004700D03*
X007520Y004520D03*
X007100Y004460D03*
X007400Y005300D03*
X008000Y005300D03*
X008480Y005300D03*
X010340Y005660D03*
X010760Y005960D03*
X011240Y005540D03*
X010820Y005360D03*
X011900Y006260D03*
X011660Y006620D03*
X010940Y006620D03*
X010880Y007340D03*
X010820Y008000D03*
X009860Y007940D03*
X005840Y004100D03*
X003620Y002780D03*
X003140Y002600D03*
X002720Y002960D03*
X002180Y002600D03*
X001400Y002780D03*
X001040Y003140D03*
X001280Y005120D03*
X001520Y006080D03*
X001580Y000740D03*
X010220Y003080D03*
X011060Y003080D03*
X011300Y001640D03*
D21*
X005360Y003980D03*
X003320Y007797D03*
M02*
