%
M48
M72
T01C0.0120
T02C0.0160
%
T01
X1040Y3140
X3140Y2600
X10220Y3080
X11240Y5540
X7880Y1700
X2840Y6080
X8360Y2660
X1580Y740
X1400Y2780
X2720Y2960
X5600Y2660
X7700Y2180
X11060Y3080
X5300Y680
X5840Y4100
X6020Y8000
X10820Y8000
X10340Y5660
X10820Y5360
X10940Y6620
X10880Y7340
X3620Y2780
X11300Y1640
X8780Y1040
X4340Y1040
X7400Y5300
X9860Y7940
X2120Y5240
X2720Y6620
X2060Y5600
X2480Y6860
X4280Y1760
X2180Y2600
X7940Y4700
X8840Y4220
X8480Y5300
X7520Y4520
X2960Y4700
X2480Y4760
X4640Y3200
X7100Y4460
X3800Y4760
X8240Y3980
X8540Y3740
X9020Y3260
X5480Y3140
X1520Y6080
X5240Y2240
X11660Y6620
X6020Y1400
X11900Y6260
X8000Y5300
X10760Y5960
X6440Y1640
X1280Y5120
X6800Y1760
X9140Y1340
T02
X5360Y3980
X3320Y7797
M30
