G75*
%MOIN*%
%OFA0B0*%
%FSLAX24Y24*%
%IPPOS*%
%LPD*%
%AMOC8*
5,1,8,0,0,1.08239X$1,22.5*
%
%ADD10C,0.0000*%
%ADD11R,0.0300X0.0010*%
%ADD12R,0.0090X0.0010*%
%ADD13R,0.0350X0.0010*%
%ADD14R,0.0110X0.0010*%
%ADD15R,0.0370X0.0010*%
%ADD16R,0.0020X0.0010*%
%ADD17R,0.0010X0.0010*%
%ADD18R,0.0030X0.0010*%
%ADD19R,0.0380X0.0010*%
%ADD20R,0.0100X0.0010*%
%ADD21R,0.0400X0.0010*%
%ADD22R,0.0410X0.0010*%
%ADD23R,0.0070X0.0010*%
%ADD24R,0.0060X0.0010*%
%ADD25R,0.0050X0.0010*%
%ADD26R,0.0130X0.0010*%
%ADD27R,0.0040X0.0010*%
%ADD28R,0.0650X0.0010*%
%ADD29R,0.0630X0.0010*%
%ADD30R,0.0610X0.0010*%
%ADD31R,0.0590X0.0010*%
%ADD32R,0.0580X0.0010*%
%ADD33R,0.0550X0.0010*%
%ADD34R,0.0560X0.0010*%
%ADD35R,0.0210X0.0010*%
%ADD36R,0.0140X0.0010*%
%ADD37R,0.0250X0.0010*%
%ADD38R,0.0230X0.0010*%
%ADD39R,0.0180X0.0010*%
%ADD40R,0.0260X0.0010*%
%ADD41R,0.0080X0.0010*%
%ADD42R,0.0270X0.0010*%
%ADD43R,0.0280X0.0010*%
%ADD44R,0.0240X0.0010*%
%ADD45R,0.0120X0.0010*%
%ADD46R,0.0190X0.0010*%
%ADD47R,0.0200X0.0010*%
%ADD48R,0.0160X0.0010*%
%ADD49R,0.0220X0.0010*%
%ADD50R,0.0170X0.0010*%
%ADD51R,0.0150X0.0010*%
%ADD52R,0.0450X0.0010*%
%ADD53R,0.0440X0.0010*%
%ADD54R,0.0420X0.0010*%
%ADD55R,0.0360X0.0010*%
%ADD56R,0.0340X0.0010*%
%ADD57R,0.0310X0.0010*%
%ADD58R,0.0290X0.0010*%
%ADD59C,0.0030*%
%ADD60C,0.0050*%
%ADD61C,0.0160*%
%ADD62C,0.0060*%
%ADD63R,0.0280X0.0160*%
%ADD64R,0.0160X0.0280*%
%ADD65C,0.0080*%
D10*
X000680Y000380D02*
X000680Y008254D01*
X012491Y008254D01*
X012491Y000380D01*
X000680Y000380D01*
D11*
X009615Y000580D03*
D12*
X009730Y000650D03*
X009730Y000660D03*
X009730Y000670D03*
X009730Y000680D03*
X009730Y000690D03*
X009730Y000700D03*
X009730Y000710D03*
X009730Y000720D03*
X009730Y000730D03*
X009730Y000740D03*
X009730Y000750D03*
X009730Y000760D03*
X009730Y000770D03*
X009730Y000870D03*
X009730Y000880D03*
X009730Y000890D03*
X009730Y000900D03*
X009730Y000910D03*
X009730Y000920D03*
X009730Y000930D03*
X009730Y000940D03*
X009730Y000950D03*
X009730Y000960D03*
X009430Y000890D03*
X009420Y000900D03*
X009420Y000910D03*
X009410Y000930D03*
X009410Y000940D03*
X009410Y000950D03*
X009410Y000960D03*
X009410Y000970D03*
X009410Y000980D03*
X009410Y000990D03*
X009390Y000740D03*
X009390Y000680D03*
X010100Y000580D03*
X010230Y000910D03*
X010230Y000920D03*
X010230Y000930D03*
X010230Y000940D03*
X010230Y000950D03*
X010230Y000960D03*
X010230Y001030D03*
X010230Y001040D03*
X010230Y001050D03*
X010230Y001060D03*
X010230Y001070D03*
X010390Y001030D03*
X010400Y001060D03*
X010400Y000960D03*
X010410Y000950D03*
X010410Y000940D03*
X010410Y000930D03*
X010410Y000920D03*
X010520Y000870D03*
X010520Y000860D03*
X010520Y000850D03*
X010530Y000880D03*
X010530Y000890D03*
X010720Y000890D03*
X010730Y000880D03*
X010730Y000870D03*
X010740Y000860D03*
X010740Y000850D03*
X010850Y000920D03*
X010850Y000930D03*
X010860Y000910D03*
X010860Y001050D03*
X011010Y001080D03*
X011020Y001060D03*
X011030Y000940D03*
X011030Y000930D03*
X011020Y000910D03*
X011160Y000920D03*
X011160Y000930D03*
X011160Y000940D03*
X011160Y000950D03*
X011160Y000960D03*
X011160Y001030D03*
X011160Y001040D03*
X011160Y001050D03*
X011160Y001060D03*
X011160Y001070D03*
X011450Y000890D03*
X011440Y000870D03*
X011440Y000860D03*
X011430Y000850D03*
X011640Y000890D03*
X011650Y000880D03*
X011650Y000870D03*
X011650Y000860D03*
X011660Y000850D03*
X011620Y000960D03*
X011780Y000950D03*
X011780Y000940D03*
X011780Y000930D03*
X011780Y000920D03*
X011780Y000910D03*
X011780Y000900D03*
X011780Y000890D03*
X011780Y000880D03*
X011780Y000870D03*
X011780Y000860D03*
X011780Y000850D03*
X011780Y001020D03*
X011780Y001030D03*
X011780Y001040D03*
X011780Y001050D03*
X011780Y001060D03*
X011780Y001070D03*
X011940Y001060D03*
X011940Y001030D03*
X012080Y001030D03*
X012080Y001020D03*
X012080Y001040D03*
X012080Y001050D03*
X012080Y001060D03*
X012080Y001070D03*
X012080Y000950D03*
X012080Y000940D03*
X012080Y000930D03*
X012080Y000920D03*
X012080Y000910D03*
X012080Y000900D03*
X012080Y000890D03*
X012080Y000880D03*
X012080Y000870D03*
X012080Y000860D03*
X012080Y000850D03*
X012240Y001030D03*
X012240Y001040D03*
X012240Y001050D03*
X012240Y001060D03*
D13*
X009600Y000590D03*
D14*
X009400Y000660D03*
X009410Y000760D03*
X009450Y000870D03*
X009840Y000960D03*
X009850Y000950D03*
X009860Y000930D03*
X009870Y000920D03*
X009880Y000900D03*
X009890Y000890D03*
X009970Y000770D03*
X009980Y000760D03*
X009990Y000750D03*
X010000Y000730D03*
X010010Y000720D03*
X010020Y000700D03*
X010030Y000690D03*
X010040Y000670D03*
X010050Y000660D03*
X010060Y000650D03*
X010070Y000630D03*
X010080Y000620D03*
X010090Y000600D03*
X010100Y000590D03*
X010630Y001110D03*
X010630Y001120D03*
X011020Y000950D03*
X011550Y001120D03*
D15*
X009590Y000600D03*
D16*
X010605Y000640D03*
X010605Y000650D03*
X010605Y000660D03*
X010605Y000680D03*
X010605Y000690D03*
X010665Y000690D03*
X010665Y000650D03*
X010665Y000640D03*
X010705Y000640D03*
X010705Y000630D03*
X010795Y000660D03*
X010865Y000660D03*
X010865Y000650D03*
X010865Y000640D03*
X010875Y000630D03*
X010905Y000630D03*
X010915Y000660D03*
X010965Y000670D03*
X010995Y000680D03*
X011005Y000660D03*
X011015Y000630D03*
X011055Y000640D03*
X011055Y000650D03*
X011055Y000660D03*
X011055Y000670D03*
X011055Y000680D03*
X011085Y000680D03*
X011095Y000670D03*
X011105Y000660D03*
X011105Y000650D03*
X011145Y000640D03*
X011145Y000670D03*
X011175Y000680D03*
X011185Y000670D03*
X011185Y000660D03*
X011185Y000650D03*
X011185Y000640D03*
X011265Y000640D03*
X011275Y000680D03*
X011315Y000690D03*
X011355Y000680D03*
X011355Y000670D03*
X011365Y000650D03*
X011375Y000630D03*
X011375Y000620D03*
X011375Y000610D03*
X011395Y000660D03*
X011435Y000670D03*
X011445Y000660D03*
X011475Y000630D03*
X011565Y000650D03*
X011565Y000660D03*
X011575Y000630D03*
X011615Y000660D03*
X011615Y000670D03*
X011655Y000670D03*
X011655Y000680D03*
X011655Y000660D03*
X011655Y000650D03*
X011655Y000640D03*
X011655Y000630D03*
X011695Y000630D03*
X011695Y000640D03*
X011695Y000650D03*
X011695Y000660D03*
X011685Y000680D03*
X011735Y000680D03*
X011735Y000670D03*
X011745Y000660D03*
X011745Y000650D03*
X011745Y000640D03*
X011745Y000630D03*
X011785Y000630D03*
X011785Y000660D03*
X011825Y000640D03*
X011325Y000650D03*
X011055Y000620D03*
X011055Y000610D03*
X011055Y000600D03*
D17*
X011100Y000640D03*
X011140Y000650D03*
X011140Y000660D03*
X011140Y000680D03*
X011140Y000620D03*
X011140Y000610D03*
X011140Y000600D03*
X011000Y000670D03*
X010970Y000680D03*
X010960Y000660D03*
X010950Y000630D03*
X010910Y000670D03*
X010870Y000670D03*
X010830Y000640D03*
X010830Y000630D03*
X010790Y000630D03*
X010790Y000670D03*
X010750Y000670D03*
X010750Y000660D03*
X010750Y000650D03*
X010750Y000640D03*
X010750Y000630D03*
X010710Y000650D03*
X010710Y000670D03*
X010660Y000680D03*
X010660Y000660D03*
X011270Y000690D03*
X011320Y000640D03*
X011360Y000660D03*
X011390Y000650D03*
X011400Y000670D03*
X011400Y000680D03*
X011440Y000630D03*
X011480Y000640D03*
X011520Y000640D03*
X011520Y000650D03*
X011520Y000660D03*
X011520Y000670D03*
X011520Y000690D03*
X011570Y000670D03*
X011570Y000640D03*
X011610Y000630D03*
X011780Y000670D03*
X011820Y000630D03*
D18*
X011810Y000650D03*
X011800Y000680D03*
X011700Y000670D03*
X011590Y000680D03*
X011530Y000630D03*
X011470Y000650D03*
X011380Y000640D03*
X011360Y000600D03*
X011310Y000660D03*
X010980Y000700D03*
X010890Y000680D03*
X010820Y000650D03*
X010810Y000680D03*
D19*
X009585Y000610D03*
X009605Y001100D03*
D20*
X009425Y001030D03*
X009425Y001020D03*
X009415Y001010D03*
X009415Y001000D03*
X009435Y000880D03*
X009395Y000750D03*
X009385Y000730D03*
X009385Y000720D03*
X009385Y000710D03*
X009385Y000700D03*
X009385Y000690D03*
X009395Y000670D03*
X009855Y000940D03*
X009875Y000910D03*
X009895Y000880D03*
X009905Y000870D03*
X009995Y000740D03*
X010015Y000710D03*
X010035Y000680D03*
X010065Y000640D03*
X010085Y000610D03*
X010405Y000910D03*
X010395Y001070D03*
X010625Y001130D03*
X010865Y000900D03*
X011015Y000900D03*
X011165Y000910D03*
X011545Y001130D03*
X011935Y001070D03*
X011935Y001020D03*
X012235Y001020D03*
X012235Y001070D03*
D21*
X009605Y001080D03*
X009605Y001090D03*
X009575Y000620D03*
D22*
X009570Y000630D03*
X009570Y000640D03*
D23*
X010580Y001030D03*
X010580Y001040D03*
X010670Y001050D03*
X010860Y000940D03*
X010980Y000650D03*
X010980Y000640D03*
X010630Y000630D03*
X010630Y000700D03*
X011490Y001010D03*
X011500Y001040D03*
X011590Y001050D03*
D24*
X011295Y000700D03*
X011075Y000630D03*
X010625Y000670D03*
D25*
X010940Y000840D03*
X011160Y000630D03*
X011290Y000630D03*
X010940Y001140D03*
D26*
X010630Y001100D03*
X010630Y001090D03*
X011550Y001090D03*
X009430Y000770D03*
X009420Y000650D03*
D27*
X010725Y000680D03*
X010985Y000690D03*
X011295Y000670D03*
X011455Y000680D03*
X011525Y000680D03*
D28*
X009690Y000780D03*
D29*
X009700Y000790D03*
D30*
X009700Y000800D03*
D31*
X009700Y000810D03*
D32*
X009705Y000820D03*
D33*
X009710Y000830D03*
D34*
X009695Y000840D03*
X009695Y000850D03*
X009685Y000860D03*
D35*
X010290Y000850D03*
X010290Y001000D03*
X010290Y001130D03*
X010940Y001100D03*
X010940Y000870D03*
X011840Y000970D03*
X012140Y000970D03*
D36*
X011545Y001070D03*
X011545Y001080D03*
X010935Y001130D03*
X010935Y000850D03*
X010625Y001080D03*
D37*
X010630Y000940D03*
X010630Y000930D03*
X010310Y000980D03*
X010310Y001080D03*
X010310Y001090D03*
X010310Y001100D03*
X010310Y000870D03*
X011240Y000870D03*
X011240Y000880D03*
X011240Y000890D03*
X011240Y000900D03*
X011240Y000860D03*
X011240Y000850D03*
X011240Y001080D03*
X011240Y001090D03*
X011240Y001100D03*
X011240Y001110D03*
X011240Y001120D03*
X011240Y001130D03*
X011860Y001080D03*
X011860Y001010D03*
D38*
X011850Y000980D03*
X011850Y001110D03*
X012150Y001110D03*
X012150Y000990D03*
X011230Y000990D03*
X011230Y001000D03*
X011230Y001010D03*
X011230Y001020D03*
X011230Y000980D03*
X011230Y000970D03*
X010940Y000890D03*
X010940Y000880D03*
X010940Y001090D03*
X010630Y000950D03*
X010300Y000990D03*
X010300Y001010D03*
X010300Y001120D03*
X010300Y000860D03*
D39*
X009775Y001000D03*
X010915Y001020D03*
X010965Y000980D03*
X010935Y000860D03*
D40*
X010625Y000920D03*
X010315Y000890D03*
X010315Y000880D03*
X010315Y000970D03*
X011545Y000930D03*
X011545Y000920D03*
X011545Y000910D03*
D41*
X011475Y000960D03*
X011475Y000970D03*
X011475Y000980D03*
X011485Y000990D03*
X011485Y001000D03*
X011495Y001020D03*
X011495Y001030D03*
X011505Y001050D03*
X011595Y001040D03*
X011595Y001030D03*
X011595Y001020D03*
X011605Y001010D03*
X011605Y001000D03*
X011605Y000990D03*
X011615Y000980D03*
X011615Y000970D03*
X011445Y000880D03*
X011025Y000920D03*
X011015Y001070D03*
X010865Y001080D03*
X010855Y001070D03*
X010855Y001060D03*
X010685Y001020D03*
X010685Y001010D03*
X010685Y001000D03*
X010695Y000990D03*
X010695Y000980D03*
X010695Y000970D03*
X010705Y000960D03*
X010675Y001030D03*
X010675Y001040D03*
X010585Y001050D03*
X010575Y001020D03*
X010575Y001010D03*
X010565Y001000D03*
X010565Y000990D03*
X010565Y000980D03*
X010555Y000970D03*
X010555Y000960D03*
X010395Y001040D03*
X010395Y001050D03*
X009415Y000920D03*
X011945Y001040D03*
X011945Y001050D03*
D42*
X010630Y000910D03*
X010630Y000900D03*
X010320Y000900D03*
D43*
X011545Y000900D03*
D44*
X011545Y000940D03*
X011545Y000950D03*
X011855Y000990D03*
X011855Y001000D03*
X011855Y001090D03*
X011855Y001100D03*
X012155Y001100D03*
X012155Y001090D03*
X012155Y001080D03*
X012155Y001010D03*
X012155Y001000D03*
X010305Y001020D03*
X010305Y001110D03*
D45*
X010875Y001040D03*
X011005Y000960D03*
X011545Y001100D03*
X011545Y001110D03*
X009435Y001040D03*
D46*
X009780Y000990D03*
X009780Y000980D03*
X010930Y001010D03*
X011830Y000960D03*
X012130Y000960D03*
D47*
X012135Y001130D03*
X011835Y001130D03*
X010955Y000990D03*
X010945Y001000D03*
X010935Y001110D03*
X009785Y000970D03*
D48*
X009765Y001030D03*
X010985Y000970D03*
X011545Y001060D03*
D49*
X011845Y001120D03*
X012145Y001120D03*
X012145Y000980D03*
D50*
X010940Y001120D03*
X009770Y001020D03*
X009770Y001010D03*
D51*
X009760Y001040D03*
X010630Y001060D03*
X010630Y001070D03*
X010900Y001030D03*
D52*
X009610Y001050D03*
D53*
X009605Y001060D03*
D54*
X009605Y001070D03*
D55*
X009605Y001110D03*
D56*
X009615Y001120D03*
D57*
X009620Y001130D03*
D58*
X009630Y001140D03*
D59*
X009705Y001205D02*
X009850Y001205D01*
X009898Y001253D01*
X009898Y001302D01*
X009850Y001350D01*
X009705Y001350D01*
X009705Y001205D02*
X009705Y001495D01*
X009850Y001495D01*
X009898Y001447D01*
X009898Y001398D01*
X009850Y001350D01*
X010000Y001350D02*
X010193Y001350D01*
X010193Y001398D02*
X010193Y001205D01*
X010294Y001253D02*
X010343Y001205D01*
X010439Y001205D01*
X010488Y001253D01*
X010488Y001302D01*
X010439Y001350D01*
X010343Y001350D01*
X010294Y001398D01*
X010294Y001447D01*
X010343Y001495D01*
X010439Y001495D01*
X010488Y001447D01*
X010589Y001495D02*
X010589Y001205D01*
X010782Y001205D01*
X010884Y001253D02*
X010932Y001205D01*
X011029Y001205D01*
X011077Y001253D01*
X011077Y001447D01*
X011029Y001495D01*
X010932Y001495D01*
X010884Y001447D01*
X010884Y001253D01*
X010686Y001350D02*
X010589Y001350D01*
X010589Y001495D02*
X010782Y001495D01*
X011178Y001398D02*
X011178Y001205D01*
X011372Y001205D02*
X011372Y001398D01*
X011275Y001495D01*
X011178Y001398D01*
X011178Y001350D02*
X011372Y001350D01*
X011473Y001253D02*
X011521Y001205D01*
X011618Y001205D01*
X011666Y001253D01*
X011666Y001495D01*
X011768Y001495D02*
X011961Y001495D01*
X011864Y001495D02*
X011864Y001205D01*
X012062Y001205D02*
X012062Y001495D01*
X012062Y001350D02*
X012256Y001350D01*
X012256Y001495D02*
X012256Y001205D01*
X011473Y001253D02*
X011473Y001495D01*
X010193Y001398D02*
X010096Y001495D01*
X010000Y001398D01*
X010000Y001205D01*
X009438Y001767D02*
X009370Y001699D01*
X009301Y001699D01*
X009230Y001627D02*
X009195Y001661D01*
X009127Y001661D01*
X009024Y001559D01*
X008953Y001487D02*
X008816Y001350D01*
X008782Y001385D02*
X008782Y001521D01*
X008919Y001521D01*
X009056Y001385D01*
X009127Y001456D02*
X009230Y001559D01*
X009230Y001627D01*
X009127Y001661D02*
X009127Y001730D01*
X009093Y001764D01*
X009024Y001764D01*
X008922Y001661D01*
X009127Y001456D01*
X008919Y001248D02*
X008782Y001385D01*
X008511Y001130D02*
X008477Y001164D01*
X008409Y001164D01*
X008340Y001096D01*
X008340Y001028D01*
X008269Y000956D02*
X008200Y000956D01*
X008132Y000888D01*
X008132Y000819D01*
X008269Y000682D01*
X008337Y000682D01*
X008406Y000751D01*
X008406Y000819D01*
X008511Y000857D02*
X008511Y001130D01*
X008648Y000993D02*
X008511Y000857D01*
X009199Y001801D02*
X009164Y001836D01*
X009164Y001904D01*
X009233Y001972D01*
X009301Y001972D01*
X009335Y001870D02*
X009404Y001870D01*
X009438Y001836D01*
X009438Y001767D01*
X009335Y001870D02*
X009267Y001801D01*
X009199Y001801D01*
X009538Y002245D02*
X009675Y002108D01*
X009743Y002108D01*
X009812Y002176D01*
X009812Y002245D01*
X009883Y002316D02*
X009952Y002316D01*
X010020Y002385D01*
X010020Y002453D01*
X009986Y002487D01*
X009917Y002487D01*
X009883Y002453D01*
X009917Y002487D02*
X009917Y002556D01*
X009883Y002590D01*
X009815Y002590D01*
X009746Y002521D01*
X009746Y002453D01*
X009675Y002382D02*
X009606Y002382D01*
X009538Y002313D01*
X009538Y002245D01*
X007314Y001769D02*
X006870Y001769D01*
X006981Y001880D02*
X007203Y001658D01*
X007092Y001547D02*
X007092Y001991D01*
X007203Y001880D02*
X006981Y001658D01*
X006494Y001615D02*
X006289Y001410D01*
X006289Y001546D01*
X006152Y001546D01*
X006358Y001752D01*
X006252Y001789D02*
X006252Y001857D01*
X006184Y001926D01*
X006115Y001926D01*
X006044Y001997D02*
X006044Y002066D01*
X005975Y002134D01*
X005907Y002134D01*
X005736Y001963D01*
X005767Y002137D02*
X005630Y002274D01*
X005490Y002277D02*
X005422Y002277D01*
X005353Y002346D01*
X005353Y002414D01*
X005387Y002448D01*
X005456Y002448D01*
X005456Y002517D01*
X005490Y002551D01*
X005558Y002551D01*
X005627Y002482D01*
X005627Y002414D01*
X005490Y002414D02*
X005456Y002448D01*
X005282Y002486D02*
X005213Y002486D01*
X005145Y002554D01*
X005145Y002622D01*
X005179Y002657D01*
X005453Y002657D01*
X005316Y002793D01*
X005210Y002831D02*
X005210Y002899D01*
X005142Y002968D01*
X005073Y002968D01*
X005039Y002933D01*
X005039Y002865D01*
X005108Y002797D01*
X005108Y002728D01*
X005073Y002694D01*
X005005Y002694D01*
X004937Y002762D01*
X004937Y002831D01*
X004971Y002865D01*
X005039Y002865D01*
X005108Y002797D02*
X005176Y002797D01*
X005210Y002831D01*
X004584Y002855D02*
X004293Y002855D01*
X004293Y002951D02*
X004293Y002758D01*
X004293Y002657D02*
X004584Y002463D01*
X004584Y002362D02*
X004584Y002169D01*
X004293Y002169D01*
X004293Y002362D01*
X004293Y002463D02*
X004584Y002657D01*
X004584Y003053D02*
X004293Y003053D01*
X004438Y003053D02*
X004438Y003246D01*
X004293Y003246D02*
X004584Y003246D01*
X004610Y003400D02*
X004678Y003468D01*
X004678Y003537D01*
X004784Y003574D02*
X004921Y003711D01*
X004852Y003643D02*
X004647Y003848D01*
X004647Y003711D01*
X004541Y003674D02*
X004473Y003674D01*
X004405Y003605D01*
X004405Y003537D01*
X004541Y003400D01*
X004610Y003400D01*
X004958Y003817D02*
X005027Y003817D01*
X005095Y003885D01*
X005095Y003953D01*
X005027Y004022D01*
X004958Y004022D01*
X004924Y003988D01*
X004890Y003885D01*
X004787Y003988D01*
X004924Y004125D01*
X006564Y004826D02*
X006612Y004778D01*
X006661Y004778D01*
X006709Y004826D01*
X006709Y005068D01*
X006661Y005068D02*
X006757Y005068D01*
X006858Y005068D02*
X006858Y004778D01*
X006858Y004923D02*
X007052Y004923D01*
X007052Y005068D02*
X007052Y004778D01*
X007153Y004778D02*
X007298Y004778D01*
X007347Y004826D01*
X007347Y005019D01*
X007298Y005068D01*
X007153Y005068D01*
X007153Y004778D01*
X007448Y004826D02*
X007496Y004778D01*
X007593Y004778D01*
X007641Y004826D01*
X007641Y004923D01*
X007593Y004971D01*
X007545Y004971D01*
X007448Y004923D01*
X007448Y005068D01*
X007641Y005068D01*
X007742Y005019D02*
X007791Y005068D01*
X007888Y005068D01*
X007936Y005019D01*
X007742Y004826D01*
X007791Y004778D01*
X007888Y004778D01*
X007936Y004826D01*
X007936Y005019D01*
X008037Y005019D02*
X008085Y005068D01*
X008182Y005068D01*
X008231Y005019D01*
X008231Y004971D01*
X008182Y004923D01*
X008085Y004923D01*
X008037Y004971D01*
X008037Y005019D01*
X008085Y004923D02*
X008037Y004874D01*
X008037Y004826D01*
X008085Y004778D01*
X008182Y004778D01*
X008231Y004826D01*
X008231Y004874D01*
X008182Y004923D01*
X008332Y004923D02*
X008525Y004923D01*
X008626Y004971D02*
X008723Y005068D01*
X008723Y004778D01*
X008626Y004778D02*
X008820Y004778D01*
X008921Y004778D02*
X009115Y004971D01*
X009115Y005019D01*
X009066Y005068D01*
X008969Y005068D01*
X008921Y005019D01*
X008921Y004778D02*
X009115Y004778D01*
X009216Y004826D02*
X009216Y004874D01*
X009264Y004923D01*
X009361Y004923D01*
X009409Y004874D01*
X009409Y004826D01*
X009361Y004778D01*
X009264Y004778D01*
X009216Y004826D01*
X009264Y004923D02*
X009216Y004971D01*
X009216Y005019D01*
X009264Y005068D01*
X009361Y005068D01*
X009409Y005019D01*
X009409Y004971D01*
X009361Y004923D01*
X009510Y004923D02*
X009510Y004826D01*
X009559Y004778D01*
X009655Y004778D01*
X009704Y004826D01*
X009704Y004874D01*
X009655Y004923D01*
X009510Y004923D01*
X009607Y005019D01*
X009704Y005068D01*
X009805Y004923D02*
X009998Y004923D01*
X009950Y004778D02*
X009950Y005068D01*
X009805Y004923D01*
X010144Y005198D02*
X010337Y005392D01*
X010337Y005440D01*
X010289Y005488D01*
X010192Y005488D01*
X010144Y005440D01*
X010144Y005198D02*
X010337Y005198D01*
X010438Y005198D02*
X010632Y005198D01*
X010535Y005198D02*
X010535Y005488D01*
X010438Y005392D01*
X010678Y005084D02*
X010727Y005084D01*
X010775Y005035D01*
X010823Y005084D01*
X010872Y005084D01*
X010920Y005035D01*
X010920Y004939D01*
X010872Y004890D01*
X010920Y004789D02*
X010823Y004692D01*
X010823Y004741D02*
X010823Y004596D01*
X010920Y004596D02*
X010630Y004596D01*
X010630Y004741D01*
X010678Y004789D01*
X010775Y004789D01*
X010823Y004741D01*
X010678Y004890D02*
X010630Y004939D01*
X010630Y005035D01*
X010678Y005084D01*
X010775Y005035D02*
X010775Y004987D01*
X011140Y004915D02*
X011237Y004818D01*
X011188Y004717D02*
X011140Y004669D01*
X011140Y004572D01*
X011188Y004524D01*
X011382Y004524D01*
X011430Y004572D01*
X011430Y004669D01*
X011382Y004717D01*
X011430Y004818D02*
X011430Y005012D01*
X011430Y004915D02*
X011140Y004915D01*
X011188Y005113D02*
X011140Y005161D01*
X011140Y005258D01*
X011188Y005306D01*
X011382Y005113D01*
X011430Y005161D01*
X011430Y005258D01*
X011382Y005306D01*
X011188Y005306D01*
X011188Y005113D02*
X011382Y005113D01*
X012015Y005142D02*
X012305Y005142D01*
X012257Y005340D02*
X012063Y005340D01*
X012015Y005388D01*
X012015Y005485D01*
X012063Y005533D01*
X012257Y005533D01*
X012305Y005485D01*
X012305Y005388D01*
X012257Y005340D01*
X012015Y005238D02*
X012015Y005045D01*
X012015Y005634D02*
X012015Y005779D01*
X012063Y005828D01*
X012160Y005828D01*
X012208Y005779D01*
X012208Y005634D01*
X012305Y005634D02*
X012015Y005634D01*
X011466Y006357D02*
X011176Y006357D01*
X011176Y006502D01*
X011224Y006551D01*
X011321Y006551D01*
X011369Y006502D01*
X011369Y006357D01*
X011369Y006454D02*
X011466Y006551D01*
X011466Y006652D02*
X011466Y006845D01*
X011466Y006749D02*
X011176Y006749D01*
X011272Y006652D01*
X010560Y006551D02*
X010560Y006357D01*
X010560Y006454D02*
X010270Y006454D01*
X010367Y006357D01*
X010318Y006256D02*
X010270Y006208D01*
X010270Y006111D01*
X010318Y006062D01*
X010512Y006062D01*
X010560Y006111D01*
X010560Y006208D01*
X010512Y006256D01*
X010415Y006652D02*
X010415Y006845D01*
X010560Y006797D02*
X010270Y006797D01*
X010415Y006652D01*
X010062Y007284D02*
X009868Y007284D01*
X009820Y007332D01*
X009820Y007429D01*
X009868Y007477D01*
X009965Y007578D02*
X009965Y007772D01*
X010110Y007723D02*
X009820Y007723D01*
X009965Y007578D01*
X010062Y007477D02*
X010110Y007429D01*
X010110Y007332D01*
X010062Y007284D01*
X009180Y007317D02*
X009180Y007511D01*
X009180Y007414D02*
X008890Y007414D01*
X008987Y007317D01*
X008938Y007216D02*
X008890Y007168D01*
X008890Y007071D01*
X008938Y007022D01*
X009132Y007022D01*
X009180Y007071D01*
X009180Y007168D01*
X009132Y007216D01*
X009132Y007612D02*
X009180Y007660D01*
X009180Y007757D01*
X009132Y007805D01*
X009083Y007805D01*
X009035Y007757D01*
X009035Y007709D01*
X009035Y007757D02*
X008987Y007805D01*
X008938Y007805D01*
X008890Y007757D01*
X008890Y007660D01*
X008938Y007612D01*
X008280Y007571D02*
X008280Y007377D01*
X008280Y007474D02*
X007990Y007474D01*
X008087Y007377D01*
X008038Y007276D02*
X007990Y007228D01*
X007990Y007131D01*
X008038Y007082D01*
X008232Y007082D01*
X008280Y007131D01*
X008280Y007228D01*
X008232Y007276D01*
X008280Y007672D02*
X008087Y007865D01*
X008038Y007865D01*
X007990Y007817D01*
X007990Y007720D01*
X008038Y007672D01*
X008280Y007672D02*
X008280Y007865D01*
X007046Y007831D02*
X006853Y007831D01*
X006950Y007831D02*
X006950Y008122D01*
X006853Y008025D01*
X006655Y008122D02*
X006655Y007831D01*
X006558Y007831D02*
X006752Y007831D01*
X006558Y008025D02*
X006655Y008122D01*
X006457Y008073D02*
X006409Y008122D01*
X006312Y008122D01*
X006264Y008073D01*
X006264Y007880D01*
X006312Y007831D01*
X006409Y007831D01*
X006457Y007880D01*
X006060Y007757D02*
X006060Y007660D01*
X006012Y007612D01*
X005915Y007612D02*
X005867Y007709D01*
X005867Y007757D01*
X005915Y007805D01*
X006012Y007805D01*
X006060Y007757D01*
X005915Y007612D02*
X005770Y007612D01*
X005770Y007805D01*
X005818Y007511D02*
X005770Y007462D01*
X005770Y007365D01*
X005818Y007317D01*
X006012Y007317D01*
X006060Y007365D01*
X006060Y007462D01*
X006012Y007511D01*
X005160Y007462D02*
X005160Y007365D01*
X005112Y007317D01*
X004918Y007317D01*
X004870Y007365D01*
X004870Y007462D01*
X004918Y007511D01*
X005015Y007612D02*
X005015Y007757D01*
X005063Y007805D01*
X005112Y007805D01*
X005160Y007757D01*
X005160Y007660D01*
X005112Y007612D01*
X005015Y007612D01*
X004918Y007709D01*
X004870Y007805D01*
X005112Y007511D02*
X005160Y007462D01*
X004260Y007462D02*
X004260Y007365D01*
X004212Y007317D01*
X004018Y007317D01*
X003970Y007365D01*
X003970Y007462D01*
X004018Y007511D01*
X003970Y007612D02*
X003970Y007805D01*
X004018Y007805D01*
X004212Y007612D01*
X004260Y007612D01*
X004212Y007511D02*
X004260Y007462D01*
X002760Y007402D02*
X002760Y007305D01*
X002712Y007257D01*
X002518Y007257D01*
X002470Y007305D01*
X002470Y007402D01*
X002518Y007451D01*
X002518Y007552D02*
X002567Y007552D01*
X002615Y007600D01*
X002615Y007697D01*
X002663Y007745D01*
X002712Y007745D01*
X002760Y007697D01*
X002760Y007600D01*
X002712Y007552D01*
X002663Y007552D01*
X002615Y007600D01*
X002615Y007697D02*
X002567Y007745D01*
X002518Y007745D01*
X002470Y007697D01*
X002470Y007600D01*
X002518Y007552D01*
X002712Y007451D02*
X002760Y007402D01*
X002292Y006785D02*
X002098Y006785D01*
X002050Y006737D01*
X002050Y006640D01*
X002098Y006592D01*
X002147Y006592D01*
X002195Y006640D01*
X002195Y006785D01*
X002292Y006785D02*
X002340Y006737D01*
X002340Y006640D01*
X002292Y006592D01*
X002292Y006491D02*
X002340Y006442D01*
X002340Y006345D01*
X002292Y006297D01*
X002098Y006297D01*
X002050Y006345D01*
X002050Y006442D01*
X002098Y006491D01*
X001721Y006431D02*
X001624Y006334D01*
X001624Y006382D02*
X001624Y006237D01*
X001721Y006237D02*
X001431Y006237D01*
X001431Y006382D01*
X001479Y006431D01*
X001576Y006431D01*
X001624Y006382D01*
X001576Y006532D02*
X001576Y006725D01*
X001721Y006677D02*
X001431Y006677D01*
X001576Y006532D01*
X001185Y006622D02*
X000895Y006622D01*
X000895Y006767D01*
X000943Y006815D01*
X001040Y006815D01*
X001088Y006767D01*
X001088Y006622D01*
X001088Y006718D02*
X001185Y006815D01*
X001185Y006916D02*
X001185Y007110D01*
X001088Y007211D02*
X001185Y007308D01*
X001088Y007405D01*
X000895Y007405D01*
X000895Y007211D02*
X001088Y007211D01*
X001040Y007013D02*
X001040Y006916D01*
X000895Y006916D02*
X001185Y006916D01*
X000895Y006916D02*
X000895Y007110D01*
X000992Y007800D02*
X000895Y007897D01*
X000992Y007994D01*
X001185Y007994D01*
X001040Y007994D02*
X001040Y007800D01*
X000992Y007800D02*
X001185Y007800D01*
X002250Y005896D02*
X002250Y005606D01*
X002444Y005606D01*
X002545Y005655D02*
X002593Y005606D01*
X002690Y005606D01*
X002738Y005655D01*
X002840Y005606D02*
X002985Y005606D01*
X003033Y005655D01*
X003033Y005848D01*
X002985Y005896D01*
X002840Y005896D01*
X002840Y005606D01*
X002959Y005488D02*
X002959Y005198D01*
X002862Y005198D02*
X003056Y005198D01*
X002862Y005392D02*
X002959Y005488D01*
X002738Y005848D02*
X002690Y005896D01*
X002593Y005896D01*
X002545Y005848D01*
X002545Y005655D01*
X004438Y002265D02*
X004438Y002169D01*
X005873Y001826D02*
X006044Y001997D01*
X005978Y001789D02*
X005978Y001721D01*
X006047Y001652D01*
X006115Y001652D01*
X006252Y001789D01*
X006594Y000907D02*
X006799Y000702D01*
X006731Y000634D02*
X006867Y000771D01*
X006625Y000596D02*
X006625Y000528D01*
X006556Y000460D01*
X006488Y000460D01*
X006351Y000596D01*
X006351Y000665D01*
X006420Y000733D01*
X006488Y000733D01*
X006594Y000771D02*
X006594Y000907D01*
X004325Y000832D02*
X004188Y000695D01*
X004188Y000968D01*
X004154Y001003D01*
X004085Y001003D01*
X004017Y000934D01*
X004017Y000866D01*
X003945Y000794D02*
X004014Y000726D01*
X004014Y000657D01*
X003911Y000555D01*
X003979Y000623D02*
X004116Y000623D01*
X003945Y000794D02*
X003877Y000794D01*
X003774Y000692D01*
X003979Y000486D01*
X001115Y000535D02*
X000922Y000728D01*
X000873Y000728D01*
X000825Y000680D01*
X000825Y000583D01*
X000873Y000535D01*
X001115Y000535D02*
X001115Y000728D01*
X001067Y000830D02*
X000873Y001023D01*
X001067Y001023D01*
X001115Y000975D01*
X001115Y000878D01*
X001067Y000830D01*
X000873Y000830D01*
X000825Y000878D01*
X000825Y000975D01*
X000873Y001023D01*
X000922Y001124D02*
X000825Y001221D01*
X001115Y001221D01*
X001115Y001124D02*
X001115Y001318D01*
X000970Y001419D02*
X000970Y001612D01*
X001115Y001564D02*
X000825Y001564D01*
X000970Y001419D01*
X007742Y004826D02*
X007742Y005019D01*
D60*
X006028Y004785D02*
X005745Y005068D01*
X004967Y004290D01*
X005250Y004007D01*
X006028Y004785D01*
X005680Y006991D02*
X005280Y006991D01*
X005280Y008091D01*
X005680Y008091D01*
X005680Y006991D01*
X006169Y007341D02*
X007269Y007341D01*
X007269Y007741D01*
X006169Y007741D01*
X006169Y007341D01*
X007500Y006991D02*
X007900Y006991D01*
X007900Y008091D01*
X007500Y008091D01*
X007500Y006991D01*
X008400Y006991D02*
X008800Y006991D01*
X008800Y008091D01*
X008400Y008091D01*
X008400Y006991D01*
X009300Y007009D02*
X009300Y008109D01*
X009700Y008109D01*
X009700Y007009D01*
X009300Y007009D01*
X009893Y006915D02*
X003278Y006915D01*
X003220Y006991D02*
X003220Y008091D01*
X002820Y008091D01*
X002820Y006991D01*
X003220Y006991D01*
X003278Y006915D02*
X003256Y006913D01*
X003234Y006909D01*
X003213Y006901D01*
X003193Y006890D01*
X003175Y006877D01*
X003159Y006861D01*
X003146Y006843D01*
X003135Y006823D01*
X003127Y006802D01*
X003123Y006780D01*
X003121Y006758D01*
X003121Y005341D01*
X010050Y005341D01*
X010050Y006758D01*
X010048Y006780D01*
X010044Y006802D01*
X010036Y006823D01*
X010025Y006843D01*
X010012Y006861D01*
X009996Y006877D01*
X009978Y006890D01*
X009958Y006901D01*
X009937Y006909D01*
X009915Y006913D01*
X009893Y006915D01*
X010200Y006991D02*
X010600Y006991D01*
X010600Y008091D01*
X010200Y008091D01*
X010200Y006991D01*
X011106Y006941D02*
X011106Y008141D01*
X011506Y008141D01*
X011506Y006941D01*
X011106Y006941D01*
X010960Y004400D02*
X010560Y004400D01*
X010560Y003200D01*
X010960Y003200D01*
X010960Y004400D01*
X011100Y004389D02*
X011100Y003289D01*
X011500Y003289D01*
X011500Y004389D01*
X011100Y004389D01*
X009645Y003173D02*
X008867Y002395D01*
X009150Y002112D01*
X009928Y002890D01*
X009645Y003173D01*
X008768Y002382D02*
X009102Y002048D01*
X008601Y001547D01*
X008267Y001881D01*
X008768Y002382D01*
X008212Y001750D02*
X007435Y000973D01*
X007717Y000690D01*
X008495Y001467D01*
X008212Y001750D01*
X007761Y001662D02*
X006983Y000884D01*
X006700Y001167D01*
X007478Y001944D01*
X007761Y001662D01*
X005354Y001805D02*
X005071Y002087D01*
X004223Y001239D01*
X004506Y000956D01*
X005354Y001805D01*
X001761Y006881D02*
X001361Y006881D01*
X001361Y008081D01*
X001761Y008081D01*
X001761Y006881D01*
X001980Y006991D02*
X002380Y006991D01*
X002380Y008091D01*
X001980Y008091D01*
X001980Y006991D01*
X003480Y006991D02*
X003480Y008091D01*
X003880Y008091D01*
X003880Y006991D01*
X003480Y006991D01*
X004380Y006991D02*
X004780Y006991D01*
X004780Y008091D01*
X004380Y008091D01*
X004380Y006991D01*
D61*
X004568Y007541D02*
X004592Y007541D01*
X005468Y007541D02*
X005492Y007541D01*
X006719Y007553D02*
X006719Y007529D01*
X007688Y007541D02*
X007712Y007541D01*
X008588Y007541D02*
X008612Y007541D01*
X009488Y007559D02*
X009512Y007559D01*
X009814Y006837D02*
X009893Y006837D01*
X009908Y006835D01*
X009923Y006831D01*
X009937Y006824D01*
X009949Y006814D01*
X009959Y006802D01*
X009966Y006788D01*
X009970Y006773D01*
X009972Y006758D01*
X009971Y006679D02*
X009971Y005419D01*
X009971Y005262D02*
X009814Y005262D01*
X003357Y005262D01*
X003200Y005262D01*
X003200Y005419D02*
X003200Y006758D01*
X003199Y006758D02*
X003201Y006773D01*
X003205Y006788D01*
X003212Y006802D01*
X003222Y006814D01*
X003234Y006824D01*
X003248Y006831D01*
X003263Y006835D01*
X003278Y006837D01*
X009814Y006837D01*
X009814Y006836D02*
X009836Y006834D01*
X009858Y006830D01*
X009879Y006822D01*
X009899Y006811D01*
X009917Y006798D01*
X009933Y006782D01*
X009946Y006764D01*
X009957Y006744D01*
X009965Y006723D01*
X009969Y006701D01*
X009971Y006679D01*
X010388Y007541D02*
X010412Y007541D01*
X009971Y005419D02*
X009969Y005397D01*
X009965Y005375D01*
X009957Y005354D01*
X009946Y005334D01*
X009933Y005316D01*
X009917Y005300D01*
X009899Y005287D01*
X009879Y005276D01*
X009858Y005268D01*
X009836Y005264D01*
X009814Y005262D01*
X011288Y003839D02*
X011312Y003839D01*
X009406Y002634D02*
X009389Y002651D01*
X007973Y001212D02*
X007956Y001228D01*
X007239Y001406D02*
X007222Y001423D01*
X005506Y004529D02*
X005489Y004546D01*
X003357Y005262D02*
X003335Y005264D01*
X003313Y005268D01*
X003292Y005276D01*
X003272Y005287D01*
X003254Y005300D01*
X003238Y005316D01*
X003225Y005334D01*
X003214Y005354D01*
X003206Y005375D01*
X003202Y005397D01*
X003200Y005419D01*
X003032Y007541D02*
X003008Y007541D01*
X003668Y007541D02*
X003692Y007541D01*
X002192Y007541D02*
X002168Y007541D01*
D62*
X006726Y004229D02*
X006782Y004285D01*
X006839Y004229D01*
X007843Y003224D02*
X007900Y003168D01*
X007843Y003111D01*
X006839Y002107D02*
X006782Y002051D01*
X006726Y002107D01*
X005722Y003111D02*
X005665Y003168D01*
X005722Y003224D01*
D63*
X010760Y003800D03*
X011306Y007541D03*
X001561Y007481D03*
D64*
G36*
X004634Y001564D02*
X004747Y001677D01*
X004944Y001480D01*
X004831Y001367D01*
X004634Y001564D01*
G37*
D65*
X004109Y002100D02*
X004109Y003384D01*
X001190Y003384D01*
X001190Y002100D01*
X004109Y002100D01*
M02*
