G75*
%MOIN*%
%OFA0B0*%
%FSLAX24Y24*%
%IPPOS*%
%LPD*%
%AMOC8*
5,1,8,0,0,1.08239X$1,22.5*
%
%ADD10C,0.0000*%
%ADD11C,0.0030*%
%ADD12R,0.0300X0.0010*%
%ADD13R,0.0090X0.0010*%
%ADD14R,0.0350X0.0010*%
%ADD15R,0.0110X0.0010*%
%ADD16R,0.0370X0.0010*%
%ADD17R,0.0020X0.0010*%
%ADD18R,0.0010X0.0010*%
%ADD19R,0.0030X0.0010*%
%ADD20R,0.0380X0.0010*%
%ADD21R,0.0100X0.0010*%
%ADD22R,0.0400X0.0010*%
%ADD23R,0.0410X0.0010*%
%ADD24R,0.0070X0.0010*%
%ADD25R,0.0060X0.0010*%
%ADD26R,0.0050X0.0010*%
%ADD27R,0.0130X0.0010*%
%ADD28R,0.0040X0.0010*%
%ADD29R,0.0650X0.0010*%
%ADD30R,0.0630X0.0010*%
%ADD31R,0.0610X0.0010*%
%ADD32R,0.0590X0.0010*%
%ADD33R,0.0580X0.0010*%
%ADD34R,0.0550X0.0010*%
%ADD35R,0.0560X0.0010*%
%ADD36R,0.0210X0.0010*%
%ADD37R,0.0140X0.0010*%
%ADD38R,0.0250X0.0010*%
%ADD39R,0.0230X0.0010*%
%ADD40R,0.0180X0.0010*%
%ADD41R,0.0260X0.0010*%
%ADD42R,0.0080X0.0010*%
%ADD43R,0.0270X0.0010*%
%ADD44R,0.0280X0.0010*%
%ADD45R,0.0240X0.0010*%
%ADD46R,0.0120X0.0010*%
%ADD47R,0.0190X0.0010*%
%ADD48R,0.0200X0.0010*%
%ADD49R,0.0160X0.0010*%
%ADD50R,0.0220X0.0010*%
%ADD51R,0.0170X0.0010*%
%ADD52R,0.0150X0.0010*%
%ADD53R,0.0450X0.0010*%
%ADD54R,0.0440X0.0010*%
%ADD55R,0.0420X0.0010*%
%ADD56R,0.0360X0.0010*%
%ADD57R,0.0340X0.0010*%
%ADD58R,0.0310X0.0010*%
%ADD59R,0.0290X0.0010*%
%ADD60C,0.0050*%
%ADD61C,0.0160*%
%ADD62R,0.0059X0.0118*%
%ADD63R,0.0118X0.0118*%
D10*
X000680Y000380D02*
X000680Y008254D01*
X012491Y008254D01*
X012491Y000380D01*
X000680Y000380D01*
D11*
X001685Y000632D02*
X001975Y000632D01*
X001975Y000777D01*
X001927Y000825D01*
X001830Y000825D01*
X001782Y000777D01*
X001782Y000632D01*
X001782Y000728D02*
X001685Y000825D01*
X001685Y000926D02*
X001685Y001120D01*
X001733Y001221D02*
X001685Y001269D01*
X001685Y001366D01*
X001733Y001415D01*
X001782Y001415D01*
X001830Y001366D01*
X001830Y001269D01*
X001878Y001221D01*
X001927Y001221D01*
X001975Y001269D01*
X001975Y001366D01*
X001927Y001415D01*
X001975Y001516D02*
X001685Y001516D01*
X001685Y001709D01*
X001830Y001612D02*
X001830Y001516D01*
X001975Y001516D02*
X001975Y001709D01*
X001975Y001810D02*
X001975Y002004D01*
X001975Y001907D02*
X001685Y001907D01*
X001415Y001865D02*
X001415Y001769D01*
X001367Y001720D01*
X001173Y001720D01*
X001125Y001769D01*
X001125Y001865D01*
X001173Y001914D01*
X001367Y001914D02*
X001415Y001865D01*
X001415Y001619D02*
X001125Y001619D01*
X001415Y001426D01*
X001125Y001426D01*
X001685Y000926D02*
X001975Y000926D01*
X001975Y001120D01*
X001830Y001023D02*
X001830Y000926D01*
X002095Y001238D02*
X002385Y001238D01*
X002385Y001141D02*
X002385Y001335D01*
X002385Y001436D02*
X002095Y001629D01*
X002095Y001730D02*
X002095Y001875D01*
X002143Y001924D01*
X002337Y001924D01*
X002385Y001875D01*
X002385Y001730D01*
X002095Y001730D01*
X002095Y001436D02*
X002385Y001629D01*
X002615Y001619D02*
X002905Y001426D01*
X002857Y001325D02*
X002760Y001325D01*
X002712Y001276D01*
X002712Y001131D01*
X002712Y001228D02*
X002615Y001325D01*
X002615Y001426D02*
X002905Y001619D01*
X002905Y001720D02*
X002905Y001865D01*
X002857Y001914D01*
X002663Y001914D01*
X002615Y001865D01*
X002615Y001720D01*
X002905Y001720D01*
X003155Y001730D02*
X003155Y001875D01*
X003203Y001924D01*
X003397Y001924D01*
X003445Y001875D01*
X003445Y001730D01*
X003155Y001730D01*
X003155Y001629D02*
X003445Y001629D01*
X003635Y001629D02*
X003925Y001629D01*
X003925Y001730D02*
X003925Y001875D01*
X003877Y001924D01*
X003683Y001924D01*
X003635Y001875D01*
X003635Y001730D01*
X003925Y001730D01*
X003925Y001436D02*
X003635Y001629D01*
X003635Y001436D02*
X003925Y001436D01*
X003877Y001335D02*
X003925Y001286D01*
X003925Y001189D01*
X003877Y001141D01*
X003683Y001141D01*
X003635Y001189D01*
X003635Y001286D01*
X003683Y001335D01*
X003780Y001335D01*
X003780Y001238D01*
X003445Y001286D02*
X003445Y001189D01*
X003397Y001141D01*
X003203Y001141D01*
X003155Y001189D01*
X003155Y001286D01*
X003203Y001335D01*
X003300Y001335D01*
X003300Y001238D01*
X003397Y001335D02*
X003445Y001286D01*
X003445Y001436D02*
X003155Y001629D01*
X003155Y001436D02*
X003445Y001436D01*
X002905Y001276D02*
X002905Y001131D01*
X002615Y001131D01*
X002857Y001325D02*
X002905Y001276D01*
X001925Y002752D02*
X001635Y002752D01*
X001732Y002752D02*
X001732Y002897D01*
X001780Y002945D01*
X001877Y002945D01*
X001925Y002897D01*
X001925Y002752D01*
X001732Y002848D02*
X001635Y002945D01*
X001635Y003046D02*
X001635Y003240D01*
X001683Y003341D02*
X001635Y003389D01*
X001635Y003486D01*
X001683Y003535D01*
X001732Y003535D01*
X001780Y003486D01*
X001780Y003389D01*
X001828Y003341D01*
X001877Y003341D01*
X001925Y003389D01*
X001925Y003486D01*
X001877Y003535D01*
X001925Y003636D02*
X001635Y003636D01*
X001635Y003829D01*
X001780Y003732D02*
X001780Y003636D01*
X001925Y003636D02*
X001925Y003829D01*
X001925Y003930D02*
X001925Y004124D01*
X001925Y004027D02*
X001635Y004027D01*
X001395Y004085D02*
X001395Y003940D01*
X001105Y003940D01*
X001105Y004085D01*
X001153Y004134D01*
X001347Y004134D01*
X001395Y004085D01*
X001395Y003839D02*
X001105Y003839D01*
X001395Y003646D01*
X001105Y003646D01*
X001153Y003545D02*
X001250Y003545D01*
X001250Y003448D01*
X001153Y003545D02*
X001105Y003496D01*
X001105Y003399D01*
X001153Y003351D01*
X001347Y003351D01*
X001395Y003399D01*
X001395Y003496D01*
X001347Y003545D01*
X001780Y003143D02*
X001780Y003046D01*
X001925Y003046D02*
X001635Y003046D01*
X001925Y003046D02*
X001925Y003240D01*
X002175Y003379D02*
X002175Y003476D01*
X002223Y003525D01*
X002272Y003525D01*
X002320Y003476D01*
X002320Y003379D01*
X002368Y003331D01*
X002417Y003331D01*
X002465Y003379D01*
X002465Y003476D01*
X002417Y003525D01*
X002417Y003626D02*
X002223Y003626D01*
X002175Y003674D01*
X002175Y003771D01*
X002223Y003819D01*
X002175Y003920D02*
X002465Y003920D01*
X002417Y003819D02*
X002465Y003771D01*
X002465Y003674D01*
X002417Y003626D01*
X002675Y003554D02*
X002675Y003458D01*
X002723Y003409D01*
X002917Y003409D01*
X002965Y003458D01*
X002965Y003554D01*
X002917Y003603D01*
X002723Y003603D01*
X002675Y003554D01*
X002723Y003704D02*
X002675Y003752D01*
X002675Y003849D01*
X002723Y003897D01*
X002772Y003897D01*
X002820Y003849D01*
X002820Y003752D01*
X002868Y003704D01*
X002917Y003704D01*
X002965Y003752D01*
X002965Y003849D01*
X002917Y003897D01*
X002965Y003999D02*
X002965Y004095D01*
X002965Y004047D02*
X002675Y004047D01*
X002675Y003999D02*
X002675Y004095D01*
X002465Y004114D02*
X002272Y003920D01*
X002320Y003969D02*
X002175Y004114D01*
X002175Y003379D02*
X002223Y003331D01*
X002675Y003308D02*
X002965Y003308D01*
X002868Y003211D01*
X002965Y003115D01*
X002675Y003115D01*
X003175Y003115D02*
X003465Y003115D01*
X003368Y003211D01*
X003465Y003308D01*
X003175Y003308D01*
X003175Y003409D02*
X003175Y003506D01*
X003175Y003458D02*
X003465Y003458D01*
X003465Y003506D02*
X003465Y003409D01*
X003417Y003606D02*
X003368Y003606D01*
X003320Y003654D01*
X003320Y003751D01*
X003272Y003799D01*
X003223Y003799D01*
X003175Y003751D01*
X003175Y003654D01*
X003223Y003606D01*
X003417Y003606D02*
X003465Y003654D01*
X003465Y003751D01*
X003417Y003799D01*
X003417Y003900D02*
X003223Y003900D01*
X003175Y003949D01*
X003175Y004045D01*
X003223Y004094D01*
X003417Y004094D01*
X003465Y004045D01*
X003465Y003949D01*
X003417Y003900D01*
X003705Y003880D02*
X003705Y004025D01*
X003753Y004074D01*
X003947Y004074D01*
X003995Y004025D01*
X003995Y003880D01*
X003705Y003880D01*
X003753Y003779D02*
X003705Y003731D01*
X003705Y003586D01*
X003995Y003586D01*
X003995Y003731D01*
X003947Y003779D01*
X003753Y003779D01*
X003802Y003485D02*
X003995Y003485D01*
X003802Y003485D02*
X003705Y003388D01*
X003802Y003291D01*
X003995Y003291D01*
X004286Y006575D02*
X004286Y006865D01*
X004286Y006720D02*
X004480Y006720D01*
X004480Y006575D02*
X004480Y006865D01*
X004581Y006865D02*
X004774Y006865D01*
X004678Y006865D02*
X004678Y006575D01*
X004875Y006623D02*
X004875Y006865D01*
X005069Y006865D02*
X005069Y006623D01*
X005021Y006575D01*
X004924Y006575D01*
X004875Y006623D01*
X005170Y006575D02*
X005170Y006768D01*
X005267Y006865D01*
X005364Y006768D01*
X005364Y006575D01*
X005465Y006623D02*
X005465Y006817D01*
X005513Y006865D01*
X005610Y006865D01*
X005658Y006817D01*
X005658Y006623D01*
X005610Y006575D01*
X005513Y006575D01*
X005465Y006623D01*
X005364Y006720D02*
X005170Y006720D01*
X005759Y006575D02*
X005953Y006575D01*
X005953Y006865D01*
X005759Y006865D01*
X005856Y006720D02*
X005953Y006720D01*
X006054Y006672D02*
X006054Y006623D01*
X006102Y006575D01*
X006199Y006575D01*
X006248Y006623D01*
X006199Y006720D02*
X006102Y006720D01*
X006054Y006672D01*
X006199Y006720D02*
X006248Y006768D01*
X006248Y006817D01*
X006199Y006865D01*
X006102Y006865D01*
X006054Y006817D01*
X006349Y006768D02*
X006349Y006575D01*
X006542Y006575D02*
X006542Y006768D01*
X006445Y006865D01*
X006349Y006768D01*
X006349Y006720D02*
X006542Y006720D01*
X006643Y006672D02*
X006643Y006623D01*
X006692Y006575D01*
X006837Y006575D01*
X006837Y006865D01*
X006692Y006865D01*
X006643Y006817D01*
X006643Y006768D01*
X006692Y006720D01*
X006837Y006720D01*
X006692Y006720D02*
X006643Y006672D01*
X010815Y004625D02*
X010815Y004480D01*
X011105Y004480D01*
X011105Y004625D01*
X011057Y004674D01*
X010863Y004674D01*
X010815Y004625D01*
X010863Y004379D02*
X011057Y004379D01*
X011105Y004331D01*
X011105Y004186D01*
X010815Y004186D01*
X010815Y004331D01*
X010863Y004379D01*
X010912Y004085D02*
X011105Y004085D01*
X010912Y004085D02*
X010815Y003988D01*
X010912Y003891D01*
X011105Y003891D01*
X011975Y003784D02*
X012168Y003784D01*
X012265Y003687D01*
X012168Y003590D01*
X011975Y003590D01*
X012120Y003590D02*
X012120Y003784D01*
X012072Y003195D02*
X011975Y003098D01*
X012072Y003001D01*
X012265Y003001D01*
X012265Y002900D02*
X012265Y002706D01*
X011975Y002706D01*
X011975Y002900D01*
X012120Y002803D02*
X012120Y002706D01*
X012120Y002605D02*
X012072Y002557D01*
X012072Y002412D01*
X012072Y002508D02*
X011975Y002605D01*
X012120Y002605D02*
X012217Y002605D01*
X012265Y002557D01*
X012265Y002412D01*
X011975Y002412D01*
X011393Y002292D02*
X011393Y002147D01*
X011102Y002147D01*
X011199Y002147D02*
X011199Y002292D01*
X011248Y002340D01*
X011344Y002340D01*
X011393Y002292D01*
X011393Y002046D02*
X011199Y001852D01*
X011248Y001901D02*
X011102Y002046D01*
X011102Y001852D02*
X011393Y001852D01*
X011965Y001654D02*
X012255Y001654D01*
X012110Y001509D01*
X012110Y001702D01*
X011965Y001408D02*
X011965Y001214D01*
X011965Y001311D02*
X012255Y001311D01*
X012158Y001214D01*
X012207Y001113D02*
X012013Y001113D01*
X011965Y001065D01*
X011965Y000968D01*
X012013Y000920D01*
X012207Y001113D01*
X012255Y001065D01*
X012255Y000968D01*
X012207Y000920D01*
X012013Y000920D01*
X011965Y000818D02*
X011965Y000625D01*
X012158Y000818D01*
X012207Y000818D01*
X012255Y000770D01*
X012255Y000673D01*
X012207Y000625D01*
X012265Y003195D02*
X012072Y003195D01*
X012459Y006543D02*
X012459Y006790D01*
X012582Y006667D02*
X012335Y006667D01*
X011703Y006862D02*
X011412Y006862D01*
X011412Y007055D01*
X011412Y007156D02*
X011412Y007350D01*
X011412Y007451D02*
X011412Y007596D01*
X011461Y007644D01*
X011654Y007644D01*
X011703Y007596D01*
X011703Y007451D01*
X011412Y007451D01*
X011557Y007253D02*
X011557Y007156D01*
X011412Y007156D02*
X011703Y007156D01*
X011703Y007350D01*
X011606Y007746D02*
X011703Y007842D01*
X011412Y007842D01*
X011412Y007746D02*
X011412Y007939D01*
X001759Y007974D02*
X001711Y007926D01*
X001759Y007974D02*
X001759Y008071D01*
X001711Y008119D01*
X001662Y008119D01*
X001469Y007926D01*
X001469Y008119D01*
X001517Y007824D02*
X001711Y007824D01*
X001759Y007776D01*
X001759Y007631D01*
X001469Y007631D01*
X001469Y007776D01*
X001517Y007824D01*
X001469Y007530D02*
X001469Y007336D01*
X001759Y007336D01*
X001759Y007530D01*
X001614Y007433D02*
X001614Y007336D01*
X001469Y007235D02*
X001469Y007042D01*
X001759Y007042D01*
X001435Y006790D02*
X001435Y006543D01*
X001312Y006667D02*
X001559Y006667D01*
D12*
X006605Y007040D03*
D13*
X006490Y007110D03*
X006490Y007120D03*
X006490Y007130D03*
X006490Y007140D03*
X006490Y007150D03*
X006490Y007160D03*
X006490Y007170D03*
X006490Y007180D03*
X006490Y007190D03*
X006490Y007200D03*
X006490Y007210D03*
X006490Y007220D03*
X006490Y007230D03*
X006490Y007330D03*
X006490Y007340D03*
X006490Y007350D03*
X006490Y007360D03*
X006490Y007370D03*
X006490Y007380D03*
X006490Y007390D03*
X006490Y007400D03*
X006490Y007410D03*
X006490Y007420D03*
X006790Y007350D03*
X006800Y007360D03*
X006800Y007370D03*
X006810Y007390D03*
X006810Y007400D03*
X006810Y007410D03*
X006810Y007420D03*
X006810Y007430D03*
X006810Y007440D03*
X006810Y007450D03*
X006830Y007200D03*
X006830Y007140D03*
X006120Y007040D03*
X005990Y007370D03*
X005990Y007380D03*
X005990Y007390D03*
X005990Y007400D03*
X005990Y007410D03*
X005990Y007420D03*
X005990Y007490D03*
X005990Y007500D03*
X005990Y007510D03*
X005990Y007520D03*
X005990Y007530D03*
X005830Y007490D03*
X005820Y007520D03*
X005820Y007420D03*
X005810Y007410D03*
X005810Y007400D03*
X005810Y007390D03*
X005810Y007380D03*
X005700Y007330D03*
X005700Y007320D03*
X005700Y007310D03*
X005690Y007340D03*
X005690Y007350D03*
X005500Y007350D03*
X005490Y007340D03*
X005490Y007330D03*
X005480Y007320D03*
X005480Y007310D03*
X005370Y007380D03*
X005370Y007390D03*
X005360Y007370D03*
X005360Y007510D03*
X005210Y007540D03*
X005200Y007520D03*
X005190Y007400D03*
X005190Y007390D03*
X005200Y007370D03*
X005060Y007380D03*
X005060Y007390D03*
X005060Y007400D03*
X005060Y007410D03*
X005060Y007420D03*
X005060Y007490D03*
X005060Y007500D03*
X005060Y007510D03*
X005060Y007520D03*
X005060Y007530D03*
X004770Y007350D03*
X004780Y007330D03*
X004780Y007320D03*
X004790Y007310D03*
X004580Y007350D03*
X004570Y007340D03*
X004570Y007330D03*
X004570Y007320D03*
X004560Y007310D03*
X004440Y007310D03*
X004440Y007320D03*
X004440Y007330D03*
X004440Y007340D03*
X004440Y007350D03*
X004440Y007360D03*
X004440Y007370D03*
X004440Y007380D03*
X004440Y007390D03*
X004440Y007400D03*
X004440Y007410D03*
X004440Y007480D03*
X004440Y007490D03*
X004440Y007500D03*
X004440Y007510D03*
X004440Y007520D03*
X004440Y007530D03*
X004280Y007520D03*
X004280Y007490D03*
X004140Y007490D03*
X004140Y007500D03*
X004140Y007510D03*
X004140Y007520D03*
X004140Y007530D03*
X004140Y007480D03*
X004140Y007410D03*
X004140Y007400D03*
X004140Y007390D03*
X004140Y007380D03*
X004140Y007370D03*
X004140Y007360D03*
X004140Y007350D03*
X004140Y007340D03*
X004140Y007330D03*
X004140Y007320D03*
X004140Y007310D03*
X003980Y007490D03*
X003980Y007500D03*
X003980Y007510D03*
X003980Y007520D03*
X004600Y007420D03*
D14*
X006620Y007050D03*
D15*
X006820Y007120D03*
X006810Y007220D03*
X006770Y007330D03*
X006380Y007420D03*
X006370Y007410D03*
X006360Y007390D03*
X006350Y007380D03*
X006340Y007360D03*
X006330Y007350D03*
X006250Y007230D03*
X006240Y007220D03*
X006230Y007210D03*
X006220Y007190D03*
X006210Y007180D03*
X006200Y007160D03*
X006190Y007150D03*
X006180Y007130D03*
X006170Y007120D03*
X006160Y007110D03*
X006150Y007090D03*
X006140Y007080D03*
X006130Y007060D03*
X006120Y007050D03*
X005590Y007570D03*
X005590Y007580D03*
X005200Y007410D03*
X004670Y007580D03*
D16*
X006630Y007060D03*
D17*
X005615Y007100D03*
X005615Y007110D03*
X005615Y007120D03*
X005615Y007140D03*
X005615Y007150D03*
X005555Y007150D03*
X005555Y007110D03*
X005555Y007100D03*
X005515Y007100D03*
X005515Y007090D03*
X005425Y007120D03*
X005355Y007120D03*
X005355Y007110D03*
X005355Y007100D03*
X005345Y007090D03*
X005315Y007090D03*
X005305Y007120D03*
X005255Y007130D03*
X005225Y007140D03*
X005215Y007120D03*
X005205Y007090D03*
X005165Y007100D03*
X005165Y007110D03*
X005165Y007120D03*
X005165Y007130D03*
X005165Y007140D03*
X005135Y007140D03*
X005125Y007130D03*
X005115Y007120D03*
X005115Y007110D03*
X005075Y007100D03*
X005075Y007130D03*
X005045Y007140D03*
X005035Y007130D03*
X005035Y007120D03*
X005035Y007110D03*
X005035Y007100D03*
X004955Y007100D03*
X004945Y007140D03*
X004905Y007150D03*
X004865Y007140D03*
X004865Y007130D03*
X004855Y007110D03*
X004845Y007090D03*
X004845Y007080D03*
X004845Y007070D03*
X004825Y007120D03*
X004785Y007130D03*
X004775Y007120D03*
X004745Y007090D03*
X004655Y007110D03*
X004655Y007120D03*
X004645Y007090D03*
X004605Y007120D03*
X004605Y007130D03*
X004565Y007130D03*
X004565Y007140D03*
X004565Y007120D03*
X004565Y007110D03*
X004565Y007100D03*
X004565Y007090D03*
X004525Y007090D03*
X004525Y007100D03*
X004525Y007110D03*
X004525Y007120D03*
X004535Y007140D03*
X004485Y007140D03*
X004485Y007130D03*
X004475Y007120D03*
X004475Y007110D03*
X004475Y007100D03*
X004475Y007090D03*
X004435Y007090D03*
X004435Y007120D03*
X004395Y007100D03*
X004895Y007110D03*
X005165Y007080D03*
X005165Y007070D03*
X005165Y007060D03*
D18*
X005120Y007100D03*
X005080Y007110D03*
X005080Y007120D03*
X005080Y007140D03*
X005080Y007080D03*
X005080Y007070D03*
X005080Y007060D03*
X005220Y007130D03*
X005250Y007140D03*
X005260Y007120D03*
X005270Y007090D03*
X005310Y007130D03*
X005350Y007130D03*
X005390Y007100D03*
X005390Y007090D03*
X005430Y007090D03*
X005430Y007130D03*
X005470Y007130D03*
X005470Y007120D03*
X005470Y007110D03*
X005470Y007100D03*
X005470Y007090D03*
X005510Y007110D03*
X005510Y007130D03*
X005560Y007140D03*
X005560Y007120D03*
X004950Y007150D03*
X004900Y007100D03*
X004860Y007120D03*
X004830Y007110D03*
X004820Y007130D03*
X004820Y007140D03*
X004780Y007090D03*
X004740Y007100D03*
X004700Y007100D03*
X004700Y007110D03*
X004700Y007120D03*
X004700Y007130D03*
X004700Y007150D03*
X004650Y007130D03*
X004650Y007100D03*
X004610Y007090D03*
X004440Y007130D03*
X004400Y007090D03*
D19*
X004410Y007110D03*
X004420Y007140D03*
X004520Y007130D03*
X004630Y007140D03*
X004690Y007090D03*
X004750Y007110D03*
X004840Y007100D03*
X004860Y007060D03*
X004910Y007120D03*
X005240Y007160D03*
X005330Y007140D03*
X005400Y007110D03*
X005410Y007140D03*
D20*
X006635Y007070D03*
X006615Y007560D03*
D21*
X006795Y007490D03*
X006795Y007480D03*
X006805Y007470D03*
X006805Y007460D03*
X006785Y007340D03*
X006825Y007210D03*
X006835Y007190D03*
X006835Y007180D03*
X006835Y007170D03*
X006835Y007160D03*
X006835Y007150D03*
X006825Y007130D03*
X006365Y007400D03*
X006345Y007370D03*
X006325Y007340D03*
X006315Y007330D03*
X006225Y007200D03*
X006205Y007170D03*
X006185Y007140D03*
X006155Y007100D03*
X006135Y007070D03*
X005815Y007370D03*
X005825Y007530D03*
X005595Y007590D03*
X005355Y007360D03*
X005205Y007360D03*
X005055Y007370D03*
X004675Y007590D03*
X004285Y007530D03*
X004285Y007480D03*
X003985Y007480D03*
X003985Y007530D03*
D22*
X006615Y007540D03*
X006615Y007550D03*
X006645Y007080D03*
D23*
X006650Y007090D03*
X006650Y007100D03*
D24*
X005590Y007090D03*
X005590Y007160D03*
X005360Y007400D03*
X005550Y007510D03*
X005640Y007500D03*
X005640Y007490D03*
X005240Y007110D03*
X005240Y007100D03*
X004730Y007470D03*
X004720Y007500D03*
X004630Y007510D03*
D25*
X004925Y007160D03*
X005145Y007090D03*
X005595Y007130D03*
D26*
X005280Y007300D03*
X005060Y007090D03*
X004930Y007090D03*
X005280Y007600D03*
D27*
X005590Y007560D03*
X005590Y007550D03*
X004670Y007550D03*
X006790Y007230D03*
X006800Y007110D03*
D28*
X005495Y007140D03*
X005235Y007150D03*
X004925Y007130D03*
X004765Y007140D03*
X004695Y007140D03*
D29*
X006530Y007240D03*
D30*
X006520Y007250D03*
D31*
X006520Y007260D03*
D32*
X006520Y007270D03*
D33*
X006515Y007280D03*
D34*
X006510Y007290D03*
D35*
X006525Y007300D03*
X006525Y007310D03*
X006535Y007320D03*
D36*
X005930Y007310D03*
X005930Y007460D03*
X005930Y007590D03*
X005280Y007560D03*
X005280Y007330D03*
X004380Y007430D03*
X004080Y007430D03*
D37*
X004675Y007530D03*
X004675Y007540D03*
X005285Y007590D03*
X005285Y007310D03*
X005595Y007540D03*
D38*
X005590Y007400D03*
X005590Y007390D03*
X005910Y007440D03*
X005910Y007540D03*
X005910Y007550D03*
X005910Y007560D03*
X005910Y007330D03*
X004980Y007330D03*
X004980Y007340D03*
X004980Y007350D03*
X004980Y007360D03*
X004980Y007320D03*
X004980Y007310D03*
X004980Y007540D03*
X004980Y007550D03*
X004980Y007560D03*
X004980Y007570D03*
X004980Y007580D03*
X004980Y007590D03*
X004360Y007540D03*
X004360Y007470D03*
D39*
X004370Y007440D03*
X004370Y007570D03*
X004070Y007570D03*
X004070Y007450D03*
X004990Y007450D03*
X004990Y007460D03*
X004990Y007470D03*
X004990Y007480D03*
X004990Y007440D03*
X004990Y007430D03*
X005280Y007350D03*
X005280Y007340D03*
X005280Y007550D03*
X005590Y007410D03*
X005920Y007450D03*
X005920Y007470D03*
X005920Y007580D03*
X005920Y007320D03*
D40*
X006445Y007460D03*
X005305Y007480D03*
X005255Y007440D03*
X005285Y007320D03*
D41*
X005595Y007380D03*
X005905Y007350D03*
X005905Y007340D03*
X005905Y007430D03*
X004675Y007390D03*
X004675Y007380D03*
X004675Y007370D03*
D42*
X004745Y007420D03*
X004745Y007430D03*
X004745Y007440D03*
X004735Y007450D03*
X004735Y007460D03*
X004725Y007480D03*
X004725Y007490D03*
X004715Y007510D03*
X004625Y007500D03*
X004625Y007490D03*
X004625Y007480D03*
X004615Y007470D03*
X004615Y007460D03*
X004615Y007450D03*
X004605Y007440D03*
X004605Y007430D03*
X004775Y007340D03*
X004275Y007500D03*
X004275Y007510D03*
X005195Y007380D03*
X005365Y007520D03*
X005365Y007530D03*
X005355Y007540D03*
X005205Y007530D03*
X005515Y007420D03*
X005525Y007430D03*
X005525Y007440D03*
X005525Y007450D03*
X005535Y007460D03*
X005535Y007470D03*
X005535Y007480D03*
X005545Y007490D03*
X005545Y007500D03*
X005635Y007510D03*
X005645Y007480D03*
X005645Y007470D03*
X005655Y007460D03*
X005655Y007450D03*
X005655Y007440D03*
X005665Y007430D03*
X005665Y007420D03*
X005825Y007500D03*
X005825Y007510D03*
X006805Y007380D03*
D43*
X005900Y007360D03*
X005590Y007360D03*
X005590Y007370D03*
D44*
X004675Y007360D03*
D45*
X004675Y007400D03*
X004675Y007410D03*
X004365Y007450D03*
X004365Y007460D03*
X004365Y007550D03*
X004365Y007560D03*
X004065Y007560D03*
X004065Y007550D03*
X004065Y007540D03*
X004065Y007470D03*
X004065Y007460D03*
X005915Y007480D03*
X005915Y007570D03*
D46*
X005345Y007500D03*
X005215Y007420D03*
X004675Y007560D03*
X004675Y007570D03*
X006785Y007500D03*
D47*
X006440Y007450D03*
X006440Y007440D03*
X005290Y007470D03*
X004390Y007420D03*
X004090Y007420D03*
D48*
X004085Y007590D03*
X004385Y007590D03*
X005265Y007450D03*
X005275Y007460D03*
X005285Y007570D03*
X006435Y007430D03*
D49*
X006455Y007490D03*
X005235Y007430D03*
X004675Y007520D03*
D50*
X004375Y007580D03*
X004075Y007580D03*
X004075Y007440D03*
D51*
X005280Y007580D03*
X006450Y007480D03*
X006450Y007470D03*
D52*
X006460Y007500D03*
X005590Y007520D03*
X005590Y007530D03*
X005320Y007490D03*
D53*
X006610Y007510D03*
D54*
X006615Y007520D03*
D55*
X006615Y007530D03*
D56*
X006615Y007570D03*
D57*
X006605Y007580D03*
D58*
X006600Y007590D03*
D59*
X006590Y007600D03*
D60*
X010074Y002616D02*
X010074Y001293D01*
X010971Y001293D01*
X010971Y002616D01*
X010074Y002616D01*
D61*
X000680Y004317D02*
X000682Y004442D01*
X000688Y004567D01*
X000698Y004691D01*
X000712Y004815D01*
X000729Y004939D01*
X000751Y005062D01*
X000777Y005184D01*
X000806Y005306D01*
X000839Y005426D01*
X000877Y005545D01*
X000917Y005664D01*
X000962Y005780D01*
X001010Y005895D01*
X001062Y006009D01*
X001118Y006121D01*
X001177Y006231D01*
X001239Y006339D01*
X001305Y006446D01*
X001374Y006550D01*
X001447Y006651D01*
X001522Y006751D01*
X001601Y006848D01*
X001683Y006942D01*
X001768Y007034D01*
X001855Y007123D01*
X001946Y007209D01*
X002039Y007292D01*
X002135Y007373D01*
X002233Y007450D01*
X002333Y007524D01*
X002436Y007595D01*
X002541Y007662D01*
X002649Y007727D01*
X002758Y007787D01*
X002869Y007845D01*
X002982Y007898D01*
X003096Y007948D01*
X003212Y007995D01*
X003329Y008037D01*
X003448Y008076D01*
X003568Y008112D01*
X003689Y008143D01*
X003811Y008171D01*
X003933Y008194D01*
X004057Y008214D01*
X004181Y008230D01*
X004305Y008242D01*
X004430Y008250D01*
X004555Y008254D01*
X004679Y008254D01*
X004804Y008250D01*
X004929Y008242D01*
X005053Y008230D01*
X005177Y008214D01*
X005301Y008194D01*
X005423Y008171D01*
X005545Y008143D01*
X005666Y008112D01*
X005786Y008076D01*
X005905Y008037D01*
X006022Y007995D01*
X006138Y007948D01*
X006252Y007898D01*
X006365Y007845D01*
X006476Y007787D01*
X006586Y007727D01*
X006693Y007662D01*
X006798Y007595D01*
X006901Y007524D01*
X007001Y007450D01*
X007099Y007373D01*
X007195Y007292D01*
X007288Y007209D01*
X007379Y007123D01*
X007466Y007034D01*
X007551Y006942D01*
X007633Y006848D01*
X007712Y006751D01*
X007787Y006651D01*
X007860Y006550D01*
X007929Y006446D01*
X007995Y006339D01*
X008057Y006231D01*
X008116Y006121D01*
X008172Y006009D01*
X008224Y005895D01*
X008272Y005780D01*
X008317Y005664D01*
X008357Y005545D01*
X008395Y005426D01*
X008428Y005306D01*
X008457Y005184D01*
X008483Y005062D01*
X008505Y004939D01*
X008522Y004815D01*
X008536Y004691D01*
X008546Y004567D01*
X008552Y004442D01*
X008554Y004317D01*
X008552Y004192D01*
X008546Y004067D01*
X008536Y003943D01*
X008522Y003819D01*
X008505Y003695D01*
X008483Y003572D01*
X008457Y003450D01*
X008428Y003328D01*
X008395Y003208D01*
X008357Y003089D01*
X008317Y002970D01*
X008272Y002854D01*
X008224Y002739D01*
X008172Y002625D01*
X008116Y002513D01*
X008057Y002403D01*
X007995Y002295D01*
X007929Y002188D01*
X007860Y002084D01*
X007787Y001983D01*
X007712Y001883D01*
X007633Y001786D01*
X007551Y001692D01*
X007466Y001600D01*
X007379Y001511D01*
X007288Y001425D01*
X007195Y001342D01*
X007099Y001261D01*
X007001Y001184D01*
X006901Y001110D01*
X006798Y001039D01*
X006693Y000972D01*
X006585Y000907D01*
X006476Y000847D01*
X006365Y000789D01*
X006252Y000736D01*
X006138Y000686D01*
X006022Y000639D01*
X005905Y000597D01*
X005786Y000558D01*
X005666Y000522D01*
X005545Y000491D01*
X005423Y000463D01*
X005301Y000440D01*
X005177Y000420D01*
X005053Y000404D01*
X004929Y000392D01*
X004804Y000384D01*
X004679Y000380D01*
X004555Y000380D01*
X004430Y000384D01*
X004305Y000392D01*
X004181Y000404D01*
X004057Y000420D01*
X003933Y000440D01*
X003811Y000463D01*
X003689Y000491D01*
X003568Y000522D01*
X003448Y000558D01*
X003329Y000597D01*
X003212Y000639D01*
X003096Y000686D01*
X002982Y000736D01*
X002869Y000789D01*
X002758Y000847D01*
X002648Y000907D01*
X002541Y000972D01*
X002436Y001039D01*
X002333Y001110D01*
X002233Y001184D01*
X002135Y001261D01*
X002039Y001342D01*
X001946Y001425D01*
X001855Y001511D01*
X001768Y001600D01*
X001683Y001692D01*
X001601Y001786D01*
X001522Y001883D01*
X001447Y001983D01*
X001374Y002084D01*
X001305Y002188D01*
X001239Y002295D01*
X001177Y002403D01*
X001118Y002513D01*
X001062Y002625D01*
X001010Y002739D01*
X000962Y002854D01*
X000917Y002970D01*
X000877Y003089D01*
X000839Y003208D01*
X000806Y003328D01*
X000777Y003450D01*
X000751Y003572D01*
X000729Y003695D01*
X000712Y003819D01*
X000698Y003943D01*
X000688Y004067D01*
X000682Y004192D01*
X000680Y004317D01*
D62*
X000837Y007526D03*
X001310Y007526D03*
X011861Y007526D03*
X012334Y007526D03*
D63*
X012097Y007526D03*
X001074Y007526D03*
M02*
