G75*
%MOIN*%
%OFA0B0*%
%FSLAX24Y24*%
%IPPOS*%
%LPD*%
%AMOC8*
5,1,8,0,0,1.08239X$1,22.5*
%
%ADD10C,0.0000*%
%ADD11R,0.0787X0.0157*%
%ADD12C,0.0591*%
%ADD13C,0.0236*%
%ADD14R,0.0472X0.0472*%
%ADD15C,0.0240*%
%ADD16C,0.0160*%
%ADD17C,0.0080*%
%ADD18C,0.0280*%
D10*
X000680Y000380D02*
X000680Y008254D01*
X012491Y008254D01*
X012491Y000380D01*
X000680Y000380D01*
D11*
X010523Y001482D03*
X010523Y001797D03*
X010523Y002112D03*
X010523Y002427D03*
D12*
X004912Y004022D02*
X004322Y004022D01*
X004322Y004612D01*
X004912Y004612D01*
X004912Y004022D01*
X004912Y004612D02*
X004322Y004612D01*
D13*
X009154Y003648D02*
X010492Y003648D01*
X009154Y003648D02*
X009154Y004986D01*
X010492Y004986D01*
X010492Y003648D01*
X010492Y003883D02*
X009154Y003883D01*
X009154Y004118D02*
X010492Y004118D01*
X010492Y004353D02*
X009154Y004353D01*
X009154Y004588D02*
X010492Y004588D01*
X010492Y004823D02*
X009154Y004823D01*
D14*
X012097Y007053D03*
X012097Y007880D03*
X001074Y007880D03*
X001074Y007053D03*
D15*
X001520Y006080D03*
X002060Y005600D03*
X002120Y005240D03*
X002480Y004760D03*
X002960Y004700D03*
X003800Y004760D03*
X002840Y006080D03*
X002720Y006620D03*
X002480Y006860D03*
X001280Y005120D03*
X001040Y003140D03*
X001400Y002780D03*
X002180Y002600D03*
X002720Y002960D03*
X003140Y002600D03*
X003620Y002780D03*
X004640Y003200D03*
X005480Y003140D03*
X005600Y002660D03*
X005240Y002240D03*
X004280Y001760D03*
X004340Y001040D03*
X005300Y000680D03*
X006020Y001400D03*
X006440Y001640D03*
X006800Y001760D03*
X007700Y002180D03*
X007880Y001700D03*
X008780Y001040D03*
X009140Y001340D03*
X008360Y002660D03*
X009020Y003260D03*
X008540Y003740D03*
X008240Y003980D03*
X008840Y004220D03*
X007940Y004700D03*
X007520Y004520D03*
X007100Y004460D03*
X007400Y005300D03*
X008000Y005300D03*
X008480Y005300D03*
X010340Y005660D03*
X010760Y005960D03*
X011240Y005540D03*
X010820Y005360D03*
X011900Y006260D03*
X011660Y006620D03*
X010940Y006620D03*
X010880Y007340D03*
X010820Y008000D03*
X009860Y007940D03*
X006020Y008000D03*
X005840Y004100D03*
X010220Y003080D03*
X011060Y003080D03*
X011300Y001640D03*
X001580Y000740D03*
D16*
X003140Y002600D02*
X002600Y003140D01*
X001040Y003140D01*
X002300Y003860D02*
X002780Y003860D01*
X003620Y003020D01*
X003620Y002780D01*
X003800Y002780D01*
X004640Y001940D01*
X004760Y001940D01*
X004940Y001760D01*
X005240Y001760D01*
X005420Y001580D01*
X005420Y001280D01*
X005690Y001010D01*
X005780Y000920D01*
X008660Y000920D01*
X008780Y001040D01*
X009020Y000800D01*
X011660Y000800D01*
X012260Y001400D01*
X012260Y006620D01*
X012097Y006783D01*
X012097Y007053D01*
X011143Y004317D02*
X009823Y004317D01*
X011143Y004317D02*
X011420Y004040D01*
X011420Y001760D01*
X011300Y001640D01*
X011142Y001482D01*
X010523Y001482D01*
X011180Y001520D02*
X011300Y001640D01*
X005360Y003980D02*
X004617Y003980D01*
X004617Y004317D01*
X003823Y004317D01*
X002780Y005360D01*
X002780Y006020D01*
X002840Y006080D01*
X003020Y006260D01*
X003020Y007497D01*
X003320Y007797D01*
X001074Y007053D02*
X001074Y005394D01*
X000980Y005300D01*
X000980Y005000D01*
X001520Y004460D01*
X001700Y004460D01*
X002300Y003860D01*
D17*
X002097Y003724D02*
X002164Y003657D01*
X002252Y003620D01*
X002681Y003620D01*
X003377Y002924D01*
X003340Y002836D01*
X003340Y002724D01*
X003383Y002621D01*
X003461Y002543D01*
X003564Y002500D01*
X003676Y002500D01*
X003722Y002519D01*
X004208Y002033D01*
X004121Y001997D01*
X004084Y001960D01*
X003103Y001960D01*
X002460Y002603D01*
X002460Y002656D01*
X002417Y002759D01*
X002339Y002837D01*
X002236Y002880D01*
X002124Y002880D01*
X002021Y002837D01*
X001943Y002759D01*
X001900Y002656D01*
X001900Y002544D01*
X001943Y002441D01*
X002021Y002363D01*
X002124Y002320D01*
X002177Y002320D01*
X002937Y001560D01*
X004084Y001560D01*
X004121Y001523D01*
X004224Y001480D01*
X004336Y001480D01*
X004439Y001523D01*
X004517Y001601D01*
X004560Y001704D01*
X004560Y001713D01*
X004592Y001700D01*
X004661Y001700D01*
X004737Y001624D01*
X004804Y001557D01*
X004892Y001520D01*
X005141Y001520D01*
X005180Y001481D01*
X005180Y001240D01*
X004536Y001240D01*
X004499Y001277D01*
X004396Y001320D01*
X004284Y001320D01*
X004181Y001277D01*
X004103Y001199D01*
X004060Y001096D01*
X004060Y000984D01*
X004103Y000881D01*
X004181Y000803D01*
X004284Y000760D01*
X004396Y000760D01*
X004499Y000803D01*
X004536Y000840D01*
X005521Y000840D01*
X005577Y000784D01*
X005644Y000717D01*
X005732Y000680D01*
X008708Y000680D01*
X008773Y000707D01*
X008884Y000597D01*
X008972Y000560D01*
X011708Y000560D01*
X011796Y000597D01*
X011863Y000664D01*
X012331Y001132D01*
X012331Y000540D01*
X000840Y000540D01*
X000840Y004801D01*
X001317Y004324D01*
X001384Y004257D01*
X001472Y004220D01*
X001601Y004220D01*
X002097Y003724D01*
X002065Y003756D02*
X000840Y003756D01*
X000840Y003834D02*
X001987Y003834D01*
X001908Y003913D02*
X000840Y003913D01*
X000840Y003991D02*
X001830Y003991D01*
X001751Y004070D02*
X000840Y004070D01*
X000840Y004148D02*
X001673Y004148D01*
X001457Y004227D02*
X000840Y004227D01*
X000840Y004305D02*
X001336Y004305D01*
X001257Y004384D02*
X000840Y004384D01*
X000840Y004462D02*
X001179Y004462D01*
X001100Y004541D02*
X000840Y004541D01*
X000840Y004619D02*
X001022Y004619D01*
X000943Y004698D02*
X000840Y004698D01*
X000840Y004776D02*
X000865Y004776D01*
X001280Y005120D02*
X001400Y005120D01*
X002420Y004100D01*
X002840Y004100D01*
X004760Y002180D01*
X004880Y002180D01*
X005060Y002000D01*
X005540Y002000D01*
X005720Y001820D01*
X005720Y001340D01*
X005900Y001160D01*
X006140Y001160D01*
X006380Y001400D01*
X006380Y001580D01*
X006440Y001640D01*
X006800Y001580D02*
X006800Y001760D01*
X006800Y001580D02*
X007220Y001160D01*
X008480Y001160D01*
X008780Y001460D01*
X009020Y001460D01*
X009140Y001340D01*
X009440Y001280D02*
X009440Y001640D01*
X009020Y002060D01*
X008720Y002060D01*
X008120Y001460D01*
X007700Y001460D01*
X007100Y002060D01*
X006380Y002060D01*
X006020Y001700D01*
X006020Y001400D01*
X005660Y001040D02*
X005690Y001010D01*
X005660Y001040D02*
X004340Y001040D01*
X004083Y000930D02*
X000840Y000930D01*
X000840Y001008D02*
X004060Y001008D01*
X004060Y001087D02*
X000840Y001087D01*
X000840Y001165D02*
X004089Y001165D01*
X004148Y001244D02*
X000840Y001244D01*
X000840Y001322D02*
X005180Y001322D01*
X005180Y001244D02*
X004532Y001244D01*
X004473Y001558D02*
X004803Y001558D01*
X004737Y001624D02*
X004737Y001624D01*
X004725Y001636D02*
X004532Y001636D01*
X004280Y001760D02*
X003020Y001760D01*
X002180Y002600D01*
X001919Y002500D02*
X000840Y002500D01*
X000840Y002578D02*
X001900Y002578D01*
X001900Y002657D02*
X000840Y002657D01*
X000840Y002735D02*
X001933Y002735D01*
X001998Y002814D02*
X000840Y002814D01*
X000840Y002892D02*
X003363Y002892D01*
X003340Y002814D02*
X002362Y002814D01*
X002427Y002735D02*
X003340Y002735D01*
X003368Y002657D02*
X002460Y002657D01*
X002485Y002578D02*
X003426Y002578D01*
X003741Y002500D02*
X002563Y002500D01*
X002642Y002421D02*
X003820Y002421D01*
X003898Y002343D02*
X002720Y002343D01*
X002799Y002264D02*
X003977Y002264D01*
X004055Y002186D02*
X002877Y002186D01*
X002956Y002107D02*
X004134Y002107D01*
X004197Y002029D02*
X003034Y002029D01*
X002783Y001715D02*
X000840Y001715D01*
X000840Y001793D02*
X002704Y001793D01*
X002626Y001872D02*
X000840Y001872D01*
X000840Y001950D02*
X002547Y001950D01*
X002469Y002029D02*
X000840Y002029D01*
X000840Y002107D02*
X002390Y002107D01*
X002312Y002186D02*
X000840Y002186D01*
X000840Y002264D02*
X002233Y002264D01*
X002070Y002343D02*
X000840Y002343D01*
X000840Y002421D02*
X001963Y002421D01*
X002861Y001636D02*
X000840Y001636D01*
X000840Y001558D02*
X004087Y001558D01*
X004133Y000851D02*
X000840Y000851D01*
X000840Y000773D02*
X004254Y000773D01*
X004426Y000773D02*
X005588Y000773D01*
X005698Y000694D02*
X000840Y000694D01*
X000840Y000616D02*
X008865Y000616D01*
X008787Y000694D02*
X008742Y000694D01*
X009440Y001280D02*
X009680Y001040D01*
X011540Y001040D01*
X011840Y001340D01*
X011840Y006200D01*
X011900Y006260D01*
X011460Y006268D02*
X010735Y006268D01*
X010763Y006240D02*
X010003Y007000D01*
X008217Y007000D01*
X008100Y006883D01*
X007800Y006583D01*
X007800Y005496D01*
X007763Y005459D01*
X007720Y005356D01*
X007720Y005244D01*
X007763Y005141D01*
X007764Y005140D01*
X007737Y005140D01*
X007557Y004960D01*
X007440Y004843D01*
X007440Y004790D01*
X007361Y004757D01*
X007300Y004696D01*
X007300Y005038D01*
X007344Y005020D01*
X007456Y005020D01*
X007559Y005063D01*
X007637Y005141D01*
X007680Y005244D01*
X007680Y005356D01*
X007637Y005459D01*
X007600Y005496D01*
X007600Y007497D01*
X007783Y007680D01*
X009756Y007680D01*
X009804Y007660D01*
X009916Y007660D01*
X010019Y007703D01*
X010097Y007781D01*
X010140Y007884D01*
X010140Y007996D01*
X010099Y008094D01*
X011701Y008094D01*
X011701Y008080D01*
X011697Y008080D01*
X011580Y007963D01*
X011460Y007843D01*
X011460Y006816D01*
X011423Y006779D01*
X011380Y006676D01*
X011380Y006564D01*
X011423Y006461D01*
X011460Y006424D01*
X011460Y004339D01*
X011279Y004520D01*
X011191Y004557D01*
X010771Y004557D01*
X010771Y005042D01*
X010728Y005144D01*
X010650Y005222D01*
X010548Y005264D01*
X009099Y005264D01*
X008996Y005222D01*
X008918Y005144D01*
X008876Y005042D01*
X008876Y004500D01*
X008843Y004500D01*
X008523Y004820D01*
X008560Y004857D01*
X008680Y004977D01*
X008680Y005104D01*
X008717Y005141D01*
X008760Y005244D01*
X008760Y005356D01*
X008717Y005459D01*
X008639Y005537D01*
X008536Y005580D01*
X008424Y005580D01*
X008321Y005537D01*
X008243Y005459D01*
X008240Y005452D01*
X008237Y005459D01*
X008200Y005496D01*
X008200Y006417D01*
X008383Y006600D01*
X009837Y006600D01*
X010480Y005957D01*
X010480Y005904D01*
X010523Y005801D01*
X010601Y005723D01*
X010704Y005680D01*
X010816Y005680D01*
X010919Y005723D01*
X010997Y005801D01*
X011040Y005904D01*
X011040Y006016D01*
X010997Y006119D01*
X010919Y006197D01*
X010816Y006240D01*
X010763Y006240D01*
X010657Y006346D02*
X011460Y006346D01*
X011460Y006425D02*
X010578Y006425D01*
X010500Y006503D02*
X011405Y006503D01*
X011380Y006582D02*
X010421Y006582D01*
X010343Y006660D02*
X011380Y006660D01*
X011406Y006739D02*
X010264Y006739D01*
X010186Y006817D02*
X011460Y006817D01*
X011460Y006896D02*
X010107Y006896D01*
X010029Y006974D02*
X011460Y006974D01*
X011460Y007053D02*
X007600Y007053D01*
X007600Y007131D02*
X011460Y007131D01*
X011460Y007210D02*
X007600Y007210D01*
X007600Y007288D02*
X011460Y007288D01*
X011460Y007367D02*
X007600Y007367D01*
X007600Y007445D02*
X011460Y007445D01*
X011460Y007524D02*
X007626Y007524D01*
X007705Y007602D02*
X011460Y007602D01*
X011460Y007681D02*
X009965Y007681D01*
X010075Y007759D02*
X011460Y007759D01*
X011460Y007838D02*
X010121Y007838D01*
X010140Y007916D02*
X011533Y007916D01*
X011612Y007995D02*
X010140Y007995D01*
X010108Y008073D02*
X011690Y008073D01*
X011780Y007880D02*
X012097Y007880D01*
X011780Y007880D02*
X011660Y007760D01*
X011660Y006620D01*
X011660Y001400D01*
X011480Y001220D01*
X009740Y001220D01*
X009620Y001340D01*
X009620Y001700D01*
X008960Y002360D01*
X008420Y002360D01*
X008000Y001940D01*
X007520Y001940D01*
X007220Y002240D01*
X005240Y002240D01*
X005436Y002440D02*
X005399Y002477D01*
X005296Y002520D01*
X005184Y002520D01*
X005081Y002477D01*
X005003Y002399D01*
X004986Y002357D01*
X004963Y002380D01*
X004843Y002380D01*
X004463Y002760D01*
X005023Y002760D01*
X005140Y002877D01*
X005203Y002940D01*
X005284Y002940D01*
X005321Y002903D01*
X005424Y002860D01*
X005536Y002860D01*
X005639Y002903D01*
X005717Y002981D01*
X005760Y003084D01*
X005760Y003196D01*
X005717Y003299D01*
X005656Y003360D01*
X006523Y003360D01*
X007183Y004020D01*
X007303Y004020D01*
X007523Y004240D01*
X007576Y004240D01*
X007679Y004283D01*
X007757Y004361D01*
X007797Y004456D01*
X007884Y004420D01*
X007996Y004420D01*
X008099Y004463D01*
X008136Y004500D01*
X008277Y004500D01*
X008560Y004217D01*
X008560Y004164D01*
X008603Y004061D01*
X008678Y003986D01*
X008596Y004020D01*
X008520Y004020D01*
X008520Y004036D01*
X008477Y004139D01*
X008399Y004217D01*
X008296Y004260D01*
X008184Y004260D01*
X008081Y004217D01*
X008003Y004139D01*
X007960Y004036D01*
X007960Y003983D01*
X007920Y003943D01*
X007920Y003357D01*
X008037Y003240D01*
X008717Y002560D01*
X008337Y002560D01*
X008220Y002443D01*
X007917Y002140D01*
X007603Y002140D01*
X007303Y002440D01*
X005436Y002440D01*
X005345Y002500D02*
X008277Y002500D01*
X008180Y002480D02*
X008000Y002480D01*
X007700Y002180D01*
X007557Y002186D02*
X007963Y002186D01*
X008041Y002264D02*
X007479Y002264D01*
X007400Y002343D02*
X008120Y002343D01*
X008198Y002421D02*
X007322Y002421D01*
X008136Y001793D02*
X008170Y001793D01*
X008214Y001872D02*
X008249Y001872D01*
X008293Y001950D02*
X008327Y001950D01*
X008371Y002029D02*
X008406Y002029D01*
X008450Y002107D02*
X008484Y002107D01*
X008503Y002160D02*
X008537Y002160D01*
X008037Y001660D01*
X007783Y001660D01*
X007703Y001740D01*
X007917Y001740D01*
X008083Y001740D01*
X008503Y002160D01*
X008180Y002480D02*
X008360Y002660D01*
X008464Y002814D02*
X005076Y002814D01*
X005155Y002892D02*
X005347Y002892D01*
X005613Y002892D02*
X008385Y002892D01*
X008307Y002971D02*
X005706Y002971D01*
X005745Y003049D02*
X008228Y003049D01*
X008150Y003128D02*
X005760Y003128D01*
X005756Y003206D02*
X008071Y003206D01*
X007993Y003285D02*
X005723Y003285D01*
X005480Y003140D02*
X005120Y003140D01*
X004940Y002960D01*
X004220Y002960D01*
X002900Y004280D01*
X002480Y004280D01*
X001520Y005240D01*
X001520Y005900D01*
X001520Y006080D01*
X001520Y007700D01*
X001400Y007820D01*
X001134Y007820D01*
X001074Y007880D01*
X001470Y008020D02*
X001470Y008094D01*
X009621Y008094D01*
X009615Y008080D01*
X007617Y008080D01*
X007500Y007963D01*
X007200Y007663D01*
X007200Y005496D01*
X007163Y005459D01*
X007120Y005356D01*
X007120Y005263D01*
X005983Y006400D01*
X004677Y006400D01*
X004560Y006283D01*
X004560Y006283D01*
X003717Y005440D01*
X003600Y005323D01*
X003600Y004956D01*
X003563Y004919D01*
X003520Y004816D01*
X003520Y004704D01*
X003563Y004601D01*
X003641Y004523D01*
X003744Y004480D01*
X003856Y004480D01*
X003886Y004493D01*
X003886Y004357D01*
X004577Y004357D01*
X004577Y004277D01*
X004577Y003760D01*
X004657Y003760D01*
X004657Y004277D01*
X004577Y004277D01*
X003886Y004277D01*
X003886Y004056D01*
X003520Y004423D01*
X003520Y004543D01*
X003403Y004660D01*
X003163Y004900D01*
X003156Y004900D01*
X003119Y004937D01*
X003016Y004980D01*
X002904Y004980D01*
X002801Y004937D01*
X002736Y004872D01*
X002717Y004919D01*
X002639Y004997D01*
X002536Y005040D01*
X002424Y005040D01*
X002321Y004997D01*
X002243Y004919D01*
X002208Y004835D01*
X002083Y004960D01*
X002176Y004960D01*
X002279Y005003D01*
X002357Y005081D01*
X002395Y005172D01*
X002500Y005277D01*
X002500Y006297D01*
X002578Y006376D01*
X002664Y006340D01*
X002776Y006340D01*
X002879Y006383D01*
X002957Y006461D01*
X003000Y006564D01*
X003000Y006676D01*
X002957Y006779D01*
X002879Y006857D01*
X002776Y006900D01*
X002760Y006900D01*
X002760Y006916D01*
X002717Y007019D01*
X002639Y007097D01*
X002536Y007140D01*
X002424Y007140D01*
X002321Y007097D01*
X002243Y007019D01*
X002200Y006916D01*
X002200Y006863D01*
X001860Y006523D01*
X001860Y005796D01*
X001823Y005759D01*
X001780Y005656D01*
X001780Y005544D01*
X001823Y005441D01*
X001878Y005386D01*
X001840Y005296D01*
X001840Y005203D01*
X001720Y005323D01*
X001720Y005884D01*
X001757Y005921D01*
X001800Y006024D01*
X001800Y006136D01*
X001757Y006239D01*
X001720Y006276D01*
X001720Y007783D01*
X001600Y007903D01*
X001483Y008020D01*
X001470Y008020D01*
X001508Y007995D02*
X007532Y007995D01*
X007610Y008073D02*
X001470Y008073D01*
X001587Y007916D02*
X007453Y007916D01*
X007375Y007838D02*
X001665Y007838D01*
X001720Y007759D02*
X007296Y007759D01*
X007218Y007681D02*
X001720Y007681D01*
X001720Y007602D02*
X007200Y007602D01*
X007200Y007524D02*
X001720Y007524D01*
X001720Y007445D02*
X007200Y007445D01*
X007200Y007367D02*
X001720Y007367D01*
X001720Y007288D02*
X007200Y007288D01*
X007200Y007210D02*
X001720Y007210D01*
X001720Y007131D02*
X002403Y007131D01*
X002277Y007053D02*
X001720Y007053D01*
X001720Y006974D02*
X002224Y006974D01*
X002200Y006896D02*
X001720Y006896D01*
X001720Y006817D02*
X002154Y006817D01*
X002076Y006739D02*
X001720Y006739D01*
X001720Y006660D02*
X001997Y006660D01*
X001919Y006582D02*
X001720Y006582D01*
X001720Y006503D02*
X001860Y006503D01*
X001860Y006425D02*
X001720Y006425D01*
X001720Y006346D02*
X001860Y006346D01*
X001860Y006268D02*
X001728Y006268D01*
X001778Y006189D02*
X001860Y006189D01*
X001860Y006111D02*
X001800Y006111D01*
X001800Y006032D02*
X001860Y006032D01*
X001860Y005954D02*
X001771Y005954D01*
X001720Y005875D02*
X001860Y005875D01*
X001860Y005797D02*
X001720Y005797D01*
X001720Y005718D02*
X001806Y005718D01*
X001780Y005640D02*
X001720Y005640D01*
X001720Y005561D02*
X001780Y005561D01*
X001806Y005483D02*
X001720Y005483D01*
X001720Y005404D02*
X001860Y005404D01*
X001852Y005326D02*
X001720Y005326D01*
X001796Y005247D02*
X001840Y005247D01*
X002120Y005240D02*
X002180Y005240D01*
X002300Y005360D01*
X002300Y006380D01*
X002540Y006620D01*
X002720Y006620D01*
X002975Y006503D02*
X007200Y006503D01*
X007200Y006425D02*
X002920Y006425D01*
X002790Y006346D02*
X004623Y006346D01*
X004545Y006268D02*
X002500Y006268D01*
X002500Y006189D02*
X004466Y006189D01*
X004388Y006111D02*
X002500Y006111D01*
X002500Y006032D02*
X004309Y006032D01*
X004231Y005954D02*
X002500Y005954D01*
X002500Y005875D02*
X004152Y005875D01*
X004074Y005797D02*
X002500Y005797D01*
X002500Y005718D02*
X003995Y005718D01*
X003917Y005640D02*
X002500Y005640D01*
X002500Y005561D02*
X003838Y005561D01*
X003760Y005483D02*
X002500Y005483D01*
X002500Y005404D02*
X003681Y005404D01*
X003717Y005440D02*
X003717Y005440D01*
X003603Y005326D02*
X002500Y005326D01*
X002470Y005247D02*
X003600Y005247D01*
X003600Y005169D02*
X002393Y005169D01*
X002361Y005090D02*
X003600Y005090D01*
X003600Y005012D02*
X002604Y005012D01*
X002703Y004933D02*
X002797Y004933D01*
X002960Y004700D02*
X003080Y004700D01*
X003320Y004460D01*
X003320Y004340D01*
X004100Y003560D01*
X006440Y003560D01*
X007100Y004220D01*
X007220Y004220D01*
X007520Y004520D01*
X007640Y004640D01*
X007640Y004760D01*
X007820Y004940D01*
X008360Y004940D01*
X008480Y005060D01*
X008480Y005300D01*
X008740Y005404D02*
X011460Y005404D01*
X011460Y005326D02*
X008760Y005326D01*
X008760Y005247D02*
X009057Y005247D01*
X008943Y005169D02*
X008729Y005169D01*
X008680Y005090D02*
X008896Y005090D01*
X008876Y005012D02*
X008680Y005012D01*
X008636Y004933D02*
X008876Y004933D01*
X008876Y004855D02*
X008557Y004855D01*
X008567Y004776D02*
X008876Y004776D01*
X008876Y004698D02*
X008645Y004698D01*
X008724Y004619D02*
X008876Y004619D01*
X008876Y004541D02*
X008802Y004541D01*
X008551Y004227D02*
X008377Y004227D01*
X008468Y004148D02*
X008567Y004148D01*
X008599Y004070D02*
X008506Y004070D01*
X008666Y003991D02*
X008673Y003991D01*
X008840Y004220D02*
X008360Y004700D01*
X007940Y004700D01*
X008097Y004462D02*
X008315Y004462D01*
X008394Y004384D02*
X007767Y004384D01*
X007701Y004305D02*
X008472Y004305D01*
X008103Y004227D02*
X007509Y004227D01*
X007431Y004148D02*
X008012Y004148D01*
X007974Y004070D02*
X007352Y004070D01*
X007154Y003991D02*
X007960Y003991D01*
X007920Y003913D02*
X007075Y003913D01*
X006997Y003834D02*
X007920Y003834D01*
X007920Y003756D02*
X006918Y003756D01*
X006840Y003677D02*
X007920Y003677D01*
X007920Y003599D02*
X006761Y003599D01*
X006683Y003520D02*
X007920Y003520D01*
X007920Y003442D02*
X006604Y003442D01*
X006526Y003363D02*
X007920Y003363D01*
X008120Y003440D02*
X008120Y003860D01*
X008240Y003980D01*
X008360Y003740D02*
X008540Y003740D01*
X008360Y003740D02*
X008300Y003680D01*
X008300Y003500D01*
X009688Y002112D01*
X010523Y002112D01*
X010523Y001797D02*
X009763Y001797D01*
X008120Y003440D01*
X008542Y002735D02*
X004488Y002735D01*
X004566Y002657D02*
X008621Y002657D01*
X008699Y002578D02*
X004645Y002578D01*
X004723Y002500D02*
X005135Y002500D01*
X005025Y002421D02*
X004802Y002421D01*
X004640Y003200D02*
X004460Y003380D01*
X004040Y003380D01*
X002960Y004460D01*
X002780Y004460D01*
X002480Y004760D01*
X002216Y004855D02*
X002188Y004855D01*
X002257Y004933D02*
X002110Y004933D01*
X002287Y005012D02*
X002356Y005012D01*
X002060Y005600D02*
X002060Y006440D01*
X002480Y006860D01*
X002736Y006974D02*
X007200Y006974D01*
X007200Y006896D02*
X002787Y006896D01*
X002919Y006817D02*
X007200Y006817D01*
X007200Y006739D02*
X002974Y006739D01*
X003000Y006660D02*
X007200Y006660D01*
X007200Y006582D02*
X003000Y006582D01*
X002650Y006346D02*
X002549Y006346D01*
X002683Y007053D02*
X007200Y007053D01*
X007200Y007131D02*
X002557Y007131D01*
X004482Y005640D02*
X006178Y005640D01*
X006099Y005718D02*
X004561Y005718D01*
X004639Y005797D02*
X006021Y005797D01*
X005942Y005875D02*
X004718Y005875D01*
X004796Y005954D02*
X005864Y005954D01*
X005817Y006000D02*
X006900Y004917D01*
X006900Y004656D01*
X006863Y004619D01*
X005348Y004619D01*
X005348Y004647D02*
X005337Y004714D01*
X005316Y004779D01*
X005285Y004840D01*
X005244Y004896D01*
X005196Y004944D01*
X005140Y004985D01*
X005079Y005016D01*
X005014Y005037D01*
X004947Y005048D01*
X004657Y005048D01*
X004657Y004357D01*
X004577Y004357D01*
X004577Y005048D01*
X004287Y005048D01*
X004220Y005037D01*
X004155Y005016D01*
X004094Y004985D01*
X004038Y004944D01*
X004025Y004931D01*
X004000Y004956D01*
X004000Y005157D01*
X004843Y006000D01*
X005817Y006000D01*
X005900Y006200D02*
X007100Y005000D01*
X007100Y004460D01*
X006863Y004619D02*
X006820Y004516D01*
X006820Y004404D01*
X006863Y004301D01*
X006881Y004283D01*
X006357Y003760D01*
X005260Y003760D01*
X005285Y003794D01*
X005316Y003855D01*
X005337Y003920D01*
X005348Y003987D01*
X005348Y004277D01*
X004657Y004277D01*
X004657Y004357D01*
X005348Y004357D01*
X005348Y004647D01*
X005339Y004698D02*
X006900Y004698D01*
X006900Y004776D02*
X005317Y004776D01*
X005274Y004855D02*
X006900Y004855D01*
X006884Y004933D02*
X005207Y004933D01*
X005088Y005012D02*
X006806Y005012D01*
X006727Y005090D02*
X004000Y005090D01*
X004000Y005012D02*
X004146Y005012D01*
X004027Y004933D02*
X004023Y004933D01*
X003800Y004760D02*
X003800Y005240D01*
X004760Y006200D01*
X005900Y006200D01*
X006037Y006346D02*
X007200Y006346D01*
X007200Y006268D02*
X006115Y006268D01*
X006194Y006189D02*
X007200Y006189D01*
X007200Y006111D02*
X006272Y006111D01*
X006351Y006032D02*
X007200Y006032D01*
X007200Y005954D02*
X006429Y005954D01*
X006508Y005875D02*
X007200Y005875D01*
X007200Y005797D02*
X006586Y005797D01*
X006665Y005718D02*
X007200Y005718D01*
X007200Y005640D02*
X006743Y005640D01*
X006822Y005561D02*
X007200Y005561D01*
X007187Y005483D02*
X006900Y005483D01*
X006979Y005404D02*
X007140Y005404D01*
X007120Y005326D02*
X007057Y005326D01*
X007400Y005300D02*
X007400Y007580D01*
X007700Y007880D01*
X009800Y007880D01*
X009860Y007940D01*
X009920Y006800D02*
X008300Y006800D01*
X008000Y006500D01*
X008000Y005300D01*
X007740Y005404D02*
X007660Y005404D01*
X007680Y005326D02*
X007720Y005326D01*
X007720Y005247D02*
X007680Y005247D01*
X007649Y005169D02*
X007751Y005169D01*
X007687Y005090D02*
X007586Y005090D01*
X007609Y005012D02*
X007300Y005012D01*
X007300Y004933D02*
X007530Y004933D01*
X007452Y004855D02*
X007300Y004855D01*
X007300Y004776D02*
X007406Y004776D01*
X007302Y004698D02*
X007300Y004698D01*
X006830Y004541D02*
X005348Y004541D01*
X005348Y004462D02*
X006820Y004462D01*
X006829Y004384D02*
X005348Y004384D01*
X005348Y004227D02*
X006824Y004227D01*
X006861Y004305D02*
X004657Y004305D01*
X004657Y004227D02*
X004577Y004227D01*
X004577Y004305D02*
X003638Y004305D01*
X003716Y004227D02*
X003886Y004227D01*
X003886Y004148D02*
X003795Y004148D01*
X003873Y004070D02*
X003886Y004070D01*
X003886Y004384D02*
X003559Y004384D01*
X003520Y004462D02*
X003886Y004462D01*
X003624Y004541D02*
X003520Y004541D01*
X003555Y004619D02*
X003444Y004619D01*
X003365Y004698D02*
X003523Y004698D01*
X003520Y004776D02*
X003287Y004776D01*
X003208Y004855D02*
X003536Y004855D01*
X003577Y004933D02*
X003123Y004933D01*
X004011Y005169D02*
X006649Y005169D01*
X006570Y005247D02*
X004090Y005247D01*
X004168Y005326D02*
X006492Y005326D01*
X006413Y005404D02*
X004247Y005404D01*
X004325Y005483D02*
X006335Y005483D01*
X006256Y005561D02*
X004404Y005561D01*
X004577Y005012D02*
X004657Y005012D01*
X004657Y004933D02*
X004577Y004933D01*
X004577Y004855D02*
X004657Y004855D01*
X004657Y004776D02*
X004577Y004776D01*
X004577Y004698D02*
X004657Y004698D01*
X004657Y004619D02*
X004577Y004619D01*
X004577Y004541D02*
X004657Y004541D01*
X004657Y004462D02*
X004577Y004462D01*
X004577Y004384D02*
X004657Y004384D01*
X004657Y004148D02*
X004577Y004148D01*
X004577Y004070D02*
X004657Y004070D01*
X004657Y003991D02*
X004577Y003991D01*
X004577Y003913D02*
X004657Y003913D01*
X004657Y003834D02*
X004577Y003834D01*
X005305Y003834D02*
X006431Y003834D01*
X006510Y003913D02*
X005334Y003913D01*
X005348Y003991D02*
X006588Y003991D01*
X006667Y004070D02*
X005348Y004070D01*
X005348Y004148D02*
X006745Y004148D01*
X007613Y005483D02*
X007787Y005483D01*
X007800Y005561D02*
X007600Y005561D01*
X007600Y005640D02*
X007800Y005640D01*
X007800Y005718D02*
X007600Y005718D01*
X007600Y005797D02*
X007800Y005797D01*
X007800Y005875D02*
X007600Y005875D01*
X007600Y005954D02*
X007800Y005954D01*
X007800Y006032D02*
X007600Y006032D01*
X007600Y006111D02*
X007800Y006111D01*
X007800Y006189D02*
X007600Y006189D01*
X007600Y006268D02*
X007800Y006268D01*
X007800Y006346D02*
X007600Y006346D01*
X007600Y006425D02*
X007800Y006425D01*
X007800Y006503D02*
X007600Y006503D01*
X007600Y006582D02*
X007800Y006582D01*
X007877Y006660D02*
X007600Y006660D01*
X007600Y006739D02*
X007956Y006739D01*
X008034Y006817D02*
X007600Y006817D01*
X007600Y006896D02*
X008113Y006896D01*
X008191Y006974D02*
X007600Y006974D01*
X008207Y006425D02*
X010013Y006425D01*
X009934Y006503D02*
X008286Y006503D01*
X008364Y006582D02*
X009856Y006582D01*
X009920Y006800D02*
X010760Y005960D01*
X010992Y005797D02*
X011460Y005797D01*
X011460Y005875D02*
X011028Y005875D01*
X011040Y005954D02*
X011460Y005954D01*
X011460Y006032D02*
X011033Y006032D01*
X011001Y006111D02*
X011460Y006111D01*
X011460Y006189D02*
X010927Y006189D01*
X010492Y005875D02*
X008200Y005875D01*
X008200Y005797D02*
X010528Y005797D01*
X010613Y005718D02*
X008200Y005718D01*
X008200Y005640D02*
X011460Y005640D01*
X011460Y005718D02*
X010907Y005718D01*
X010480Y005954D02*
X008200Y005954D01*
X008200Y006032D02*
X010405Y006032D01*
X010327Y006111D02*
X008200Y006111D01*
X008200Y006189D02*
X010248Y006189D01*
X010170Y006268D02*
X008200Y006268D01*
X008200Y006346D02*
X010091Y006346D01*
X011460Y005483D02*
X008693Y005483D01*
X008582Y005561D02*
X011460Y005561D01*
X011460Y005247D02*
X010590Y005247D01*
X010704Y005169D02*
X011460Y005169D01*
X011460Y005090D02*
X010751Y005090D01*
X010771Y005012D02*
X011460Y005012D01*
X011460Y004933D02*
X010771Y004933D01*
X010771Y004855D02*
X011460Y004855D01*
X011460Y004776D02*
X010771Y004776D01*
X010771Y004698D02*
X011460Y004698D01*
X011460Y004619D02*
X010771Y004619D01*
X011231Y004541D02*
X011460Y004541D01*
X011460Y004462D02*
X011337Y004462D01*
X011416Y004384D02*
X011460Y004384D01*
X011051Y004070D02*
X010771Y004070D01*
X010771Y004077D02*
X011044Y004077D01*
X011180Y003941D01*
X011180Y001893D01*
X011141Y001877D01*
X011076Y001812D01*
X011076Y001942D01*
X011064Y001955D01*
X011076Y001967D01*
X011076Y002257D01*
X011064Y002270D01*
X011076Y002282D01*
X011076Y002572D01*
X010982Y002666D01*
X010063Y002666D01*
X010024Y002627D01*
X009696Y002627D01*
X009239Y003083D01*
X009257Y003101D01*
X009300Y003204D01*
X009300Y003316D01*
X009278Y003370D01*
X010548Y003370D01*
X010650Y003412D01*
X010728Y003490D01*
X010771Y003592D01*
X010771Y004077D01*
X010771Y003991D02*
X011130Y003991D01*
X011180Y003913D02*
X010771Y003913D01*
X010771Y003834D02*
X011180Y003834D01*
X011180Y003756D02*
X010771Y003756D01*
X010771Y003677D02*
X011180Y003677D01*
X011180Y003599D02*
X010771Y003599D01*
X010741Y003520D02*
X011180Y003520D01*
X011180Y003442D02*
X010680Y003442D01*
X011180Y003363D02*
X009280Y003363D01*
X009300Y003285D02*
X011180Y003285D01*
X011180Y003206D02*
X009300Y003206D01*
X009268Y003128D02*
X011180Y003128D01*
X011180Y003049D02*
X009274Y003049D01*
X009352Y002971D02*
X011180Y002971D01*
X011180Y002892D02*
X009431Y002892D01*
X009509Y002814D02*
X011180Y002814D01*
X011180Y002735D02*
X009588Y002735D01*
X009666Y002657D02*
X010053Y002657D01*
X009613Y002427D02*
X009020Y003020D01*
X009020Y003260D01*
X009613Y002427D02*
X010523Y002427D01*
X010992Y002657D02*
X011180Y002657D01*
X011180Y002578D02*
X011070Y002578D01*
X011076Y002500D02*
X011180Y002500D01*
X011180Y002421D02*
X011076Y002421D01*
X011076Y002343D02*
X011180Y002343D01*
X011180Y002264D02*
X011070Y002264D01*
X011076Y002186D02*
X011180Y002186D01*
X011180Y002107D02*
X011076Y002107D01*
X011076Y002029D02*
X011180Y002029D01*
X011180Y001950D02*
X011069Y001950D01*
X011076Y001872D02*
X011136Y001872D01*
X012286Y001087D02*
X012331Y001087D01*
X012331Y001008D02*
X012207Y001008D01*
X012129Y000930D02*
X012331Y000930D01*
X012331Y000851D02*
X012050Y000851D01*
X011972Y000773D02*
X012331Y000773D01*
X012331Y000694D02*
X011893Y000694D01*
X011815Y000616D02*
X012331Y000616D01*
X011060Y003080D02*
X010220Y003080D01*
X008092Y001715D02*
X007728Y001715D01*
X005180Y001479D02*
X000840Y001479D01*
X000840Y001401D02*
X005180Y001401D01*
X003330Y002971D02*
X000840Y002971D01*
X000840Y003049D02*
X003252Y003049D01*
X003173Y003128D02*
X000840Y003128D01*
X000840Y003206D02*
X003095Y003206D01*
X003016Y003285D02*
X000840Y003285D01*
X000840Y003363D02*
X002938Y003363D01*
X002859Y003442D02*
X000840Y003442D01*
X000840Y003520D02*
X002781Y003520D01*
X002702Y003599D02*
X000840Y003599D01*
X000840Y003677D02*
X002144Y003677D01*
X008213Y005483D02*
X008267Y005483D01*
X008200Y005561D02*
X008378Y005561D01*
D18*
X005360Y003980D03*
X003320Y007797D03*
M02*
