G75*
%MOIN*%
%OFA0B0*%
%FSLAX24Y24*%
%IPPOS*%
%LPD*%
%AMOC8*
5,1,8,0,0,1.08239X$1,22.5*
%
%ADD10C,0.0000*%
%ADD11R,0.0157X0.1102*%
%ADD12R,0.0100X0.0280*%
%ADD13R,0.0960X0.0960*%
%ADD14R,0.0354X0.0276*%
%ADD15R,0.0276X0.0354*%
%ADD16R,0.0299X0.0945*%
%ADD17R,0.0200X0.0400*%
D10*
X000680Y000380D02*
X000680Y008254D01*
X012491Y008254D01*
X012491Y000380D01*
X000680Y000380D01*
D11*
X003436Y006049D03*
X003751Y006049D03*
X004066Y006049D03*
X004381Y006049D03*
X004696Y006049D03*
X005011Y006049D03*
X005326Y006049D03*
X005641Y006049D03*
X005956Y006049D03*
X006271Y006049D03*
X006586Y006049D03*
X006900Y006049D03*
X007215Y006049D03*
X007530Y006049D03*
X007845Y006049D03*
X008160Y006049D03*
X008475Y006049D03*
X008790Y006049D03*
X009105Y006049D03*
X009420Y006049D03*
X009735Y006049D03*
D12*
G36*
X007137Y003706D02*
X007066Y003777D01*
X007263Y003974D01*
X007334Y003903D01*
X007137Y003706D01*
G37*
G36*
X007264Y003578D02*
X007193Y003649D01*
X007390Y003846D01*
X007461Y003775D01*
X007264Y003578D01*
G37*
G36*
X007391Y003451D02*
X007320Y003522D01*
X007517Y003719D01*
X007588Y003648D01*
X007391Y003451D01*
G37*
G36*
X007511Y003331D02*
X007440Y003402D01*
X007637Y003599D01*
X007708Y003528D01*
X007511Y003331D01*
G37*
G36*
X007639Y003204D02*
X007568Y003275D01*
X007765Y003472D01*
X007836Y003401D01*
X007639Y003204D01*
G37*
G36*
X007836Y002935D02*
X007765Y002864D01*
X007568Y003061D01*
X007639Y003132D01*
X007836Y002935D01*
G37*
G36*
X007708Y002808D02*
X007637Y002737D01*
X007440Y002934D01*
X007511Y003005D01*
X007708Y002808D01*
G37*
G36*
X007588Y002688D02*
X007517Y002617D01*
X007320Y002814D01*
X007391Y002885D01*
X007588Y002688D01*
G37*
G36*
X007461Y002560D02*
X007390Y002489D01*
X007193Y002686D01*
X007264Y002757D01*
X007461Y002560D01*
G37*
G36*
X007334Y002433D02*
X007263Y002362D01*
X007066Y002559D01*
X007137Y002630D01*
X007334Y002433D01*
G37*
G36*
X007213Y002313D02*
X007142Y002242D01*
X006945Y002439D01*
X007016Y002510D01*
X007213Y002313D01*
G37*
G36*
X007086Y002186D02*
X007015Y002115D01*
X006818Y002312D01*
X006889Y002383D01*
X007086Y002186D01*
G37*
G36*
X006550Y002115D02*
X006479Y002186D01*
X006676Y002383D01*
X006747Y002312D01*
X006550Y002115D01*
G37*
G36*
X006422Y002242D02*
X006351Y002313D01*
X006548Y002510D01*
X006619Y002439D01*
X006422Y002242D01*
G37*
G36*
X006302Y002362D02*
X006231Y002433D01*
X006428Y002630D01*
X006499Y002559D01*
X006302Y002362D01*
G37*
G36*
X006175Y002489D02*
X006104Y002560D01*
X006301Y002757D01*
X006372Y002686D01*
X006175Y002489D01*
G37*
G36*
X006048Y002617D02*
X005977Y002688D01*
X006174Y002885D01*
X006245Y002814D01*
X006048Y002617D01*
G37*
G36*
X005927Y002737D02*
X005856Y002808D01*
X006053Y003005D01*
X006124Y002934D01*
X005927Y002737D01*
G37*
G36*
X005800Y002864D02*
X005729Y002935D01*
X005926Y003132D01*
X005997Y003061D01*
X005800Y002864D01*
G37*
G36*
X005997Y003275D02*
X005926Y003204D01*
X005729Y003401D01*
X005800Y003472D01*
X005997Y003275D01*
G37*
G36*
X006124Y003402D02*
X006053Y003331D01*
X005856Y003528D01*
X005927Y003599D01*
X006124Y003402D01*
G37*
G36*
X006245Y003522D02*
X006174Y003451D01*
X005977Y003648D01*
X006048Y003719D01*
X006245Y003522D01*
G37*
G36*
X006372Y003649D02*
X006301Y003578D01*
X006104Y003775D01*
X006175Y003846D01*
X006372Y003649D01*
G37*
G36*
X006499Y003777D02*
X006428Y003706D01*
X006231Y003903D01*
X006302Y003974D01*
X006499Y003777D01*
G37*
G36*
X006619Y003897D02*
X006548Y003826D01*
X006351Y004023D01*
X006422Y004094D01*
X006619Y003897D01*
G37*
G36*
X006747Y004024D02*
X006676Y003953D01*
X006479Y004150D01*
X006550Y004221D01*
X006747Y004024D01*
G37*
G36*
X006889Y003953D02*
X006818Y004024D01*
X007015Y004221D01*
X007086Y004150D01*
X006889Y003953D01*
G37*
G36*
X007016Y003826D02*
X006945Y003897D01*
X007142Y004094D01*
X007213Y004023D01*
X007016Y003826D01*
G37*
D13*
G36*
X006782Y003846D02*
X007460Y003168D01*
X006782Y002490D01*
X006104Y003168D01*
X006782Y003846D01*
G37*
D14*
X010760Y004056D03*
X011300Y004094D03*
X011300Y003583D03*
X010760Y003544D03*
X010400Y007286D03*
X010400Y007797D03*
X009500Y007814D03*
X009500Y007303D03*
X008600Y007286D03*
X008600Y007797D03*
X007700Y007797D03*
X007700Y007286D03*
X005480Y007286D03*
X005480Y007797D03*
X004580Y007797D03*
X004580Y007286D03*
X003680Y007286D03*
X003680Y007797D03*
X003020Y007797D03*
X003020Y007286D03*
X002180Y007286D03*
X001561Y007226D03*
X001561Y007737D03*
X002180Y007797D03*
X011306Y007797D03*
X011306Y007286D03*
D15*
X006974Y007541D03*
X006463Y007541D03*
G36*
X005901Y004692D02*
X005706Y004497D01*
X005457Y004746D01*
X005652Y004941D01*
X005901Y004692D01*
G37*
G36*
X005539Y004330D02*
X005344Y004135D01*
X005095Y004384D01*
X005290Y004579D01*
X005539Y004330D01*
G37*
G36*
X004747Y001730D02*
X004942Y001925D01*
X005191Y001676D01*
X004996Y001481D01*
X004747Y001730D01*
G37*
G36*
X004386Y001368D02*
X004581Y001563D01*
X004830Y001314D01*
X004635Y001119D01*
X004386Y001368D01*
G37*
G36*
X006828Y001260D02*
X007023Y001455D01*
X007272Y001206D01*
X007077Y001011D01*
X006828Y001260D01*
G37*
G36*
X007190Y001622D02*
X007385Y001817D01*
X007634Y001568D01*
X007439Y001373D01*
X007190Y001622D01*
G37*
G36*
X008006Y001012D02*
X007811Y000817D01*
X007562Y001066D01*
X007757Y001261D01*
X008006Y001012D01*
G37*
G36*
X008368Y001374D02*
X008173Y001179D01*
X007924Y001428D01*
X008119Y001623D01*
X008368Y001374D01*
G37*
G36*
X008995Y002488D02*
X009190Y002683D01*
X009439Y002434D01*
X009244Y002239D01*
X008995Y002488D01*
G37*
G36*
X009357Y002850D02*
X009552Y003045D01*
X009801Y002796D01*
X009606Y002601D01*
X009357Y002850D01*
G37*
D16*
X003899Y003904D03*
X003399Y003904D03*
X002899Y003904D03*
X002399Y003904D03*
X001899Y003904D03*
X001399Y003904D03*
X001399Y001581D03*
X001899Y001581D03*
X002399Y001581D03*
X002899Y001581D03*
X003399Y001581D03*
X003899Y001581D03*
D17*
G36*
X008320Y001882D02*
X008462Y002024D01*
X008744Y001742D01*
X008602Y001600D01*
X008320Y001882D01*
G37*
G36*
X008626Y002188D02*
X008768Y002330D01*
X009050Y002048D01*
X008908Y001906D01*
X008626Y002188D01*
G37*
M02*
